<?xml version="1.0" standalone="no"?><!DOCTYPE svg PUBLIC "-//W3C//DTD SVG 1.1//EN" "http://www.w3.org/Graphics/SVG/1.1/DTD/svg11.dtd"><svg t="1503894486945" class="icon" style="" viewBox="0 0 1024 1024" version="1.1" xmlns="http://www.w3.org/2000/svg" p-id="1433" xmlns:xlink="http://www.w3.org/1999/xlink" width="200" height="200"><defs><style type="text/css"></style></defs><path d="M42.666667 42.666667l482.688 0 418.688 418.346667q37.333333 37.333333 37.333333 90.325333 0 53.333333-37.333333 90.666667l-301.994667 301.994667q-37.333333 37.333333-90.325333 37.333333-53.333333 0-90.666667-37.333333l-418.346667-418.688 0-482.688zM883.669333 521.344l-393.685333-393.344-361.984 0 0 361.984 393.344 393.685333q12.672 12.330667 30.336 12.330667t29.994667-12.330667l301.994667-301.994667q12.330667-12.330667 12.330667-29.994667t-12.330667-30.336zM362.666667 256q44.330667 0 75.52 31.146667t31.146667 75.52-31.146667 75.52-75.52 31.146667-75.52-31.146667-31.146667-75.52 31.146667-75.52 75.52-31.146667zM362.666667 341.333333q-8.661333 0-15.018667 6.314667t-6.314667 15.018667 6.314667 15.018667 15.018667 6.314667 15.018667-6.314667 6.314667-15.018667-6.314667-15.018667-15.018667-6.314667z" p-id="1434"></path></svg>