<?xml version="1.0" standalone="no"?><!DOCTYPE svg PUBLIC "-//W3C//DTD SVG 1.1//EN" "http://www.w3.org/Graphics/SVG/1.1/DTD/svg11.dtd" ><svg xmlns="http://www.w3.org/2000/svg"><metadata></metadata><defs><font id="Founder:FZYouHeiS-UL-GB	Regular" horiz-adv-x="1000"><font-face font-family="FZYouHeiS-UL-GB" font-weight="400" font-stretch="normal" units-per-em="1000" panose-1="2 0 0 0 0 0 0 0 0 0" ascent="864" descent="-217" x-height="0" bbox="-21 -167 1003 850" underline-thickness="50" underline-position="-167" unicode-range="U+0021-ff5c" /><missing-glyph horiz-adv-x="1000" d="M127 707 l40 0 l-13 -509 l-14 0 l-13 509 ZM167 66 l0 -60 l-40 0 l0 60 l40 0 Z" /><glyph glyph-name="" unicode="!" d="M127 707 l40 0 l-13 -509 l-14 0 l-13 509 ZM167 66 l0 -60 l-40 0 l0 60 l40 0 Z" /><glyph glyph-name="" unicode="&quot;" d="M50 707 l40 0 l-13 -234 l-14 0 l-13 234 ZM210 707 l40 0 l-13 -234 l-14 0 l-13 234 Z" /><glyph glyph-name="" unicode="#" d="M105 6 l59 239 l-134 0 l6 20 l133 0 l50 203 l-127 0 l6 20 l126 0 l54 219 l20 0 l-54 -219 l177 0 l54 219 l20 0 l-54 -219 l130 0 l-6 -20 l-129 0 l-50 -203 l123 0 l-6 -20 l-122 0 l-58 -239 l-20 0 l58 239 l-177 0 l-59 -239 l-20 0 ZM239 468 l-50 -203 l177 0 l50 203 l-177 0 Z" /><glyph glyph-name="" unicode="$" d="M280 777 l0 -83 q168 -13 201 -161 l-20 -6 q-29 137 -181 147 l0 -293 q120 -24 171 -75 q50 -51 49 -121 q-1 -79 -57 -128 q-57 -48 -163 -51 l0 -82 l-20 0 l0 82 q-96 1 -155 47 q-58 46 -83 149 l19 6 q22 -95 74 -138 q52 -43 145 -44 l0 338 q-218 37 -215 175 q1 67 57 111 q56 43 156 45 l2 0 l0 82 l20 0 ZM280 360 l0 -334 q99 3 150 46 q50 44 50 113 q2 60 -42 106 q-44 45 -158 69 ZM260 384 l0 291 l-2 0 q-93 -2 -143 -41 q-50 -39 -50 -95 q-2 -54 41 -94 q43 -39 154 -61 Z" /><glyph glyph-name="" unicode="%" d="M186 707 q60 0 98 -44 q38 -44 39 -135 q-1 -88 -38 -133 q-37 -46 -99 -46 q-61 0 -98 45 q-37 45 -38 134 q1 91 37 135 q37 44 99 44 ZM186 369 q53 0 85 39 q31 40 32 120 q-4 160 -117 159 q-112 2 -116 -159 q1 -79 32 -119 q31 -40 84 -40 ZM197 -6 l386 713 l20 0 l-386 -713 l-20 0 ZM613 352 q60 0 98 -44 q38 -44 39 -135 q-1 -88 -38 -133 q-37 -45 -99 -45 q-61 0 -98 44 q-37 45 -38 134 q1 91 37 135 q37 44 99 44 ZM613 14 q53 0 85 39 q31 40 32 120 q-4 160 -117 159 q-112 2 -116 -159 q1 -79 32 -119 q31 -40 84 -40 Z" /><glyph glyph-name="" unicode="&amp;" d="M583 364 l20 0 q-9 -114 -71 -214 q72 -63 149 -128 l-12 -16 q-70 58 -148 127 q-44 -62 -109 -100 q-66 -37 -154 -38 q-94 1 -151 51 q-56 51 -58 138 q0 144 191 215 q-57 58 -77 96 q-20 38 -19 71 q2 62 43 101 q42 39 106 40 q72 -1 115 -39 q42 -38 43 -101 q1 -62 -42 -104 q-42 -41 -135 -72 q96 -97 243 -228 q56 92 66 201 ZM258 14 q81 1 144 37 q62 36 104 96 q-72 64 -138 125 q-65 61 -114 111 q-101 -37 -143 -87 q-43 -50 -42 -112 q1 -78 51 -123 q51 -46 138 -47 ZM293 687 q-57 -1 -93 -36 q-35 -35 -36 -86 q-1 -34 22 -70 q22 -36 74 -89 q99 34 136 71 q37 37 35 91 q-1 53 -37 86 q-37 32 -101 33 Z" /><glyph glyph-name="" unicode="&#39;" d="M130 707 l40 0 l-13 -234 l-14 0 l-13 234 Z" /><glyph glyph-name="" unicode="(" d="M307 -69 l-20 0 q-57 100 -84 199 q-28 100 -28 220 q0 107 29 209 q28 102 83 210 l20 0 q-57 -114 -84 -216 q-28 -101 -28 -203 q0 -116 28 -216 q27 -100 84 -203 Z" /><glyph glyph-name="" unicode=")" d="M63 -69 l-20 0 q57 103 85 203 q27 100 27 216 q0 102 -27 203 q-28 102 -85 216 l20 0 q55 -108 83 -210 q29 -102 29 -209 q0 -120 -27 -220 q-28 -99 -85 -199 Z" /><glyph glyph-name="" unicode="*" d="M61 569 l10 28 l145 -53 l-9 163 l30 0 l-9 -163 l152 53 l10 -28 l-159 -37 l120 -135 l-23 -20 l-106 147 l-100 -147 l-24 19 l115 136 l-152 37 Z" /><glyph glyph-name="" unicode="+" d="M485 361 l0 -20 l-200 0 l0 -200 l-20 0 l0 200 l-200 0 l0 20 l200 0 l0 200 l20 0 l0 -200 l200 0 Z" /><glyph glyph-name="" unicode="," d="M175 76 l0 -70 q1 -104 -66 -160 l-13 14 q59 51 59 146 l-30 0 l0 70 l50 0 Z" /><glyph glyph-name="" unicode="-" d="M485 361 l0 -20 l-420 0 l0 20 l420 0 Z" /><glyph glyph-name="" unicode="." d="M175 76 l0 -70 l-50 0 l0 70 l50 0 Z" /><glyph glyph-name="" unicode="/" d="M47 -6 l-20 0 l227 713 l20 0 l-227 -713 Z" /><glyph glyph-name="" unicode="0" d="M247 14 q82 -2 131 76 q48 77 49 261 q-1 179 -49 258 q-49 80 -131 78 q-82 1 -130 -78 q-48 -80 -49 -258 q1 -179 48 -258 q48 -80 131 -79 ZM247 707 q92 1 145 -85 q54 -85 55 -271 q-1 -187 -53 -273 q-52 -84 -147 -83 q-88 -2 -143 80 q-54 84 -56 276 q1 184 55 271 q53 86 144 85 Z" /><glyph glyph-name="" unicode="1" d="M257 6 l-20 0 l0 649 q-52 -104 -189 -176 l0 20 q85 49 130 101 q46 53 64 107 l15 0 l0 -701 Z" /><glyph glyph-name="" unicode="2" d="M446 26 l0 -20 l-397 0 l0 16 q33 76 83 140 q50 64 125 125 q97 80 133 133 q36 52 34 102 q-1 76 -42 120 q-41 44 -117 45 q-126 1 -183 -142 l-18 8 q63 156 201 154 q85 -1 132 -51 q46 -50 47 -134 q1 -54 -37 -112 q-38 -57 -130 -132 q-76 -61 -123 -120 q-47 -58 -82 -132 l374 0 Z" /><glyph glyph-name="" unicode="3" d="M46 167 l18 6 q51 -163 188 -159 q87 1 132 48 q45 47 45 132 q0 75 -48 118 q-48 43 -142 44 l-45 0 l0 20 l45 0 q79 1 121 43 q43 42 43 115 q-1 69 -42 110 q-41 42 -110 43 q-130 0 -171 -146 l-19 6 q43 157 190 160 q76 -1 124 -49 q47 -47 48 -124 q-3 -129 -118 -168 q68 -13 106 -58 q37 -44 38 -114 q-1 -96 -52 -148 q-52 -50 -145 -51 q-156 2 -206 172 Z" /><glyph glyph-name="" unicode="4" d="M59 207 l294 0 l0 464 l-294 -464 ZM458 187 l-85 0 l0 -181 l-20 0 l0 181 l-316 0 l0 16 l320 504 l16 0 l0 -500 l85 0 l0 -20 Z" /><glyph glyph-name="" unicode="5" d="M96 351 l-14 4 l34 340 l302 0 l0 -20 l-286 0 l-29 -290 q60 74 155 76 q79 -1 133 -62 q54 -62 56 -170 q-1 -110 -55 -172 q-53 -61 -141 -62 q-153 0 -203 171 l18 6 q45 -158 185 -158 q81 1 128 57 q47 57 48 158 q-1 97 -49 154 q-48 57 -128 58 q-92 -4 -154 -90 Z" /><glyph glyph-name="" unicode="6" d="M68 245 q1 -104 49 -166 q49 -63 138 -65 q80 1 125 58 q46 57 47 154 q-2 90 -50 144 q-48 54 -122 55 q-84 -3 -135 -55 q-51 -53 -52 -125 ZM432 565 l-17 -9 q-52 132 -152 131 q-96 1 -145 -86 q-50 -87 -50 -278 q59 120 187 122 q84 -2 137 -61 q53 -60 55 -158 q-1 -107 -54 -169 q-52 -61 -138 -62 q-95 0 -150 67 q-56 67 -57 201 l0 57 q-2 390 216 387 q112 0 168 -142 Z" /><glyph glyph-name="" unicode="7" d="M447 695 l0 -16 q-223 -346 -260 -673 l-24 0 q20 156 81 318 q61 161 179 351 l-375 0 l0 20 l399 0 Z" /><glyph glyph-name="" unicode="8" d="M247 358 q-88 -2 -135 -50 q-47 -48 -48 -122 q1 -77 48 -124 q47 -47 135 -48 q88 2 136 49 q47 48 48 123 q-1 78 -49 124 q-48 47 -135 48 ZM247 687 q-73 -1 -114 -44 q-41 -42 -42 -110 q1 -69 43 -111 q42 -43 113 -44 q77 1 117 43 q40 42 40 112 q-1 69 -43 111 q-42 42 -114 43 ZM177 368 q-48 21 -77 64 q-28 43 -29 101 q1 77 48 125 q47 48 128 49 q79 -1 127 -49 q49 -48 50 -125 q-1 -121 -106 -165 q130 -44 133 -182 q-1 -84 -55 -137 q-54 -52 -149 -54 q-94 1 -148 53 q-54 52 -55 138 q1 66 36 114 q35 48 97 68 Z" /><glyph glyph-name="" unicode="9" d="M427 456 q-1 104 -49 167 q-48 62 -137 64 q-80 -1 -126 -58 q-46 -57 -47 -154 q2 -90 50 -144 q49 -54 123 -55 q84 2 135 54 q50 52 51 126 ZM57 135 l17 9 q56 -132 159 -130 q96 -1 146 86 q50 88 50 279 q-61 -123 -188 -123 q-84 2 -137 62 q-54 59 -56 157 q2 107 55 169 q52 62 138 63 q95 0 150 -70 q55 -71 56 -212 l0 -44 q3 -389 -215 -386 q-56 0 -102 34 q-45 35 -73 106 Z" /><glyph glyph-name="" unicode=":" d="M175 386 l0 -70 l-50 0 l0 70 l50 0 ZM175 76 l0 -70 l-50 0 l0 70 l50 0 Z" /><glyph glyph-name="" unicode=";" d="M175 386 l0 -70 l-50 0 l0 70 l50 0 ZM175 76 l0 -70 q1 -104 -66 -160 l-13 14 q59 51 59 146 l-30 0 l0 70 l50 0 Z" /><glyph glyph-name="" unicode="&lt;" d="M520 103 l-490 238 l0 20 l490 238 l0 -24 l-470 -224 l470 -224 l0 -24 Z" /><glyph glyph-name="" unicode="=" d="M485 471 l0 -20 l-420 0 l0 20 l420 0 ZM485 251 l0 -20 l-420 0 l0 20 l420 0 Z" /><glyph glyph-name="" unicode="&gt;" d="M520 341 l-490 -238 l0 24 l470 224 l-470 224 l0 24 l490 -238 l0 -20 Z" /><glyph glyph-name="" unicode="?" d="M279 -6 l0 60 l-24 0 l0 -60 l24 0 ZM277 219 l0 -21 l-20 0 l0 21 q0 97 99 155 q66 37 98 76 q31 40 31 90 q-1 63 -53 104 q-51 42 -136 43 q-92 0 -147 -39 q-56 -38 -85 -117 l-19 6 q64 174 251 170 q97 -2 153 -50 q55 -48 56 -117 q1 -53 -31 -95 q-32 -43 -109 -89 q-91 -56 -88 -137 Z" /><glyph glyph-name="" unicode="@" d="M502 309 l14 107 q5 47 -25 77 q-29 29 -82 30 q-78 -2 -124 -57 q-46 -55 -47 -142 q1 -71 36 -103 q34 -32 87 -32 q58 1 96 33 q37 32 45 87 ZM533 535 l20 0 l-33 -238 q-9 -60 8 -84 q17 -25 55 -24 q64 1 108 57 q43 56 45 152 q-2 134 -88 211 q-87 76 -234 78 q-156 -3 -251 -95 q-95 -93 -98 -246 q2 -162 94 -247 q93 -84 250 -85 q168 1 283 90 l11 -15 q-127 -95 -294 -94 q-167 1 -264 91 q-98 92 -100 260 q3 159 102 259 q100 99 267 102 q162 -3 251 -87 q90 -85 91 -222 q-2 -102 -50 -165 q-48 -62 -123 -64 q-78 1 -82 85 q-50 -85 -140 -85 q-64 0 -103 40 q-39 39 -40 115 q2 96 54 156 q53 61 138 63 q77 0 115 -64 l8 56 Z" /><glyph glyph-name="" unicode="a" d="M42 6 l-24 0 l269 701 l20 0 l269 -701 l-24 0 l-90 240 l-330 0 l-90 -240 ZM297 687 l-158 -421 l315 0 l-157 421 Z" /><glyph glyph-name="" unicode="b" d="M319 356 l-209 0 l0 -330 l222 0 q191 1 189 165 q0 71 -52 117 q-52 46 -150 48 ZM319 675 l-209 0 l0 -299 l209 0 q83 1 128 39 q45 39 45 109 q0 66 -44 108 q-45 42 -129 43 ZM332 6 l-242 0 l0 689 l229 0 q91 -1 142 -48 q50 -46 51 -123 q0 -124 -125 -158 q75 -16 114 -62 q40 -47 40 -113 q-2 -182 -209 -185 Z" /><glyph glyph-name="" unicode="c" d="M567 219 l21 -5 q-26 -106 -94 -163 q-69 -55 -171 -56 q-118 2 -196 95 q-78 94 -81 259 q3 164 81 260 q78 96 196 98 q83 -1 150 -51 q66 -50 100 -132 l-19 -8 q-27 72 -88 121 q-62 48 -143 50 q-111 -2 -183 -92 q-72 -91 -74 -246 q3 -161 78 -248 q74 -86 179 -87 q193 1 244 205 Z" /><glyph glyph-name="" unicode="d" d="M301 675 l-191 0 l0 -649 l191 0 q135 -1 203 78 q67 78 67 247 q-1 156 -73 240 q-71 83 -197 84 ZM301 6 l-211 0 l0 689 l211 0 q134 -1 211 -90 q77 -89 79 -254 q0 -179 -74 -262 q-74 -84 -216 -83 Z" /><glyph glyph-name="" unicode="e" d="M110 26 l428 0 l0 -20 l-448 0 l0 689 l431 0 l0 -20 l-411 0 l0 -299 l388 0 l0 -20 l-388 0 l0 -330 Z" /><glyph glyph-name="" unicode="f" d="M495 675 l-385 0 l0 -300 l336 0 l0 -20 l-336 0 l0 -349 l-20 0 l0 689 l405 0 l0 -20 Z" /><glyph glyph-name="" unicode="g" d="M362 353 l244 0 l0 -239 q-82 -117 -258 -119 q-127 2 -213 95 q-87 94 -90 259 q3 165 86 261 q83 95 211 97 q110 -2 173 -55 q63 -53 86 -130 l-18 -8 q-56 171 -241 173 q-123 -2 -199 -94 q-76 -91 -78 -244 q4 -158 85 -246 q81 -88 198 -89 q84 1 144 29 q61 28 94 76 l0 214 l-224 0 l0 20 Z" /><glyph glyph-name="" unicode="h" d="M540 695 l20 0 l0 -689 l-20 0 l0 351 l-430 0 l0 -351 l-20 0 l0 689 l20 0 l0 -318 l430 0 l0 318 Z" /><glyph glyph-name="" unicode="i" d="M140 6 l-20 0 l0 689 l20 0 l0 -689 Z" /><glyph glyph-name="" unicode="j" d="M340 695 l0 -494 q-1 -109 -41 -158 q-41 -49 -116 -48 q-72 1 -113 48 q-41 49 -52 137 l19 4 q24 -173 146 -170 q68 -1 103 43 q34 44 34 144 l0 494 l20 0 Z" /><glyph glyph-name="" unicode="k" d="M110 216 l0 -210 l-20 0 l0 689 l20 0 l0 -454 l423 454 l25 0 l-265 -283 l285 -406 l-25 0 l-272 393 l-171 -183 Z" /><glyph glyph-name="" unicode="l" d="M463 26 l0 -20 l-373 0 l0 689 l20 0 l0 -669 l353 0 Z" /><glyph glyph-name="" unicode="m" d="M655 695 l20 0 l0 -689 l-20 0 l0 641 l-263 -641 l-20 0 l-262 641 l0 -641 l-20 0 l0 689 l20 0 l272 -665 l273 665 Z" /><glyph glyph-name="" unicode="n" d="M547 6 l-437 655 l0 -655 l-20 0 l0 689 l20 0 l437 -655 l0 655 l20 0 l0 -689 l-20 0 Z" /><glyph glyph-name="" unicode="o" d="M345 687 q-120 -3 -198 -96 q-78 -92 -81 -240 q3 -160 82 -248 q79 -88 197 -89 q126 2 202 91 q76 90 78 246 q-3 151 -83 242 q-79 92 -197 94 ZM345 -5 q-132 2 -214 97 q-83 95 -85 259 q3 159 87 256 q84 97 212 100 q128 -3 212 -99 q85 -97 88 -257 q-2 -166 -83 -261 q-81 -93 -217 -95 Z" /><glyph glyph-name="" unicode="p" d="M332 675 l-222 0 l0 -354 l222 0 q199 5 197 183 q0 74 -51 122 q-51 47 -146 49 ZM332 301 l-222 0 l0 -295 l-20 0 l0 689 l242 0 q101 -2 158 -54 q58 -53 59 -137 q-1 -99 -56 -151 q-56 -52 -161 -52 Z" /><glyph glyph-name="" unicode="q" d="M394 -4 l151 -153 l-19 -10 l-155 161 l-28 0 q-131 3 -213 99 q-81 97 -84 263 q3 160 88 254 q84 95 211 97 q128 -2 213 -96 q85 -94 88 -254 q-4 -306 -252 -361 ZM340 14 q130 1 207 89 q77 89 79 254 q-3 155 -84 242 q-81 87 -197 88 q-120 -2 -198 -92 q-78 -90 -81 -239 q3 -158 79 -249 q76 -91 195 -93 Z" /><glyph glyph-name="" unicode="r" d="M332 333 l-12 0 l229 -327 l-25 0 l-226 327 l-188 0 l0 -327 l-20 0 l0 689 l242 0 q100 -1 153 -47 q54 -46 54 -129 q2 -190 -207 -186 ZM332 675 l-222 0 l0 -322 l222 0 q100 0 144 40 q44 40 43 126 q0 73 -46 114 q-47 41 -141 42 Z" /><glyph glyph-name="" unicode="s" d="M481 540 l-20 -6 q-32 150 -203 153 q-96 -1 -144 -39 q-49 -38 -49 -102 q-2 -55 44 -95 q46 -40 161 -69 q121 -30 176 -78 q55 -49 54 -124 q-1 -87 -59 -136 q-58 -48 -167 -49 q-102 -1 -164 46 q-62 49 -88 155 l19 6 q24 -98 79 -143 q55 -46 154 -45 q102 1 154 45 q52 44 52 121 q2 65 -48 109 q-49 44 -169 74 q-111 27 -164 71 q-54 43 -54 113 q1 74 56 116 q55 43 157 44 q94 -1 150 -45 q56 -45 73 -122 Z" /><glyph glyph-name="" unicode="t" d="M497 675 l-230 0 l0 -669 l-20 0 l0 669 l-229 0 l0 20 l479 0 l0 -20 Z" /><glyph glyph-name="" unicode="u" d="M547 296 l0 399 l20 0 l0 -399 q-1 -158 -62 -230 q-62 -72 -177 -71 q-114 -1 -176 72 q-61 74 -62 229 l0 399 l20 0 l0 -399 q0 -146 56 -214 q56 -69 162 -68 q108 -1 164 67 q55 68 55 215 Z" /><glyph glyph-name="" unicode="v" d="M18 695 l24 0 l250 -677 l251 677 l24 0 l-265 -701 l-20 0 l-264 701 Z" /><glyph glyph-name="" unicode="w" d="M786 695 l24 0 l-188 -689 l-20 0 l-188 659 l-188 -659 l-20 0 l-188 689 l24 0 l174 -659 l188 659 l20 0 l188 -659 l174 659 Z" /><glyph glyph-name="" unicode="x" d="M297 365 l254 -359 l-25 0 l-242 342 l-241 -342 l-25 0 l254 359 l-227 330 l25 0 l214 -316 l215 316 l25 0 l-227 -330 Z" /><glyph glyph-name="" unicode="y" d="M551 695 l-259 -389 l0 -300 l-20 0 l0 300 l-254 389 l25 0 l239 -370 l244 370 l25 0 Z" /><glyph glyph-name="" unicode="z" d="M483 695 l0 -16 l-439 -653 l453 0 l0 -20 l-479 0 l0 16 l439 653 l-403 0 l0 20 l429 0 Z" /><glyph glyph-name="" unicode="[" d="M307 -36 l0 -20 l-171 0 l0 813 l171 0 l0 -20 l-151 0 l0 -773 l151 0 Z" /><glyph glyph-name="" unicode="\" d="M298 -6 l-20 0 l-227 713 l20 0 l227 -713 Z" /><glyph glyph-name="" unicode="]" d="M43 -56 l0 20 l151 0 l0 773 l-151 0 l0 20 l171 0 l0 -813 l-171 0 Z" /><glyph glyph-name="" unicode="^" d="M235 707 l182 -246 l-24 0 l-168 228 l-168 -228 l-24 0 l182 246 l20 0 Z" /><glyph glyph-name="" unicode="_" d="M550 -36 l0 -20 l-550 0 l0 20 l550 0 Z" /><glyph glyph-name="" unicode="`" d="M85 707 l40 0 l90 -234 l-14 0 l-116 234 Z" /><glyph glyph-name="" unicode="a" d="M388 168 l0 128 q-57 -38 -184 -61 q-74 -13 -107 -41 q-33 -29 -32 -76 q-2 -101 121 -104 q88 2 144 48 q56 45 58 106 ZM80 350 l-19 6 q35 116 185 117 q164 3 162 -154 l0 -170 q0 -75 18 -143 l-20 0 q-12 38 -17 99 q-31 -53 -83 -82 q-53 -28 -120 -28 q-139 3 -141 123 q-4 109 153 136 q132 23 190 63 q1 72 -32 104 q-34 33 -110 32 q-71 0 -109 -25 q-39 -26 -57 -78 Z" /><glyph glyph-name="" unicode="b" d="M92 284 l0 -100 q1 -77 45 -123 q44 -46 116 -47 q75 0 118 55 q44 54 45 165 q-1 108 -47 163 q-45 56 -116 56 q-68 -2 -114 -50 q-45 -48 -47 -119 ZM92 6 l-20 0 l0 689 l20 0 l0 -336 q25 52 67 83 q43 30 97 31 q76 0 127 -62 q51 -61 53 -177 q-2 -119 -51 -180 q-50 -59 -129 -59 q-117 4 -164 108 l0 -97 Z" /><glyph glyph-name="" unicode="c" d="M407 351 l-18 -8 q-19 50 -59 80 q-40 29 -94 30 q-77 -1 -123 -57 q-47 -56 -48 -161 q2 -111 49 -166 q47 -55 122 -55 q125 2 159 137 l19 -6 q-19 -76 -65 -114 q-46 -36 -113 -36 q-81 0 -135 59 q-54 60 -56 181 q1 113 54 175 q52 62 137 63 q119 -2 171 -122 Z" /><glyph glyph-name="" unicode="d" d="M389 184 l0 100 q-2 71 -47 119 q-46 48 -114 50 q-72 0 -117 -56 q-45 -55 -46 -163 q1 -111 45 -165 q44 -55 118 -55 q71 1 115 47 q45 46 46 123 ZM409 6 l-20 0 l0 97 q-22 -48 -64 -78 q-43 -29 -100 -30 q-79 0 -129 59 q-49 61 -51 180 q2 116 53 177 q51 62 127 62 q54 -1 97 -31 q43 -31 67 -83 l0 336 l20 0 l0 -689 Z" /><glyph glyph-name="" unicode="e" d="M411 131 l19 -7 q-45 -126 -183 -129 q-87 1 -143 61 q-57 62 -59 178 q2 111 56 174 q54 64 140 65 q86 -1 140 -63 q54 -63 56 -178 l-372 0 q1 -104 51 -160 q50 -57 131 -58 q128 5 164 117 ZM65 252 l352 0 q-3 87 -50 143 q-48 56 -126 58 q-77 -2 -125 -58 q-48 -56 -51 -143 Z" /><glyph glyph-name="" unicode="f" d="M126 598 l0 -137 l109 0 l0 -20 l-109 0 l0 -435 l-20 0 l0 435 l-86 0 l0 20 l86 0 l0 137 q1 56 26 83 q25 26 68 26 q40 -1 68 -14 l-6 -18 q-32 12 -62 12 q-71 2 -74 -89 Z" /><glyph glyph-name="" unicode="g" d="M398 199 l0 100 q-1 67 -47 110 q-46 43 -119 44 q-77 -1 -121 -56 q-45 -55 -46 -148 q1 -101 48 -153 q46 -52 119 -52 q78 1 122 42 q43 41 44 113 ZM418 461 l0 -413 q-4 -204 -197 -202 q-92 1 -170 58 l11 16 q77 -54 159 -54 q177 -3 177 182 l0 71 q-50 -94 -164 -95 q-81 0 -134 56 q-53 57 -55 169 q2 104 53 163 q52 60 136 61 q115 -5 164 -98 l0 86 l20 0 Z" /><glyph glyph-name="" unicode="h" d="M92 695 l0 -329 q51 104 148 107 q76 0 122 -47 q46 -47 47 -137 l0 -283 l-20 0 l0 283 q-1 79 -40 121 q-39 43 -109 43 q-63 -2 -105 -48 q-41 -47 -43 -121 l0 -278 l-20 0 l0 689 l20 0 Z" /><glyph glyph-name="" unicode="i" d="M108 6 l-20 0 l0 455 l20 0 l0 -455 ZM111 635 l-26 0 l0 60 l26 0 l0 -60 Z" /><glyph glyph-name="" unicode="j" d="M111 635 l-26 0 l0 60 l26 0 l0 -60 ZM108 461 l0 -517 q0 -52 -19 -76 q-20 -23 -53 -22 q-29 1 -57 14 l6 17 q29 -10 51 -11 q26 -1 39 17 q13 18 13 62 l0 516 l20 0 Z" /><glyph glyph-name="" unicode="k" d="M92 176 l0 -170 l-20 0 l0 689 l20 0 l0 -498 l268 264 l23 0 l-187 -183 l212 -272 l-22 0 l-201 261 l-93 -91 Z" /><glyph glyph-name="" unicode="l" d="M108 6 l-20 0 l0 689 l20 0 l0 -689 Z" /><glyph glyph-name="" unicode="m" d="M655 290 l0 -284 l-20 0 l0 284 q-2 164 -130 163 q-59 -1 -94 -44 q-36 -44 -37 -119 l0 -284 l-20 0 l0 284 q-1 81 -36 122 q-35 41 -96 41 q-54 -1 -91 -46 q-37 -44 -39 -117 l0 -284 l-20 0 l0 455 l20 0 l0 -90 q46 101 130 102 q53 0 91 -30 q38 -30 51 -84 q45 114 141 114 q69 0 109 -45 q40 -45 41 -138 Z" /><glyph glyph-name="" unicode="n" d="M411 290 l0 -284 l-20 0 l0 284 q0 77 -39 120 q-39 42 -111 43 q-64 -2 -106 -48 q-42 -46 -43 -115 l0 -284 l-20 0 l0 455 l20 0 l0 -95 q22 50 60 78 q39 29 89 29 q76 0 123 -47 q46 -46 47 -136 Z" /><glyph glyph-name="" unicode="o" d="M248 453 q-81 -1 -130 -60 q-49 -59 -52 -159 q0 -100 51 -159 q52 -60 131 -61 q82 0 132 56 q49 55 50 164 q-2 104 -52 161 q-50 57 -130 58 ZM248 -5 q-87 1 -144 65 q-56 65 -58 174 q1 104 55 170 q54 67 147 69 q92 -2 146 -66 q55 -65 56 -173 q-1 -113 -56 -176 q-54 -62 -146 -63 Z" /><glyph glyph-name="" unicode="p" d="M92 283 l0 -74 q1 -92 44 -143 q44 -51 116 -52 q75 0 118 56 q43 56 44 164 q-2 107 -47 163 q-45 56 -115 56 q-70 -2 -114 -51 q-45 -49 -46 -119 ZM92 -155 l-20 0 l0 616 l20 0 l0 -104 q57 117 160 116 q78 -1 129 -63 q51 -62 53 -176 q-1 -119 -51 -180 q-50 -59 -131 -59 q-59 1 -99 32 q-40 31 -61 83 l0 -265 Z" /><glyph glyph-name="" unicode="q" d="M387 209 l0 74 q-2 70 -47 119 q-45 49 -113 51 q-70 -1 -115 -57 q-45 -56 -47 -162 q1 -108 44 -164 q43 -56 118 -56 q72 1 116 52 q43 51 44 143 ZM387 -155 l0 265 q-21 -52 -61 -83 q-40 -31 -99 -32 q-81 0 -131 59 q-50 61 -51 180 q2 114 53 176 q51 62 129 63 q103 1 160 -116 l0 104 l20 0 l0 -616 l-20 0 Z" /><glyph glyph-name="" unicode="r" d="M92 461 l0 -100 q46 113 134 112 q42 0 71 -16 l-7 -18 q-28 14 -64 14 q-51 -1 -91 -49 q-41 -48 -43 -125 l0 -273 l-20 0 l0 455 l20 0 Z" /><glyph glyph-name="" unicode="s" d="M341 370 l-18 -8 q-30 90 -134 91 q-62 -1 -93 -26 q-31 -25 -31 -62 q-1 -39 31 -65 q32 -26 109 -45 q87 -22 123 -54 q36 -33 35 -83 q-1 -57 -44 -90 q-43 -32 -110 -33 q-62 0 -110 32 q-48 33 -71 98 l18 7 q46 -119 163 -118 q63 1 98 29 q35 28 36 75 q1 42 -32 71 q-32 29 -111 47 q-82 20 -119 51 q-37 31 -36 78 q1 47 39 77 q38 30 105 31 q115 -1 152 -103 Z" /><glyph glyph-name="" unicode="t" d="M237 23 l6 -18 q-27 -10 -58 -10 q-35 0 -57 20 q-22 22 -23 69 l0 357 l-85 0 l0 20 l85 0 l0 157 l20 8 l0 -165 l106 0 l0 -20 l-106 0 l0 -357 q3 -72 60 -70 q25 0 52 9 Z" /><glyph glyph-name="" unicode="u" d="M380 187 l0 274 l20 0 l0 -455 l-20 0 l0 90 q-43 -103 -144 -101 q-161 2 -164 180 l0 286 l20 0 l0 -286 q-1 -159 144 -161 q71 1 107 46 q37 45 37 127 Z" /><glyph glyph-name="" unicode="v" d="M372 461 l24 0 l-179 -455 l-20 0 l-179 455 l24 0 l165 -433 l165 433 Z" /><glyph glyph-name="" unicode="w" d="M583 461 l24 0 l-152 -455 l-20 0 l-123 431 l-122 -431 l-20 0 l-152 455 l24 0 l138 -431 l122 431 l20 0 l123 -431 l138 431 Z" /><glyph glyph-name="" unicode="x" d="M348 461 l25 0 l-159 -224 l173 -231 l-25 0 l-160 216 l-159 -216 l-25 0 l173 231 l-160 224 l25 0 l146 -207 l146 207 Z" /><glyph glyph-name="" unicode="y" d="M372 461 l22 0 l-194 -488 q-32 -77 -58 -103 q-26 -26 -53 -24 q-30 1 -58 12 l5 18 q27 -9 53 -10 q22 -2 44 22 q22 23 49 93 l17 42 l-181 438 l22 0 l168 -415 l164 415 Z" /><glyph glyph-name="" unicode="z" d="M391 26 l0 -20 l-373 0 l0 16 l331 419 l-304 0 l0 20 l332 0 l0 -16 l-331 -419 l345 0 Z" /><glyph glyph-name="" unicode="{" d="M176 241 l0 -187 q-1 -58 28 -84 q30 -26 103 -25 l0 -21 q-80 0 -116 31 q-36 32 -35 99 l0 187 q0 37 -30 64 q-29 26 -85 36 l0 20 q116 20 115 100 l0 186 q-1 69 34 100 q34 31 117 30 l0 -20 q-75 1 -104 -24 q-28 -25 -27 -86 l0 -186 q-3 -84 -98 -110 q96 -32 98 -110 Z" /><glyph glyph-name="" unicode="|" d="M185 -56 l-20 0 l0 813 l20 0 l0 -813 Z" /><glyph glyph-name="" unicode="}" d="M174 461 l0 186 q1 61 -27 86 q-29 25 -104 24 l0 20 q83 1 118 -30 q34 -31 33 -100 l0 -186 q-1 -80 115 -100 l0 -20 q-56 -10 -85 -36 q-30 -27 -30 -64 l0 -187 q1 -67 -35 -99 q-36 -31 -116 -30 l0 19 q73 0 103 26 q29 26 28 84 l0 187 q3 78 98 110 q-95 26 -98 110 Z" /><glyph glyph-name="" unicode="~" d="M30 337 l0 20 q65 40 119 40 q66 -1 134 -32 q74 -35 118 -38 q31 1 63 13 q32 11 56 27 l0 -20 q-22 -16 -54 -28 q-33 -11 -65 -12 q-47 3 -120 37 q-69 32 -132 33 q-52 0 -119 -40 Z" /><glyph glyph-name="" unicode="¥" d="M719 208 l0 -20 l-210 0 l0 -182 l-20 0 l0 182 l-209 0 l0 20 l209 0 l0 88 l-209 0 l0 20 l202 0 l-249 379 l25 0 l241 -370 l242 370 l25 0 l-251 -379 l204 0 l0 -20 l-210 0 l0 -88 l210 0 Z" /><glyph glyph-name="" unicode="·" d="M525 375 l0 -50 l-50 0 l0 50 l50 0 Z" /><glyph glyph-name="" unicode="×" d="M655 210 l-14 -14 l-141 142 l-142 -142 l-14 14 l142 142 l-142 141 l14 14 l142 -141 l141 141 l14 -14 l-141 -141 l141 -142 Z" /><glyph glyph-name="" unicode="&#x2014;" d="M1003 340 l-1008 0 l0 20 l1008 0 l0 -20 Z" /><glyph glyph-name="" unicode="&#x2018;" d="M100 580 l0 70 q-1 105 66 161 l13 -15 q-59 -50 -59 -146 l30 0 l0 -70 l-50 0 Z" /><glyph glyph-name="" unicode="&#x2019;" d="M123 810 l0 -70 q1 -105 -66 -161 l-13 15 q59 51 59 146 l-30 0 l0 70 l50 0 Z" /><glyph glyph-name="" unicode="&#x201c;" d="M223 580 l0 70 q-1 105 66 161 l13 -15 q-59 -50 -59 -146 l30 0 l0 -70 l-50 0 ZM94 580 l0 70 q-1 105 66 161 l13 -15 q-59 -50 -59 -146 l30 0 l0 -70 l-50 0 Z" /><glyph glyph-name="" unicode="&#x201d;" d="M116 810 l0 -70 q1 -105 -66 -161 l-13 15 q59 51 59 146 l-30 0 l0 70 l50 0 ZM245 810 l0 -70 q1 -105 -66 -161 l-13 15 q59 51 59 146 l-30 0 l0 70 l50 0 Z" /><glyph glyph-name="" unicode="&#x2026;" d="M525 375 l0 -50 l-50 0 l0 50 l50 0 ZM192 375 l0 -50 l-50 0 l0 50 l50 0 ZM858 375 l0 -50 l-50 0 l0 50 l50 0 Z" /><glyph glyph-name="" unicode="&#x2122;" d="M756 699 l-1 0 l-134 -209 l-20 0 l-134 209 l-1 0 l0 -334 l-20 0 l0 365 l23 0 l142 -219 l142 219 l23 0 l0 -365 l-20 0 l0 334 ZM386 730 l0 -20 l-150 0 l0 -345 l-20 0 l0 345 l-150 0 l0 20 l320 0 Z" /><glyph glyph-name="" unicode="&#x221a;" d="M485 -9 l498 859 l17 0 l0 -40 l-532 -924 l-21 0 l-321 612 l-113 -63 l-13 32 l185 103 l300 -579 Z" /><glyph glyph-name="" unicode="&#x2460;" d="M55 378 q4 -202 127 -322 q123 -119 318 -122 q199 4 320 124 q122 122 125 320 q-1 132 -59 232 q-57 100 -157 156 q-100 56 -229 57 q-131 -1 -231 -58 q-100 -57 -157 -157 q-56 -100 -57 -230 ZM35 378 q1 137 61 241 q60 104 164 164 q105 59 240 60 q134 -1 238 -60 q105 -59 165 -164 q61 -104 62 -241 q-1 -137 -61 -241 q-59 -105 -164 -163 q-104 -59 -240 -60 q-133 1 -238 59 q-104 57 -165 161 q-61 105 -62 244 ZM510 135 l-20 0 l0 443 q-36 -70 -130 -120 l0 20 q59 34 90 71 q32 36 45 74 l15 0 l0 -488 Z" /><glyph glyph-name="" unicode="&#x2461;" d="M55 378 q4 -202 127 -322 q123 -119 318 -122 q199 4 320 124 q122 122 125 320 q-1 132 -59 232 q-57 100 -157 156 q-100 56 -229 57 q-131 -1 -231 -58 q-100 -57 -157 -157 q-56 -100 -57 -230 ZM35 378 q1 137 61 241 q60 104 164 164 q105 59 240 60 q134 -1 238 -60 q105 -59 165 -164 q61 -104 62 -241 q-1 -137 -61 -241 q-59 -105 -164 -163 q-104 -59 -240 -60 q-133 1 -238 59 q-104 57 -165 161 q-61 105 -62 244 ZM637 155 l0 -20 l-274 0 l0 16 q23 54 57 98 q34 44 87 87 q66 53 88 88 q23 35 21 70 q1 107 -104 109 q-83 1 -121 -95 l-19 8 q45 108 140 107 q59 -1 91 -36 q33 -34 33 -93 q1 -41 -25 -81 q-25 -39 -91 -92 q-50 -40 -81 -78 q-30 -37 -54 -88 l252 0 Z" /><glyph glyph-name="" unicode="&#x2462;" d="M55 378 q4 -202 127 -322 q123 -119 318 -122 q199 4 320 124 q122 122 125 320 q-1 132 -59 232 q-57 100 -157 156 q-100 56 -229 57 q-131 -1 -231 -58 q-100 -57 -157 -157 q-56 -100 -57 -230 ZM35 378 q1 137 61 241 q60 104 164 164 q105 59 240 60 q134 -1 238 -60 q105 -59 165 -164 q61 -104 62 -241 q-1 -137 -61 -241 q-59 -105 -164 -163 q-104 -59 -240 -60 q-133 1 -238 59 q-104 57 -165 161 q-61 105 -62 244 ZM363 254 l19 7 q31 -110 121 -106 q113 2 114 117 q-3 103 -123 107 l-31 0 l0 20 l31 0 q49 0 77 28 q27 28 28 77 q-1 46 -26 72 q-26 26 -70 27 q-83 2 -111 -95 l-19 6 q29 108 130 109 q53 -1 84 -33 q31 -32 32 -86 q-2 -88 -80 -115 q94 -19 98 -117 q0 -66 -35 -101 q-35 -36 -99 -36 q-106 1 -140 119 Z" /><glyph glyph-name="" unicode="&#x25cb;" d="M500 34 q136 3 226 94 q91 91 94 228 q-3 137 -94 228 q-90 91 -226 94 q-136 -3 -226 -94 q-91 -91 -94 -228 q3 -137 94 -228 q90 -91 226 -94 ZM500 720 q102 -1 184 -50 q82 -49 130 -131 q49 -82 50 -183 q-1 -101 -50 -183 q-48 -82 -130 -131 q-82 -48 -184 -49 q-102 1 -184 49 q-82 49 -130 131 q-49 82 -50 183 q1 101 50 183 q48 82 130 131 q82 49 184 50 Z" /><glyph glyph-name="" unicode="&#x3001;" d="M169 87 l16 12 l145 -196 l-15 -13 l-146 197 Z" /><glyph glyph-name="" unicode="&#x3002;" d="M158 2 q1 -39 27 -65 q25 -25 65 -26 q39 1 65 26 q26 26 27 65 q-1 40 -27 66 q-26 25 -65 26 q-40 -1 -65 -26 q-26 -26 -27 -66 ZM138 2 q1 47 33 79 q32 32 79 33 q46 -1 79 -33 q32 -32 33 -79 q-1 -46 -33 -78 q-33 -32 -79 -33 q-47 1 -79 33 q-32 32 -33 78 Z" /><glyph glyph-name="" unicode="&#x300b;" d="M420 350 l-180 -460 l-18 7 l178 453 l-178 453 l18 7 l180 -460 ZM600 350 l-180 -460 l-18 7 l178 453 l-178 453 l18 7 l180 -460 Z" /><glyph glyph-name="" unicode="&#x4e00;" d="M43 394 l914 0 l0 -21 l-914 0 l0 21 Z" /><glyph glyph-name="" unicode="&#x4e01;" d="M59 718 l880 0 l0 -20 l-414 0 l0 -662 q2 -43 -19 -79 q-22 -37 -96 -39 q-21 0 -51 3 q-30 3 -55 8 l4 19 q24 -4 53 -7 q29 -3 49 -3 q98 -4 95 98 l0 662 l-446 0 l0 20 Z" /><glyph glyph-name="" unicode="&#x4e03;" d="M395 783 l20 0 l0 -374 l531 89 l3 -20 l-534 -90 l0 -332 q-1 -117 117 -116 l202 -1 q54 -1 89 21 q36 22 50 87 l15 66 l19 -5 l-14 -66 q-14 -64 -51 -93 q-38 -29 -108 -28 l-202 -1 q-136 1 -137 136 l0 329 l-350 -59 l-3 20 l353 59 l0 378 Z" /><glyph glyph-name="" unicode="&#x4e07;" d="M56 719 l897 0 l0 -20 l-569 0 q0 -84 -5 -164 q-2 -41 -6 -79 l446 0 l-19 -380 q-4 -136 -138 -133 q-51 1 -109 10 l3 19 q56 -9 106 -9 q60 -1 88 26 q28 26 30 88 q0 3 3 53 q2 51 6 119 q3 68 6 122 q2 54 3 64 l-427 0 q-14 -159 -73 -284 q-60 -125 -195 -231 l-12 14 q151 120 207 263 q55 143 62 339 q3 79 5 163 l-309 0 l0 20 Z" /><glyph glyph-name="" unicode="&#x4e09;" d="M124 704 l753 0 l0 -20 l-753 0 l0 20 ZM197 368 l601 0 l0 -20 l-601 0 l0 20 ZM44 -16 l912 0 l0 -21 l-912 0 l0 21 Z" /><glyph glyph-name="" unicode="&#x4e0a;" d="M52 -40 l402 0 l0 847 l20 0 l0 -334 l379 0 l0 -20 l-379 0 l0 -493 l470 0 l0 -20 l-892 0 l0 20 Z" /><glyph glyph-name="" unicode="&#x4e0b;" d="M49 740 l898 0 l0 -20 l-459 0 l0 -822 l-21 0 l0 822 l-418 0 l0 20 ZM583 450 l12 16 q144 -106 272 -216 l-13 -15 q-128 110 -271 215 Z" /><glyph glyph-name="" unicode="&#x4e0d;" d="M50 145 q62 35 158 112 q97 76 191 193 q93 116 146 271 l-481 0 l0 20 l861 0 l0 -20 l-359 0 q-29 -90 -73 -166 l11 0 l0 -660 l-20 0 l0 644 q-66 -108 -145 -189 q-80 -82 -155 -137 q-74 -56 -123 -85 l-11 17 ZM614 410 l13 16 q160 -130 312 -270 l-14 -14 q-151 139 -311 268 Z" /><glyph glyph-name="" unicode="&#x4e0e;" d="M266 807 l20 -2 q0 -2 -4 -45 q-4 -43 -9 -106 l628 0 l0 -19 l-629 0 q-7 -83 -13 -154 q-6 -70 -7 -82 l621 0 l-25 -359 q-9 -132 -140 -132 q-56 0 -113 13 l4 19 q56 -12 109 -12 q113 -3 120 114 q0 2 4 50 q3 47 8 111 q4 64 8 115 q3 51 4 61 l-622 0 l36 428 ZM65 161 l643 0 l0 -19 l-643 0 l0 19 Z" /><glyph glyph-name="" unicode="&#x4e13;" d="M53 457 l305 0 q36 89 68 184 l-296 0 l0 20 l302 0 q23 72 44 149 l20 -6 q-21 -74 -43 -143 l405 0 l0 -20 l-412 0 q-31 -95 -66 -184 l555 0 l0 -20 l-564 0 q-36 -90 -78 -175 q13 0 90 0 q76 0 173 1 q97 0 169 0 q72 0 76 0 l0 -17 q-38 -62 -93 -130 q-54 -69 -118 -133 q77 -34 153 -70 l-8 -19 q-219 104 -439 186 l7 18 q134 -50 267 -106 q62 62 115 127 q52 65 91 124 q-15 0 -92 0 q-77 0 -172 0 q-96 -1 -167 -1 q-71 0 -75 0 l0 19 q43 86 80 176 l-297 0 l0 20 Z" /><glyph glyph-name="" unicode="&#x4e14;" d="M226 755 l547 0 l0 -800 l186 0 l0 -20 l-919 0 l0 20 l186 0 l0 800 ZM246 735 l0 -254 l508 0 l0 254 l-508 0 ZM246 461 l0 -244 l508 0 l0 244 l-508 0 ZM246 198 l0 -243 l508 0 l0 243 l-508 0 Z" /><glyph glyph-name="" unicode="&#x4e16;" d="M750 806 l19 0 l0 -308 l189 0 l0 -21 l-189 0 l0 -329 l-296 0 l0 329 l-253 0 l0 -520 l688 0 l0 -21 l-708 0 l0 541 l-160 0 l0 21 l160 0 l0 290 l20 0 l0 -290 l253 0 l0 308 l20 0 l0 -308 l257 0 l0 308 ZM493 168 l257 0 l0 309 l-257 0 l0 -309 Z" /><glyph glyph-name="" unicode="&#x4e1a;" d="M43 -11 l325 0 l0 817 l20 0 l0 -817 l217 0 l0 817 l20 0 l0 -817 l329 0 l0 -20 l-911 0 l0 20 ZM713 240 q79 145 152 323 l19 -8 q-74 -178 -153 -324 l-18 9 ZM105 555 l18 9 q80 -150 149 -317 l-19 -8 q-68 166 -148 316 Z" /><glyph glyph-name="" unicode="&#x4e24;" d="M155 525 l219 0 l0 205 l-295 0 l0 19 l855 0 l0 -19 l-287 0 l0 -204 l0 -1 l218 0 l0 -475 q1 -57 -27 -83 q-25 -26 -79 -25 q-40 0 -96 10 l3 18 q54 -8 94 -8 q45 -1 65 20 q21 19 21 68 l0 455 l-200 0 q-1 -72 -12 -136 q92 -134 159 -244 l-18 -10 q-62 102 -147 226 q-32 -154 -121 -273 l-17 12 q132 175 137 425 l-233 0 q-1 -71 -13 -134 q77 -82 131 -149 l-15 -12 q-51 61 -121 137 q-31 -137 -124 -255 l-16 12 q70 88 104 186 q33 98 34 215 l-199 0 l0 -581 l-20 0 l0 601 ZM628 525 l0 1 l0 204 l-234 0 l0 -205 l234 0 Z" /><glyph glyph-name="" unicode="&#x4e25;" d="M166 415 l252 0 l0 306 l-273 0 l0 20 l766 0 l0 -20 l-258 0 l0 -306 l294 0 l0 -20 l-762 0 l0 -73 q1 -102 -7 -174 q-7 -71 -29 -131 q-23 -59 -66 -125 l-17 10 q42 65 64 122 q22 58 29 128 q8 70 7 170 l0 93 ZM438 721 l0 -306 l196 0 l0 306 l-196 0 ZM716 478 q73 89 134 182 l16 -11 q-60 -94 -134 -183 l-16 12 ZM211 636 l15 12 q67 -80 122 -159 l-17 -11 q-53 77 -120 158 Z" /><glyph glyph-name="" unicode="&#x4e2a;" d="M46 357 q157 80 277 196 q119 115 184 251 l18 -8 q-8 -18 -17 -34 q92 -134 204 -229 q111 -95 248 -156 l-8 -18 q-139 61 -251 155 q-112 95 -204 229 q-71 -122 -184 -226 q-114 -104 -258 -178 l-9 18 ZM490 486 l21 0 l0 -590 l-21 0 l0 590 Z" /><glyph glyph-name="" unicode="&#x4e2d;" d="M486 807 l20 0 l0 -207 l381 0 l0 -411 l-21 0 l0 70 l-360 0 l0 -362 l-20 0 l0 362 l-356 0 l0 -70 l-20 0 l0 411 l376 0 l0 207 ZM866 580 l-360 0 l0 -301 l360 0 l0 301 ZM130 580 l0 -301 l356 0 l0 301 l-356 0 Z" /><glyph glyph-name="" unicode="&#x4e30;" d="M162 398 l325 0 l0 216 l-364 0 l0 20 l364 0 l0 173 l20 0 l0 -173 l370 0 l0 -20 l-370 0 l0 -216 l323 0 l0 -20 l-323 0 l0 -224 l445 0 l0 -20 l-445 0 l0 -237 l-20 0 l0 237 l-434 0 l0 20 l434 0 l0 224 l-325 0 l0 20 Z" /><glyph glyph-name="" unicode="&#x4e32;" d="M132 309 l354 0 l0 149 l-317 0 l0 225 l317 0 l0 123 l21 0 l0 -123 l321 0 l0 -225 l-321 0 l0 -149 l358 0 l0 -287 l-20 0 l0 63 l-338 0 l0 -188 l-21 0 l0 188 l-334 0 l0 -63 l-20 0 l0 287 ZM845 289 l-338 0 l0 -184 l338 0 l0 184 ZM152 289 l0 -184 l334 0 l0 184 l-334 0 ZM807 664 l-300 0 l0 -186 l300 0 l0 186 ZM189 664 l0 -186 l297 0 l0 186 l-297 0 Z" /><glyph glyph-name="" unicode="&#x4e34;" d="M456 350 l447 0 l0 -453 l-19 0 l0 91 l-408 0 l0 -91 l-20 0 l0 453 ZM884 330 l-195 0 l0 -322 l195 0 l0 322 ZM476 330 l0 -322 l193 0 l0 322 l-193 0 ZM295 807 l20 0 l0 -910 l-20 0 l0 910 ZM372 437 q141 142 203 370 l20 -5 q-19 -70 -46 -132 l404 0 l0 -20 l-412 0 q-60 -131 -155 -227 l-14 14 ZM123 692 l20 0 l0 -657 l-20 0 l0 657 ZM602 569 l13 15 q93 -87 151 -157 l-15 -13 q-59 71 -149 155 Z" /><glyph glyph-name="" unicode="&#x4e3a;" d="M75 -73 q155 108 246 250 q91 141 133 348 l-333 0 l0 21 l337 0 q24 118 35 264 l19 -2 q-12 -145 -34 -262 l392 0 l-30 -489 q-9 -135 -131 -135 q-28 0 -59 3 q-32 4 -60 9 l4 18 q27 -4 58 -7 q31 -3 57 -3 q105 -1 111 116 q0 3 4 70 q5 67 10 156 q6 89 10 160 q4 70 5 81 l-375 0 q-43 -212 -135 -357 q-93 -146 -253 -258 l-11 17 ZM522 330 l14 13 q76 -82 139 -165 l-16 -12 q-62 81 -137 164 ZM202 747 l13 15 q72 -64 144 -140 l-15 -14 q-71 76 -142 139 Z" /><glyph glyph-name="" unicode="&#x4e3b;" d="M57 -32 l434 0 l0 313 l-308 0 l0 20 l308 0 l0 289 l-382 0 l0 20 l790 0 l0 -20 l-388 0 l0 -289 l312 0 l0 -20 l-312 0 l0 -313 l434 0 l0 -20 l-888 0 l0 20 ZM404 797 l13 14 q84 -74 151 -149 l-14 -13 q-67 73 -150 148 Z" /><glyph glyph-name="" unicode="&#x4e3e;" d="M82 538 l503 0 q119 115 215 239 l16 -12 q-90 -118 -203 -227 l297 0 l0 -20 l-304 0 q133 -177 348 -258 l-7 -18 q-116 43 -206 111 q-90 68 -161 165 l-168 0 q-119 -176 -365 -297 l-9 18 q234 115 350 279 l-306 0 l0 20 ZM119 121 l368 0 l0 154 l-222 0 l0 20 l222 0 l0 113 l19 0 l0 -113 l224 0 l0 -20 l-224 0 l0 -154 l370 0 l0 -20 l-370 0 l0 -204 l-19 0 l0 204 l-368 0 l0 20 ZM170 752 l13 15 q74 -64 146 -140 l-15 -14 q-71 76 -144 139 ZM417 798 l16 12 q57 -73 104 -148 l-17 -11 q-45 74 -103 147 Z" /><glyph glyph-name="" unicode="&#x4e48;" d="M180 -33 q42 33 119 105 q76 72 167 162 q90 90 173 179 q83 88 137 155 l16 -12 q-53 -66 -135 -153 q-81 -87 -169 -175 q-88 -88 -163 -159 q-76 -69 -117 -103 q17 1 103 6 q85 4 196 10 q112 6 207 12 q95 5 133 6 q-77 103 -163 202 l15 13 q124 -141 226 -288 l-16 -13 q-24 34 -48 68 l-673 -39 q-13 -1 -29 -5 l-7 18 q24 8 28 11 ZM59 294 q87 63 177 148 q90 85 170 177 q80 92 136 177 l16 -11 q-56 -86 -136 -179 q-81 -93 -173 -179 q-91 -85 -178 -149 l-12 16 Z" /><glyph glyph-name="" unicode="&#x4e49;" d="M188 650 l19 8 q59 -148 132 -263 q72 -115 167 -205 q196 196 267 507 l20 -5 q-73 -317 -272 -516 q84 -76 188 -139 q105 -62 236 -118 l-8 -20 q-264 111 -430 263 q-172 -163 -450 -261 l-7 18 q273 96 442 257 q-96 92 -170 208 q-75 117 -134 266 ZM370 792 l13 14 q92 -83 181 -178 l-14 -14 q-89 95 -180 178 Z" /><glyph glyph-name="" unicode="&#x4e4b;" d="M134 78 q21 21 41 21 q14 0 27 -8 q165 104 322 223 q158 120 300 249 l-706 0 l0 21 l740 0 l0 -17 q-147 -134 -309 -258 q-161 -123 -330 -231 q85 -67 167 -92 q81 -25 178 -28 q184 -9 380 -1 l1 -21 q-197 -7 -382 1 q-98 3 -184 30 q-86 28 -175 99 q-16 13 -29 13 q-11 0 -26 -16 q-41 -44 -78 -97 l-22 -30 l-15 12 l20 29 q39 54 80 101 ZM381 795 l12 15 q93 -74 170 -150 l-14 -14 q-76 75 -168 149 Z" /><glyph glyph-name="" unicode="&#x4e50;" d="M511 622 l20 0 l0 -256 l363 0 l0 -20 l-363 0 l0 -341 q0 -98 -103 -98 q-20 0 -46 3 q-26 4 -48 9 l4 18 q21 -4 47 -7 q25 -3 43 -3 q85 -2 83 78 l0 341 l-358 0 l37 378 l10 0 q266 -3 620 47 l3 -20 q-350 -50 -615 -47 q-1 -9 -5 -57 q-5 -49 -11 -111 q-6 -62 -11 -111 q-5 -49 -6 -59 l336 0 l0 256 ZM70 -19 q141 122 233 241 l16 -12 q-92 -122 -236 -244 l-13 15 ZM703 199 l14 14 q120 -119 212 -229 l-15 -14 q-92 110 -211 229 Z" /><glyph glyph-name="" unicode="&#x4e54;" d="M84 505 l340 0 q50 87 69 197 q-168 -10 -327 -6 l1 20 q160 -4 326 6 q167 9 326 31 l2 -19 q-149 -21 -308 -31 q-19 -110 -67 -198 l485 0 l0 -20 l-331 0 q67 -89 151 -147 q84 -59 212 -106 l-7 -19 q-135 49 -222 112 q-88 63 -160 160 l-140 0 q-105 -173 -365 -282 l-8 18 q126 54 213 118 q86 65 138 146 l-328 0 l0 20 ZM342 309 l20 0 l0 -119 q1 -206 -198 -300 l-9 17 q188 90 187 283 l0 119 ZM666 309 l20 0 l0 -414 l-20 0 l0 414 Z" /><glyph glyph-name="" unicode="&#x4e58;" d="M82 595 l405 0 l0 132 q-149 -8 -307 -4 l1 20 q168 -4 325 5 q157 8 289 28 l3 -20 q-133 -20 -290 -28 l0 -133 l409 0 l0 -20 l-409 0 l0 -281 q80 -109 193 -194 q113 -85 245 -132 l-7 -19 q-128 48 -240 128 q-112 82 -191 186 l0 -367 l-21 0 l0 363 q-79 -102 -185 -181 q-107 -78 -234 -134 l-9 17 q265 117 428 330 l0 284 l-405 0 l0 20 ZM645 498 l21 0 l0 -126 q55 19 111 45 q56 25 102 52 l10 -17 q-48 -28 -107 -55 q-59 -26 -116 -45 l0 -45 q-1 -61 62 -60 l91 0 q49 0 61 46 l10 46 l19 -4 l-10 -47 q-17 -60 -80 -60 l-91 0 q-81 1 -83 79 l0 191 ZM106 437 l213 0 l0 63 l20 0 l0 -269 l-20 0 l0 57 l-215 -68 l-6 20 l221 69 l0 108 l-213 0 l0 20 Z" /><glyph glyph-name="" unicode="&#x4e5d;" d="M112 589 l292 0 q1 8 1 17 l4 200 l19 0 l-3 -200 q0 -9 -1 -17 l301 0 l-25 -537 q-2 -57 23 -84 q22 -22 64 -22 l54 -1 q43 0 66 21 q22 21 33 74 q6 26 10 56 l20 -3 q-5 -31 -10 -57 q-10 -51 -35 -81 q-26 -29 -84 -30 l-54 -1 q-51 1 -78 30 q-29 30 -29 88 l0 11 q0 4 4 78 q3 74 8 172 q4 99 8 177 q3 77 4 88 l-280 0 q-9 -239 -93 -400 q-84 -161 -256 -267 l-11 17 q169 103 250 259 q82 155 90 391 l-292 0 l0 21 Z" /><glyph glyph-name="" unicode="&#x4e5f;" d="M518 807 l20 0 l0 -280 l291 72 l-11 -323 q-7 -95 -96 -98 q-46 0 -88 11 l5 19 q39 -9 83 -9 q22 -1 47 14 q25 15 29 64 q0 5 2 71 q3 67 5 138 q2 71 3 88 q-10 -3 -86 -22 q-76 -19 -184 -45 l0 -426 l-20 0 l0 421 q-68 -17 -137 -34 q-69 -17 -131 -32 l0 -369 q3 -120 117 -123 l417 -1 q54 1 85 24 q30 23 43 75 q4 14 9 38 q5 24 8 41 l20 -3 q-3 -18 -9 -42 q-5 -24 -9 -39 q-27 -116 -147 -113 l-417 -1 q-64 2 -100 40 q-36 37 -37 104 l0 364 q-80 -19 -131 -31 q-50 -13 -52 -13 l-4 19 l187 46 l0 286 l20 0 l0 -281 l268 65 l0 285 Z" /><glyph glyph-name="" unicode="&#x4e60;" d="M130 716 l724 0 l-13 -632 q-3 -161 -154 -160 q-25 0 -59 4 q-35 4 -65 10 l4 19 q29 -5 63 -9 q33 -4 57 -4 q133 -4 133 140 q0 5 2 93 q2 88 5 206 q2 117 4 209 q3 92 3 104 l-704 0 l0 20 ZM110 39 q162 78 309 165 q146 86 269 174 l12 -16 q-124 -90 -271 -176 q-147 -87 -310 -165 l-9 18 ZM244 557 l13 16 q116 -98 214 -195 l-14 -14 q-98 97 -213 193 Z" /><glyph glyph-name="" unicode="&#x4e66;" d="M65 307 l363 0 l0 278 l-296 0 l0 21 l296 0 l0 201 l21 0 l0 -201 l302 0 l-25 -299 l176 0 l-18 -238 q-7 -107 -107 -107 q-37 -1 -87 11 l5 18 q48 -9 82 -8 q81 -2 87 88 q0 3 4 52 q4 48 8 99 q4 51 5 64 l-432 0 l0 -390 l-21 0 l0 390 l-363 0 l0 21 ZM729 585 l-280 0 l0 -278 l257 0 q2 29 8 91 q5 62 9 118 q5 57 6 69 ZM690 766 l13 15 l201 -173 l-13 -15 l-201 173 Z" /><glyph glyph-name="" unicode="&#x4e70;" d="M577 500 l6 146 l20 -1 l-6 -145 q-5 -155 -51 -266 l402 0 l0 -20 l-411 0 q-52 -112 -155 -188 q-104 -75 -268 -125 l-5 18 q155 49 254 119 q100 72 151 176 l-443 0 l0 20 l453 0 q48 111 53 266 ZM111 735 l793 0 l0 -17 l-73 -191 l-19 7 q1 3 17 45 q16 41 33 84 q17 44 20 53 l-771 0 l0 19 ZM597 116 l10 16 q160 -102 304 -210 l-13 -17 q-142 109 -301 211 ZM164 446 l9 18 q121 -58 236 -126 l-10 -17 q-114 67 -235 125 ZM249 607 l10 18 q114 -62 214 -126 l-11 -17 q-99 63 -213 125 Z" /><glyph glyph-name="" unicode="&#x4e71;" d="M59 512 l256 0 l0 202 q-96 -10 -197 -14 l-1 19 q204 10 388 40 l3 -20 q-84 -14 -173 -23 l0 -204 l219 0 l0 -20 l-219 0 l0 -193 l160 0 l0 -361 l-20 0 l0 51 l-304 0 l0 -73 l-20 0 l0 383 l164 0 l0 193 l-256 0 l0 20 ZM171 279 l0 -270 l304 0 l0 270 l-304 0 ZM646 806 l19 0 l0 -731 q-1 -63 24 -89 q25 -28 82 -27 l53 -1 q53 1 76 25 q24 23 36 72 q3 10 7 32 q4 22 6 37 l20 -4 q-3 -15 -7 -37 q-4 -22 -7 -33 q-13 -53 -41 -82 q-28 -29 -90 -29 l-53 -1 q-128 -3 -125 137 l0 731 Z" /><glyph glyph-name="" unicode="&#x4e86;" d="M114 721 l777 0 l0 -19 q-55 -42 -154 -112 q-99 -70 -196 -130 l0 -435 q0 -55 -28 -83 q-26 -26 -77 -25 q-43 0 -104 11 l4 19 q59 -11 100 -11 q44 -1 63 20 q22 22 22 69 l0 446 q71 45 164 107 q93 62 171 123 l-742 0 l0 20 Z" /><glyph glyph-name="" unicode="&#x4e88;" d="M77 419 l844 0 l0 -18 l-81 -178 l-18 8 q1 3 18 40 q17 38 35 77 q18 40 23 50 l-357 0 l0 -394 q2 -100 -99 -99 q-57 0 -106 12 l5 18 q46 -10 101 -10 q83 -2 80 79 l0 394 l-445 0 l0 21 ZM343 632 l10 17 q51 -31 93 -58 q42 -26 80 -52 q132 91 240 192 l-568 0 l0 20 l600 0 l0 -17 q-115 -112 -253 -207 q34 -24 73 -52 l-12 -16 q-64 47 -124 86 q-61 39 -139 87 Z" /><glyph glyph-name="" unicode="&#x4e8b;" d="M61 711 l436 0 l0 93 l20 0 l0 -93 l425 0 l0 -20 l-425 0 l0 -93 l309 0 l0 -159 l-309 0 l0 -98 l331 0 l0 -129 l115 0 l0 -20 l-115 0 l0 -165 l-20 0 l0 35 l-311 0 l0 -60 q2 -36 -17 -70 q-20 -34 -89 -36 q-33 -1 -82 8 l4 19 q47 -7 78 -7 q89 -3 86 86 l0 60 l-352 0 l0 20 l352 0 l0 110 l-450 0 l0 20 l450 0 l0 110 l-346 0 l0 19 l346 0 l0 98 l-315 0 l0 159 l315 0 l0 93 l-436 0 l0 20 ZM202 579 l0 -120 l295 0 l0 120 l-295 0 ZM806 579 l-289 0 l0 -120 l289 0 l0 120 ZM828 322 l-311 0 l0 -110 l311 0 l0 110 ZM517 192 l0 -110 l311 0 l0 110 l-311 0 Z" /><glyph glyph-name="" unicode="&#x4e8c;" d="M141 679 l711 0 l0 -20 l-711 0 l0 20 ZM44 16 l904 0 l0 -20 l-904 0 l0 20 Z" /><glyph glyph-name="" unicode="&#x4e8e;" d="M39 389 l458 0 l0 321 l-359 0 l0 21 l719 0 l0 -21 l-339 0 l0 -321 l437 0 l0 -20 l-437 0 l0 -355 q2 -39 -23 -72 q-24 -34 -95 -36 q-42 0 -90 9 l4 19 q45 -8 86 -8 q97 -1 97 88 l0 355 l-458 0 l0 20 Z" /><glyph glyph-name="" unicode="&#x4e91;" d="M173 6 q74 82 155 196 q82 114 144 214 l-424 0 l0 20 l892 0 l0 -20 l-446 0 q-59 -98 -140 -213 q-82 -114 -156 -199 q13 1 89 4 q75 3 176 8 q101 4 189 8 q89 4 129 6 q-79 92 -162 182 l15 14 q119 -129 226 -258 l-15 -14 l-48 57 l-614 -28 q-13 -1 -30 -8 l-8 18 q8 4 17 7 q9 4 11 6 ZM185 729 l617 0 l0 -20 l-617 0 l0 20 Z" /><glyph glyph-name="" unicode="&#x4e92;" d="M351 720 l-258 0 l0 20 l807 0 l0 -20 l-529 0 q-4 -24 -16 -86 q-12 -63 -26 -141 l431 0 l-66 -520 l261 0 l0 -19 l-915 0 l0 19 l633 0 q3 25 11 87 q8 62 18 140 l-447 0 l96 520 ZM325 473 l-46 -253 l425 0 q12 94 22 168 q9 73 11 85 l-412 0 Z" /><glyph glyph-name="" unicode="&#x4e94;" d="M39 -23 l295 0 l65 407 l-220 0 l0 20 l223 0 l49 311 l-351 0 l0 20 l783 0 l0 -20 l-413 0 l-48 -311 l362 0 l0 -427 l172 0 l0 -19 l-917 0 l0 19 ZM764 384 l-345 0 l-64 -407 l409 0 l0 407 Z" /><glyph glyph-name="" unicode="&#x4e9b;" d="M160 700 l20 0 l0 -396 l174 41 l0 461 l20 0 l0 -208 l157 0 l0 -20 l-157 0 l0 -229 l169 40 l5 -19 l-469 -109 l-5 19 l86 20 l0 400 ZM616 806 l21 0 l0 -262 q76 33 149 78 q73 44 134 93 l12 -15 q-63 -51 -139 -98 q-76 -46 -156 -81 l0 -110 q-3 -99 92 -97 l88 0 q81 -1 99 84 q3 13 6 32 q4 19 6 29 l20 -3 q-2 -11 -6 -30 q-4 -19 -7 -32 q-5 -34 -30 -66 q-25 -32 -88 -34 l-88 0 q-113 -1 -113 117 l0 395 ZM63 -28 l880 0 l0 -20 l-880 0 l0 20 ZM199 161 l620 0 l0 -19 l-620 0 l0 19 Z" /><glyph glyph-name="" unicode="&#x4ea4;" d="M70 -83 q113 27 222 74 q108 45 202 127 q-111 97 -188 241 l18 9 q75 -140 185 -237 q101 94 171 252 l18 -8 q-71 -160 -174 -256 q160 -132 414 -191 l-5 -21 q-260 62 -424 198 q-96 -85 -207 -132 q-111 -48 -227 -76 l-5 20 ZM70 640 l859 0 l0 -21 l-859 0 l0 21 ZM117 331 q142 102 235 215 l16 -13 q-95 -114 -240 -218 l-11 16 ZM630 521 l12 17 q129 -95 242 -193 l-13 -16 q-113 98 -241 192 ZM423 800 l13 15 q73 -64 130 -124 l-14 -14 q-58 60 -129 123 Z" /><glyph glyph-name="" unicode="&#x4ea7;" d="M145 391 l444 0 q86 99 150 202 l17 -10 q-59 -97 -140 -192 l331 0 l0 -21 l-781 0 l0 -65 q2 -134 -17 -226 q-19 -92 -86 -185 l-17 11 q62 85 81 172 q20 87 18 228 l0 86 ZM90 671 l849 0 l0 -21 l-849 0 l0 21 ZM299 573 l14 13 q63 -66 125 -145 l-16 -12 q-61 77 -123 144 ZM432 799 l13 16 q70 -54 135 -116 l-14 -14 q-63 62 -134 114 Z" /><glyph glyph-name="" unicode="&#x4eab;" d="M505 588 l279 0 l0 -176 l-558 0 l0 176 l279 0 ZM764 568 l-519 0 l0 -136 l519 0 l0 136 ZM195 316 l623 0 l0 -19 l-6 -3 q-142 -66 -285 -119 l0 -39 l431 0 l0 -20 l-431 0 l0 -115 q-2 -62 -35 -80 q-34 -18 -69 -16 q-39 0 -97 13 l5 18 q55 -11 92 -11 q87 -3 84 76 l0 115 l-454 0 l0 20 l454 0 l0 53 l7 2 q128 47 255 105 l-574 0 l0 20 ZM425 795 l12 15 q57 -43 121 -100 l-8 -10 l386 0 l0 -20 l-861 0 l0 20 l465 0 q-63 53 -115 95 Z" /><glyph glyph-name="" unicode="&#x4eac;" d="M434 -80 q44 0 59 22 q15 22 14 60 l0 249 l-283 0 l0 257 l578 0 l0 -257 l-276 0 l0 -249 q2 -37 -15 -69 q-17 -31 -77 -33 q-34 0 -75 10 l5 18 q40 -8 70 -8 ZM783 488 l-540 0 l0 -217 l540 0 l0 217 ZM56 666 l900 0 l0 -20 l-900 0 l0 20 ZM85 -46 q133 94 244 210 l14 -14 q-112 -118 -246 -212 l-12 16 ZM677 139 l12 15 q123 -96 229 -196 l-14 -16 q-105 101 -227 197 ZM424 797 l12 16 q71 -55 137 -117 l-14 -15 q-66 62 -135 116 Z" /><glyph glyph-name="" unicode="&#x4eae;" d="M256 589 l500 0 l0 -166 l-500 0 l0 166 ZM736 570 l-460 0 l0 -127 l460 0 l0 127 ZM341 223 l315 0 l0 -182 q-1 -54 18 -75 q19 -21 67 -20 l80 -1 q50 0 73 20 q24 20 33 72 q4 16 7 37 l20 -3 q-3 -22 -7 -39 q-11 -58 -40 -82 q-29 -25 -86 -24 l-80 -1 q-64 1 -85 32 q-22 30 -20 84 l0 163 l-275 0 l0 -63 q-5 -187 -264 -245 l-5 19 q246 54 249 226 l0 82 ZM109 336 l791 0 l0 -156 l-20 0 l0 136 l-751 0 l0 -136 l-20 0 l0 156 ZM95 698 l824 0 l0 -20 l-824 0 l0 20 ZM434 795 l12 16 q32 -24 63 -49 q31 -25 50 -42 l-12 -15 q-20 17 -50 42 q-31 25 -63 48 Z" /><glyph glyph-name="" unicode="&#x4eba;" d="M482 632 q4 44 7 89 q2 45 4 82 l19 -1 q-2 -37 -4 -82 q-3 -45 -6 -89 q-2 -22 -4 -43 q112 -451 457 -658 l-10 -18 q-334 202 -455 625 q-35 -211 -146 -375 q-110 -163 -285 -262 l-10 17 q190 108 302 293 q112 185 131 422 Z" /><glyph glyph-name="" unicode="&#x4ec0;" d="M667 806 l20 0 l0 -379 l273 0 l0 -20 l-273 0 l0 -510 l-20 0 l0 510 l-303 0 l0 20 l303 0 l0 379 ZM42 339 q92 107 155 217 q62 109 110 248 l19 -6 q-39 -111 -85 -203 l0 -698 l-20 0 l0 661 q-65 -119 -164 -233 l-15 14 Z" /><glyph glyph-name="" unicode="&#x4ec5;" d="M406 647 l20 5 q33 -140 83 -251 q50 -111 123 -201 q159 193 221 488 l-501 0 l0 20 l522 0 l0 -18 q-63 -307 -228 -506 q119 -140 319 -254 l-10 -19 q-202 117 -323 257 q-136 -156 -348 -262 l-9 17 q211 105 344 261 q-76 92 -127 206 q-52 113 -86 257 ZM37 346 q94 109 158 219 q63 109 106 239 l19 -7 q-40 -117 -95 -219 l0 -682 l-20 0 l0 647 q-63 -106 -154 -210 l-14 13 Z" /><glyph glyph-name="" unicode="&#x4eca;" d="M39 395 q147 71 268 178 q122 108 197 235 l17 -10 q-9 -15 -18 -28 q168 -232 460 -353 l-8 -18 q-145 59 -262 148 q-117 90 -201 205 q-79 -115 -194 -213 q-115 -97 -251 -162 l-8 18 ZM153 281 l645 0 l0 -19 q-117 -208 -330 -375 l-12 14 q204 163 318 360 l-621 0 l0 20 ZM411 510 l13 15 q80 -69 144 -142 l-15 -13 q-63 72 -142 140 Z" /><glyph glyph-name="" unicode="&#x4ecb;" d="M45 401 q160 71 279 176 q119 105 191 237 l17 -9 q-10 -18 -20 -36 q93 -115 207 -202 q113 -87 242 -140 l-7 -18 q-130 53 -245 140 q-115 87 -209 202 q-152 -236 -447 -368 l-8 18 ZM319 429 l20 0 l0 -164 q1 -250 -211 -374 l-11 16 q203 120 202 358 l0 164 ZM677 429 l20 0 l0 -533 l-20 0 l0 533 Z" /><glyph glyph-name="" unicode="&#x4ece;" d="M675 581 q1 3 1 8 q2 42 5 107 q2 66 2 109 l20 0 q0 -43 -2 -109 q-3 -65 -5 -108 q0 -4 -1 -9 q26 -219 92 -377 q67 -158 183 -271 l-15 -15 q-107 106 -173 247 q-65 142 -95 331 q-50 -386 -278 -591 l-14 15 q247 221 280 660 l0 3 ZM289 597 q2 38 4 101 q2 64 3 107 l20 0 q-1 -44 -3 -107 q-3 -64 -4 -102 q-3 -80 -14 -152 q109 -128 211 -269 l-16 -12 q-96 133 -199 254 q-51 -304 -247 -488 l-14 13 q245 229 259 655 Z" /><glyph glyph-name="" unicode="&#x4ed6;" d="M645 807 l20 0 l0 -267 l214 66 l-10 -335 q-4 -89 -90 -92 q-34 0 -71 12 l6 19 q34 -11 65 -11 q25 -1 46 14 q22 15 24 59 l9 306 l-193 -59 l0 -417 l-20 0 l0 411 l-195 -59 l0 -395 q-1 -62 26 -87 q26 -26 91 -25 l216 -1 q52 0 80 23 q28 23 42 77 q3 8 7 25 q4 17 8 34 l20 -4 q-4 -17 -8 -34 q-5 -18 -7 -27 q-17 -60 -50 -87 q-34 -27 -92 -26 l-216 -1 q-74 0 -106 31 q-32 31 -31 102 l0 389 l-135 -41 l-6 19 l141 43 l0 275 l20 0 l0 -269 l195 59 l0 273 ZM37 328 q89 109 153 224 q63 115 107 250 l19 -6 q-41 -125 -97 -232 l0 -669 l-20 0 l0 632 q-62 -108 -147 -211 l-15 12 Z" /><glyph glyph-name="" unicode="&#x4ed8;" d="M760 805 l20 0 l0 -245 l181 0 l0 -20 l-181 0 l0 -516 q2 -42 -19 -78 q-21 -36 -92 -38 q-37 -1 -102 11 l4 18 q63 -9 98 -9 q48 -1 70 22 q21 23 21 74 l0 516 l-408 0 l0 20 l408 0 l0 245 ZM36 345 q196 194 295 458 l18 -7 q-45 -120 -108 -225 l0 -674 l-20 0 l0 643 q-73 -112 -171 -209 l-14 14 ZM418 376 l15 13 q87 -100 169 -218 l-17 -12 q-82 118 -167 217 Z" /><glyph glyph-name="" unicode="&#x4ee3;" d="M542 805 l20 1 q4 -92 12 -185 q8 -93 19 -167 q2 -11 3 -20 l325 66 l4 -19 l-326 -66 q47 -280 165 -425 q45 -57 90 -58 q47 3 78 146 l20 -4 q-35 -162 -98 -162 q-54 1 -106 66 q-121 148 -169 433 l-245 -50 l-4 19 l246 50 l-3 21 q-11 74 -20 168 q-8 94 -11 186 ZM40 344 q103 110 172 220 q68 110 112 237 l19 -6 q-40 -116 -99 -216 l0 -684 l-20 0 l0 651 q-68 -107 -169 -215 l-15 13 ZM696 729 l14 14 q69 -70 128 -147 l-16 -12 q-58 76 -126 145 Z" /><glyph glyph-name="" unicode="&#x4ee4;" d="M281 120 l10 17 q103 -61 199 -125 q173 124 287 273 l-600 0 l0 20 l625 0 l0 -19 q-117 -159 -294 -286 q66 -43 127 -89 l-12 -17 q-157 118 -342 226 ZM44 381 q155 80 279 193 q123 114 194 242 l17 -9 q-9 -18 -20 -34 q160 -220 454 -380 l-10 -18 q-292 161 -455 380 q-76 -116 -192 -218 q-116 -101 -258 -174 l-9 18 ZM415 509 l12 15 q86 -67 153 -138 l-14 -13 q-66 69 -151 136 Z" /><glyph glyph-name="" unicode="&#x4ee5;" d="M355 -57 q177 84 271 196 q94 112 130 266 q37 155 41 366 l20 0 q-6 -184 -28 -308 q-23 -124 -68 -215 q-4 -8 -8 -16 q128 -133 244 -270 l-16 -14 q-114 136 -238 266 q-51 -90 -134 -161 q-83 -69 -206 -127 l-8 17 ZM144 727 l20 0 l0 -695 q8 5 49 34 q41 30 92 66 q51 37 90 64 q38 28 40 29 l12 -16 q-2 -2 -43 -31 q-41 -29 -95 -68 q-55 -38 -96 -68 q-42 -30 -45 -32 q-6 -8 -16 -28 l-18 7 q8 22 10 31 l0 707 ZM336 737 l15 13 q104 -107 193 -218 l-16 -13 q-88 111 -192 218 Z" /><glyph glyph-name="" unicode="&#x4eea;" d="M379 610 l19 6 q43 -137 98 -244 q56 -107 128 -190 q163 209 202 518 l20 -3 q-41 -318 -208 -531 q123 -136 315 -229 l-9 -19 q-195 95 -319 232 q-126 -150 -316 -245 l-8 17 q187 93 310 243 q-74 86 -131 195 q-56 110 -101 250 ZM34 358 q89 106 149 213 q61 107 101 232 l19 -6 q-37 -116 -90 -214 l0 -687 l-19 0 l0 653 q-60 -103 -145 -204 l-15 13 ZM492 795 l14 14 q78 -80 149 -168 l-16 -12 q-70 86 -147 166 Z" /><glyph glyph-name="" unicode="&#x4eec;" d="M630 719 l273 0 l0 -693 q2 -38 -17 -76 q-19 -37 -85 -40 q-40 0 -80 8 l3 19 q39 -7 77 -7 q85 -2 82 96 l0 673 l-253 0 l0 20 ZM36 381 q85 99 142 201 q57 102 97 224 l19 -7 q-35 -107 -83 -199 l0 -703 l-20 0 l0 666 q-58 -98 -140 -195 l-15 13 ZM380 601 l21 0 l0 -702 l-21 0 l0 702 ZM406 777 l14 14 q64 -65 117 -130 l-15 -12 q-53 64 -116 128 Z" /><glyph glyph-name="" unicode="&#x4ef6;" d="M655 806 l20 0 l0 -245 l229 0 l0 -19 l-229 0 l0 -265 l281 0 l0 -21 l-281 0 l0 -360 l-20 0 l0 360 l-341 0 l0 21 l341 0 l0 265 l-207 0 q-40 -84 -93 -157 l-16 12 q111 154 161 352 l19 -6 q-24 -96 -63 -182 l199 0 l0 245 ZM41 313 q92 122 153 240 q60 117 100 250 l20 -4 q-39 -129 -97 -245 l0 -658 l-20 0 l0 621 q-58 -106 -140 -215 l-16 11 Z" /><glyph glyph-name="" unicode="&#x4ef7;" d="M202 590 l1 0 q53 98 90 213 l19 -6 q-37 -115 -90 -214 l0 -687 l-20 0 l0 651 q-60 -102 -145 -203 l-15 14 q97 114 160 230 l0 2 ZM312 410 q234 145 321 404 l19 -6 l-12 -33 q100 -215 325 -344 l0 -9 l-6 -11 q-224 127 -329 339 q-95 -224 -307 -357 l-11 17 ZM492 411 l20 0 l0 -179 q2 -78 -31 -169 q-33 -90 -131 -165 l-12 15 q94 72 125 158 q31 87 29 161 l0 179 ZM770 411 l20 0 l0 -516 l-20 0 l0 516 Z" /><glyph glyph-name="" unicode="&#x4efb;" d="M366 -30 l267 0 l0 370 l-305 0 l0 20 l305 0 l0 338 q-115 -12 -233 -15 l-1 20 q247 8 475 49 l4 -19 q-111 -21 -225 -33 l0 -340 l309 0 l0 -20 l-309 0 l0 -370 l273 0 l0 -20 l-560 0 l0 20 ZM219 590 q60 99 102 214 l19 -7 q-42 -114 -101 -214 l0 -687 l-20 0 l0 655 q-67 -103 -165 -207 l-14 14 q108 115 179 231 l0 1 Z" /><glyph glyph-name="" unicode="&#x4efd;" d="M284 -86 q134 74 194 177 q60 103 67 273 l-142 0 l0 21 l427 0 l-13 -351 q-5 -117 -120 -117 q-35 0 -76 7 l3 18 q40 -5 73 -5 q97 -2 100 98 l13 329 l-245 0 q-3 -150 -60 -265 q-56 -114 -211 -202 l-10 17 ZM45 349 q87 94 157 211 q70 117 111 241 l19 -6 q-39 -116 -102 -227 l0 -672 l-20 0 l0 638 q-68 -109 -151 -198 l-14 13 ZM711 790 l20 4 q25 -139 88 -251 q63 -111 155 -180 l-12 -16 q-95 71 -160 186 q-65 114 -91 257 ZM294 344 q92 91 148 194 q56 102 82 226 l19 -4 q-26 -127 -83 -232 q-58 -104 -153 -198 l-13 14 Z" /><glyph glyph-name="" unicode="&#x4f01;" d="M264 362 l20 0 l0 -396 l240 0 l0 520 l20 0 l0 -200 l262 0 l0 -20 l-262 0 l0 -300 l389 0 l0 -20 l-857 0 l0 20 l188 0 l0 396 ZM43 390 q161 75 281 182 q121 108 190 236 l18 -9 q-10 -20 -22 -38 q93 -120 207 -210 q114 -90 243 -144 l-7 -18 q-263 110 -454 353 q-74 -114 -188 -208 q-114 -95 -259 -163 l-9 19 Z" /><glyph glyph-name="" unicode="&#x4f17;" d="M65 429 q149 62 261 163 q113 101 169 225 l19 -8 q-8 -16 -16 -33 l1 1 q84 -120 194 -205 q109 -84 239 -127 l-6 -20 q-131 45 -242 129 q-111 85 -196 205 q-64 -111 -171 -202 q-108 -90 -244 -147 l-8 19 ZM659 443 l20 0 q0 -73 -6 -138 q38 -131 105 -223 q66 -92 171 -162 l-11 -17 q-99 67 -165 153 q-67 87 -107 203 q-37 -236 -210 -361 l-12 16 q113 84 166 211 q52 129 49 318 ZM43 -80 q120 84 180 211 q59 127 62 305 l20 0 q-2 -89 -17 -164 q95 -99 183 -200 l-16 -13 q-81 95 -172 188 q-50 -219 -229 -344 l-11 17 Z" /><glyph glyph-name="" unicode="&#x4f18;" d="M555 806 l20 0 l0 -286 l363 0 l0 -19 l-363 0 q-3 -384 -286 -597 l-13 15 q275 207 279 582 l-231 0 l0 19 l231 0 l0 286 ZM33 338 q92 109 154 221 q63 111 106 243 l18 -6 q-37 -116 -89 -215 l0 -686 l-20 0 l0 649 q-63 -111 -154 -219 l-15 13 ZM658 443 l20 0 l0 -406 q-3 -93 83 -90 l75 -1 q36 1 56 17 q21 17 32 55 q9 31 16 64 l19 -4 q-6 -34 -16 -66 q-9 -33 -32 -58 q-23 -26 -75 -27 l-75 -1 q-104 -1 -103 111 l0 406 ZM715 744 l14 15 q74 -75 131 -148 l-16 -12 q-56 73 -129 145 Z" /><glyph glyph-name="" unicode="&#x4f1a;" d="M203 -44 q50 46 114 116 q63 71 132 156 l-337 0 l0 19 l770 0 l0 -19 l-408 0 q-67 -85 -130 -155 q-63 -71 -115 -119 q14 0 80 3 q66 2 153 6 q87 3 165 6 q77 3 116 5 q-65 70 -137 140 l14 14 q110 -105 205 -216 l-15 -14 q-25 29 -50 58 l-549 -24 q-14 -1 -31 -8 l-7 18 q23 10 30 14 ZM40 428 q156 69 272 167 q117 98 187 218 l18 -10 q-8 -14 -17 -28 q164 -218 451 -327 l-7 -19 q-287 110 -456 329 q-150 -219 -440 -349 l-8 19 ZM271 441 l441 0 l0 -20 l-441 0 l0 20 Z" /><glyph glyph-name="" unicode="&#x4f20;" d="M312 453 l204 0 q30 89 56 180 l-199 0 l0 20 l205 0 q21 75 39 152 l19 -4 q-17 -75 -38 -148 l283 0 l0 -20 l-288 0 q-26 -91 -56 -180 l403 0 l0 -20 l-409 0 q-30 -87 -64 -172 l406 0 l0 -18 q-45 -67 -97 -127 q-51 -60 -115 -121 q73 -44 145 -92 l-11 -17 q-151 99 -303 181 l10 18 q69 -39 140 -81 q63 60 113 118 q50 57 92 119 l-403 0 l0 15 q35 89 66 177 l-198 0 l0 20 ZM38 347 q116 127 178 247 q62 120 86 209 l19 -5 q-26 -96 -95 -226 l1 0 l0 -675 l-20 0 l0 641 q-59 -102 -155 -205 l-14 14 Z" /><glyph glyph-name="" unicode="&#x4f2a;" d="M275 -84 q116 110 183 254 q66 145 93 350 l-232 0 l0 21 l235 0 q15 119 20 267 l21 -1 q-5 -146 -20 -266 l327 0 l-18 -505 q-5 -121 -123 -121 q-17 0 -44 3 q-27 3 -44 6 l3 18 q18 -2 44 -5 q26 -3 41 -2 q100 -2 102 102 q0 4 3 73 q3 69 6 161 q4 92 7 165 q2 73 3 84 l-310 0 q-28 -211 -96 -358 q-68 -147 -186 -260 l-15 14 ZM30 359 q87 103 146 210 q58 107 97 235 l20 -6 q-38 -120 -90 -221 l0 -680 l-21 0 l0 641 q-56 -97 -136 -192 l-16 13 ZM612 309 l16 12 q59 -83 114 -177 l-17 -10 q-55 94 -113 175 ZM352 727 l14 14 q63 -59 117 -119 l-16 -13 q-51 58 -115 118 Z" /><glyph glyph-name="" unicode="&#x4f3c;" d="M822 476 q4 73 6 148 q2 74 3 159 l20 0 q-1 -85 -3 -160 q-3 -74 -7 -148 q-8 -161 -65 -284 l1 1 q103 -134 180 -255 l-16 -11 q-76 116 -174 246 q-86 -169 -281 -268 l-9 17 q167 86 251 221 q84 135 94 334 ZM36 381 q77 100 129 202 q52 102 87 223 l19 -6 q-31 -102 -71 -190 l0 -713 l-20 0 l0 672 q-52 -101 -129 -200 l-15 12 ZM380 698 l20 0 l0 -647 q13 12 56 51 q42 39 82 74 q39 36 42 39 l14 -15 q-4 -3 -49 -45 q-46 -42 -92 -83 q-46 -42 -50 -46 q-6 -7 -13 -20 l-18 9 q9 20 8 20 l0 663 ZM518 763 l18 9 q71 -142 125 -273 l-19 -8 q-53 131 -124 272 Z" /><glyph glyph-name="" unicode="&#x4f46;" d="M426 742 l444 0 l0 -577 l-444 0 l0 577 ZM850 721 l-404 0 l0 -258 l404 0 l0 258 ZM850 185 l0 258 l-404 0 l0 -258 l404 0 ZM38 349 q180 193 269 453 l19 -7 q-42 -121 -102 -227 l0 -672 l-20 0 l0 639 q-66 -107 -151 -200 l-15 14 ZM309 -39 l650 0 l0 -21 l-650 0 l0 21 Z" /><glyph glyph-name="" unicode="&#x4f4d;" d="M38 345 q175 189 268 458 l20 -6 q-43 -124 -103 -231 l0 -668 l-20 0 l0 634 q-66 -109 -151 -201 l-14 14 ZM295 -27 l331 0 q101 240 176 484 l19 -6 q-74 -241 -173 -477 l298 -1 l0 -20 l-651 0 l0 20 ZM347 584 l558 0 l0 -20 l-558 0 l0 20 ZM408 432 l18 8 q33 -77 64 -164 q31 -87 58 -171 l-19 -6 q-26 83 -57 170 q-32 86 -64 163 ZM534 797 l15 14 q34 -37 74 -82 q39 -46 66 -82 l-17 -12 q-25 35 -64 80 q-39 45 -74 82 Z" /><glyph glyph-name="" unicode="&#x4f4e;" d="M393 716 q232 7 462 50 l3 -19 q-100 -19 -199 -31 q2 -125 11 -236 q2 -32 6 -62 l246 0 l0 -21 l-243 0 q17 -124 49 -225 q32 -101 75 -164 q36 -49 67 -50 q31 -1 55 64 q3 9 8 27 q4 17 7 29 l19 -4 q-2 -12 -7 -30 q-4 -18 -8 -29 q-10 -28 -27 -52 q-17 -24 -47 -25 q-14 -1 -35 12 q-22 12 -48 48 q-45 63 -78 168 q-34 104 -51 231 l-255 0 l0 -397 q12 8 60 41 q49 33 95 63 q46 31 49 33 l11 -17 q-4 -3 -55 -37 q-51 -34 -102 -68 q-51 -33 -56 -36 q-5 -7 -14 -22 l-18 9 q12 24 10 23 l0 726 l10 1 ZM650 478 q-8 112 -11 235 q-117 -13 -236 -17 l0 -278 l253 0 q-4 30 -6 60 ZM22 348 q92 108 154 217 q63 109 106 237 l19 -6 q-38 -111 -89 -208 l0 -692 l-20 0 l0 656 q-63 -109 -155 -217 l-15 13 ZM565 18 l13 15 q73 -65 134 -127 l-14 -15 q-60 63 -133 127 Z" /><glyph glyph-name="" unicode="&#x4f4f;" d="M293 -32 l323 0 l0 316 l-223 0 l0 20 l223 0 l0 286 l-274 0 l0 20 l581 0 l0 -20 l-286 0 l0 -286 l225 0 l0 -20 l-225 0 l0 -316 l308 0 l0 -20 l-652 0 l0 20 ZM46 330 q173 200 258 471 l20 -6 q-41 -127 -100 -238 l1 0 l0 -662 l-20 0 l0 626 q-63 -109 -144 -204 l-15 13 ZM541 797 l14 14 q74 -72 140 -149 l-16 -13 q-65 76 -138 148 Z" /><glyph glyph-name="" unicode="&#x4f53;" d="M189 560 q57 108 99 239 l19 -6 q-42 -129 -98 -238 l0 -657 l-20 0 l0 620 q-62 -110 -142 -200 l-15 13 q90 101 157 228 l0 1 ZM244 71 q246 231 340 523 l-252 0 l0 20 l270 0 l0 194 l20 0 l0 -194 l298 0 l0 -20 l-278 0 q52 -162 131 -286 q80 -124 198 -227 l-14 -16 q-242 211 -331 529 l-4 0 l0 -475 l198 0 l0 -18 l-198 0 l0 -204 l-20 0 l0 204 l-203 0 l0 18 l203 0 l0 475 l-4 0 q-42 -149 -128 -285 q-87 -136 -212 -252 l-14 14 Z" /><glyph glyph-name="" unicode="&#x4f55;" d="M517 502 l137 0 l0 -338 l-273 0 l0 338 l136 0 ZM633 481 l-232 0 l0 -297 l232 0 l0 297 ZM325 705 l633 0 l0 -21 l-112 0 l0 -657 q1 -61 -27 -89 q-27 -28 -89 -27 q-35 -1 -91 11 l4 18 q54 -9 87 -9 q53 -1 75 21 q21 22 20 75 l0 657 l-500 0 l0 21 ZM30 348 q158 197 237 453 l19 -6 q-33 -108 -80 -205 l0 -693 l-21 0 l0 651 q-60 -114 -140 -212 l-15 12 Z" /><glyph glyph-name="" unicode="&#x4f59;" d="M119 281 l378 0 l0 176 l-252 0 l0 20 l509 0 l0 -20 l-237 0 l0 -176 l383 0 l0 -20 l-383 0 l0 -272 q2 -89 -94 -87 q-46 0 -90 7 l4 19 q41 -6 86 -6 q41 -1 58 15 q17 15 16 53 l0 271 l-378 0 l0 20 ZM37 422 q161 76 283 176 q123 100 190 211 l17 -10 q-9 -16 -20 -31 q79 -94 181 -173 q103 -78 268 -149 l-7 -18 q-167 72 -272 151 q-104 79 -182 171 q-74 -100 -189 -188 q-116 -89 -261 -158 l-8 18 ZM109 -39 q136 97 227 197 l15 -13 q-45 -50 -104 -102 q-59 -51 -126 -99 l-12 17 ZM659 141 l13 15 q116 -99 212 -193 l-14 -15 q-96 94 -211 193 Z" /><glyph glyph-name="" unicode="&#x4f5c;" d="M344 382 q76 88 132 189 q56 100 104 233 l19 -6 q-33 -93 -70 -168 l431 0 l0 -20 l-350 0 l0 -228 l291 0 l0 -20 l-291 0 l0 -224 l317 0 l0 -19 l-317 0 l0 -223 l-20 0 l0 714 l-71 0 q-66 -132 -161 -241 l-14 13 ZM42 343 q91 109 154 220 q63 111 106 242 l19 -7 q-37 -112 -87 -207 l0 -695 l-20 0 l0 658 q-63 -113 -157 -224 l-15 13 Z" /><glyph glyph-name="" unicode="&#x4f60;" d="M44 350 q174 188 269 453 l19 -7 q-45 -125 -107 -233 l1 0 l0 -666 l-20 0 l0 634 q-66 -107 -147 -194 l-15 13 ZM357 435 q124 150 208 371 l18 -7 q-33 -87 -72 -163 l408 0 l0 -20 l-76 -176 l-18 7 q1 3 18 41 q16 39 34 79 q17 41 21 49 l-397 0 q-58 -110 -129 -194 l-15 13 ZM630 481 l20 0 l0 -487 q2 -33 -14 -61 q-16 -28 -70 -30 q-33 0 -80 11 l4 18 q45 -9 76 -9 q67 -4 64 72 l0 486 ZM314 39 q102 130 162 275 l18 -7 q-60 -147 -165 -280 l-15 12 ZM784 288 l17 10 q73 -124 139 -261 l-18 -9 q-67 138 -138 260 Z" /><glyph glyph-name="" unicode="&#x4f73;" d="M375 208 l248 0 l0 136 l20 0 l0 -136 l250 0 l0 -20 l-250 0 l0 -223 l310 0 l0 -20 l-670 0 l0 20 l340 0 l0 223 l-248 0 l0 20 ZM323 433 l299 0 l0 200 l-227 0 l0 20 l227 0 l0 151 l20 0 l0 -151 l236 0 l0 -20 l-236 0 l0 -200 l301 0 l0 -19 l-620 0 l0 19 ZM37 331 q90 101 154 216 q65 115 110 252 l19 -6 q-42 -127 -100 -234 l0 -666 l-20 0 l0 630 q-63 -108 -148 -205 l-15 13 Z" /><glyph glyph-name="" unicode="&#x4f7f;" d="M368 197 l15 13 q78 -96 158 -150 q63 76 74 204 l-236 0 l0 238 l240 0 l0 144 l-289 0 l0 20 l289 0 l0 140 l20 0 l0 -140 l289 0 l0 -20 l-289 0 l0 -144 l234 0 l0 -238 l-238 0 q-10 -135 -76 -215 q67 -41 144 -59 q110 -29 254 -46 l-2 -20 q-146 17 -257 46 q-82 21 -153 63 q-75 -79 -238 -136 l-6 18 q154 55 227 130 q-81 54 -160 152 ZM616 284 q3 33 3 72 l0 126 l-220 0 l0 -198 l217 0 ZM853 482 l-214 0 l0 -126 q0 -39 -3 -72 l217 0 l0 198 ZM42 380 q80 99 135 201 q55 102 95 224 l19 -6 q-36 -111 -84 -205 l0 -698 l-20 0 l0 661 q-54 -95 -129 -189 l-16 12 Z" /><glyph glyph-name="" unicode="&#x4f88;" d="M508 145 l10 17 q37 -21 82 -50 q46 -28 85 -54 q137 86 219 223 l-318 0 q-107 -64 -254 -121 l-8 19 q140 54 243 114 q102 60 179 133 l14 -15 q-63 -59 -142 -110 l310 0 l0 -18 q-92 -160 -251 -254 q-159 -93 -403 -133 l-3 19 q240 41 395 131 q-38 25 -81 52 q-43 27 -77 47 ZM456 558 l9 17 q57 -31 150 -88 q147 86 223 195 l-351 0 q-71 -62 -158 -110 l-9 17 q160 91 259 220 l16 -12 q-38 -50 -85 -94 l353 0 l0 -20 q-72 -107 -207 -194 q-136 -87 -324 -145 l-5 19 q151 47 268 113 q-87 52 -139 82 ZM42 335 q169 198 254 467 l19 -6 q-40 -126 -97 -236 l0 -663 l-20 0 l0 626 q-61 -108 -141 -202 l-15 14 Z" /><glyph glyph-name="" unicode="&#x4f8b;" d="M285 249 q64 84 108 201 q44 117 62 248 l-144 0 l0 19 l342 0 l0 -19 l-178 0 q-14 -103 -44 -198 l173 0 l0 -17 q-20 -187 -89 -326 q-70 -139 -195 -238 l-12 15 q132 104 200 256 q-58 42 -115 77 l10 16 q56 -32 113 -74 q51 118 68 272 l-159 0 q-48 -144 -124 -244 l-16 12 ZM178 610 q43 89 73 193 l20 -6 q-31 -103 -72 -191 l0 -712 l-21 0 l0 670 q-53 -101 -129 -199 l-15 13 q87 112 144 231 l0 1 ZM878 807 l20 0 l0 -795 q2 -43 -16 -75 q-19 -32 -80 -34 q-37 0 -84 10 l4 19 q46 -9 80 -9 q46 0 62 23 q15 23 14 66 l0 795 ZM716 625 l20 0 l0 -509 l-20 0 l0 509 Z" /><glyph glyph-name="" unicode="&#x4f9b;" d="M313 270 l184 0 l0 295 l-129 0 l0 20 l129 0 l0 218 l20 0 l0 -218 l227 0 l0 218 l21 0 l0 -218 l143 0 l0 -20 l-143 0 l0 -295 l188 0 l0 -20 l-640 0 l0 20 ZM517 565 l0 -295 l227 0 l0 295 l-227 0 ZM44 347 q180 192 269 452 l19 -6 q-42 -122 -102 -228 l0 -672 l-20 0 l0 639 q-66 -106 -151 -199 l-15 14 ZM335 -78 q55 52 105 112 q50 60 88 121 l18 -11 q-39 -62 -90 -124 q-51 -61 -107 -113 l-14 15 ZM719 143 l14 13 q49 -51 101 -113 q53 -61 101 -122 l-15 -14 q-48 63 -100 123 q-53 62 -101 113 Z" /><glyph glyph-name="" unicode="&#x4f9d;" d="M271 130 q111 96 196 217 q86 120 133 243 l-273 0 l0 20 l605 0 l0 -20 l-311 0 q-42 -115 -118 -228 q0 -10 0 -72 q1 -62 1 -142 q0 -80 1 -143 q0 -62 0 -72 q12 7 59 35 q47 29 91 54 q44 27 47 29 l11 -17 q-4 -2 -53 -32 q-50 -29 -99 -59 q-50 -30 -54 -33 q-8 -6 -18 -18 l-16 11 q10 12 13 21 q0 4 0 54 q0 49 -1 120 q0 71 0 136 q-1 66 -1 101 q-87 -122 -200 -220 l-13 15 ZM41 311 q175 207 262 488 l19 -6 q-42 -132 -100 -247 l0 -653 l-19 0 l0 617 q-63 -113 -147 -212 l-15 13 ZM623 448 l19 6 q33 -106 79 -189 q48 44 92 91 q43 46 76 90 l16 -12 q-34 -46 -79 -94 q-44 -49 -95 -93 q89 -151 237 -247 l-12 -17 q-121 80 -202 193 q-81 113 -131 272 ZM539 792 l15 14 q69 -72 140 -151 l-15 -13 q-70 78 -140 150 Z" /><glyph glyph-name="" unicode="&#x4fa7;" d="M319 724 l284 0 l0 -564 l-20 0 l0 544 l-244 0 l0 -559 l-20 0 l0 579 ZM34 361 q74 102 124 208 q50 106 85 234 l20 -6 q-32 -113 -74 -208 l1 0 l0 -695 l-20 0 l0 653 q-49 -100 -120 -198 l-16 12 ZM877 802 l20 0 l0 -795 q2 -34 -14 -66 q-17 -32 -74 -34 q-35 0 -83 10 l4 18 q45 -7 79 -8 q71 -3 68 80 l0 795 ZM451 576 l20 0 l0 -253 q1 -151 -44 -246 q-45 -95 -152 -168 l-11 16 q102 70 145 161 q43 91 42 237 l0 253 ZM727 669 l20 0 l0 -543 l-20 0 l0 543 ZM496 91 l14 15 q76 -71 139 -142 l-15 -14 q-63 71 -138 141 Z" /><glyph glyph-name="" unicode="&#x4fbf;" d="M350 165 l15 13 q67 -79 154 -132 q70 69 89 174 l-229 0 l0 358 l239 0 l0 141 l-295 0 l0 20 l602 0 l0 -20 l-287 0 l0 -141 l235 0 l0 -358 l-245 0 q-20 -110 -92 -184 q81 -44 171 -61 q115 -22 252 -31 l-2 -21 q-138 10 -253 32 q-97 19 -183 67 q-92 -81 -265 -126 l-5 18 q167 45 253 118 q-87 53 -154 133 ZM398 558 l0 -149 l220 0 l0 149 l-220 0 ZM612 240 q6 40 6 88 l0 61 l-220 0 l0 -149 l214 0 ZM638 328 q0 -47 -6 -88 l222 0 l0 149 l-216 0 l0 -61 ZM854 558 l-216 0 l0 -149 l216 0 l0 149 ZM40 335 q95 117 151 230 q56 114 95 237 l18 -6 q-36 -116 -87 -223 l0 -676 l-20 0 l0 636 q-54 -104 -142 -211 l-15 13 Z" /><glyph glyph-name="" unicode="&#x4fc3;" d="M252 -82 q86 83 126 184 q40 101 44 241 l20 -1 q-2 -69 -12 -128 q33 -96 82 -153 q48 -57 121 -79 l0 463 l-228 0 l0 306 l458 0 l0 -306 l-211 0 l0 -208 l257 0 l0 -20 l-257 0 l0 -241 q36 -9 78 -13 q45 -5 105 -8 q60 -3 121 -1 l1 -22 q-63 0 -123 3 q-61 3 -106 7 q-114 11 -188 66 q-73 56 -118 169 q-36 -157 -156 -273 l-14 14 ZM843 731 l-418 0 l0 -266 l418 0 l0 266 ZM35 348 q82 105 137 213 q56 108 97 242 l20 -6 q-35 -113 -79 -207 l0 -692 l-20 0 l0 653 q-57 -110 -140 -215 l-15 12 Z" /><glyph glyph-name="" unicode="&#x4fdd;" d="M319 320 l292 0 l0 155 l-210 0 l0 278 l220 0 l221 0 l0 -278 l-211 0 l0 -155 l294 0 l0 -20 l-275 0 q55 -92 135 -169 q80 -76 178 -130 l-9 -17 q-103 56 -186 137 q-82 81 -136 179 l-1 0 l0 -403 l-20 0 l0 403 l-2 0 q-43 -87 -129 -174 q-86 -87 -191 -150 l-10 16 q100 61 185 145 q84 84 129 163 l-274 0 l0 20 ZM822 733 l-401 0 l0 -239 l401 0 l0 239 ZM45 329 q102 125 160 248 q59 124 91 226 l18 -7 q-33 -108 -96 -239 l0 -660 l-19 0 l0 623 q-54 -102 -139 -204 l-15 13 Z" /><glyph glyph-name="" unicode="&#x4fe1;" d="M389 211 l482 0 l0 -315 l-20 0 l0 76 l-443 0 l0 -76 l-19 0 l0 315 ZM408 191 l0 -199 l443 0 l0 199 l-443 0 ZM44 340 q166 196 247 461 l19 -5 q-37 -121 -90 -225 l0 -675 l-20 0 l0 637 q-61 -110 -141 -206 l-15 13 ZM308 670 l646 0 l0 -20 l-646 0 l0 20 ZM369 364 l520 0 l0 -19 l-520 0 l0 19 ZM369 517 l520 0 l0 -19 l-520 0 l0 19 ZM543 795 l14 14 q62 -52 126 -117 l-14 -14 q-64 63 -126 117 Z" /><glyph glyph-name="" unicode="&#x4fee;" d="M412 553 q57 52 103 118 q46 65 78 138 l18 -8 q-21 -48 -49 -94 l311 0 l0 -16 q-64 -106 -175 -186 q111 -67 263 -108 l-5 -20 q-161 43 -276 115 q-123 -86 -285 -133 l-5 19 q154 45 272 125 q-87 57 -147 134 q-41 -54 -89 -98 l-14 14 ZM847 687 l-297 0 q-11 -16 -23 -33 q62 -79 153 -139 q105 76 167 172 ZM44 351 q160 192 238 452 l19 -6 q-37 -123 -91 -229 l0 -671 l-20 0 l0 633 q-57 -102 -130 -192 l-16 13 ZM342 621 l20 0 l0 -565 l-20 0 l0 565 ZM423 -84 q141 18 267 70 q125 51 224 132 l13 -15 q-101 -83 -230 -135 q-128 -54 -272 -72 l-2 20 ZM452 75 q110 25 212 71 q101 45 177 103 l12 -16 q-77 -59 -181 -105 q-103 -47 -215 -73 l-5 20 ZM447 234 q87 25 169 62 q81 38 144 83 l12 -16 q-64 -46 -148 -85 q-83 -39 -171 -64 l-6 20 Z" /><glyph glyph-name="" unicode="&#x500d;" d="M383 235 l464 0 l0 -338 l-20 0 l0 56 l-425 0 l0 -56 l-19 0 l0 338 ZM402 215 l0 -242 l425 0 l0 242 l-425 0 ZM38 327 q85 106 147 223 q62 116 104 253 l19 -6 q-40 -129 -97 -240 l0 -660 l-20 0 l0 622 q-59 -106 -137 -204 l-16 12 ZM285 403 l356 0 q102 114 164 211 l17 -10 q-58 -93 -154 -201 l288 0 l0 -20 l-671 0 l0 20 ZM333 685 l569 0 l0 -20 l-569 0 l0 20 ZM417 586 l14 14 q66 -73 117 -144 l-15 -12 q-53 71 -116 142 ZM534 799 l13 15 q64 -54 119 -110 l-15 -14 q-53 56 -117 109 Z" /><glyph glyph-name="" unicode="&#x5012;" d="M308 425 q31 46 68 114 q38 68 77 149 l-159 0 l0 20 l341 0 l0 -20 l-160 0 q-39 -79 -76 -147 q-37 -68 -67 -116 q13 1 61 5 q48 4 101 9 q53 5 81 7 q-32 63 -65 125 l17 9 q56 -100 102 -199 l-18 -9 q-13 27 -27 55 l-265 -24 q-1 1 -22 -9 l-8 18 q13 7 19 13 ZM39 363 q142 187 208 433 l20 -6 q-32 -118 -83 -225 l0 -671 l-20 0 l0 631 q-49 -94 -110 -174 l-15 12 ZM270 -31 l182 52 l0 188 l-141 0 l0 20 l141 0 l0 123 l20 0 l0 -123 l138 0 l0 -20 l-138 0 l0 -182 l167 48 l6 -20 l-369 -105 l-6 19 ZM880 804 l19 0 l0 -800 q0 -91 -95 -92 q-34 0 -81 9 l4 18 q45 -7 77 -7 q77 0 76 72 l0 800 ZM728 645 l20 0 l0 -518 l-20 0 l0 518 Z" /><glyph glyph-name="" unicode="&#x503c;" d="M399 536 l186 0 l17 125 l-281 0 l0 20 l283 0 l17 120 l20 -2 l-16 -118 l297 0 l0 -20 l-300 0 l-16 -125 l243 0 l0 -591 l115 0 l0 -20 l-693 0 l0 20 l128 0 l0 591 ZM419 372 l0 -131 l410 0 l0 131 l-410 0 ZM419 75 l0 -130 l410 0 l0 130 l-410 0 ZM419 221 l0 -126 l410 0 l0 126 l-410 0 ZM419 517 l0 -125 l410 0 l0 125 l-410 0 ZM45 326 q82 101 140 217 q59 116 98 254 l19 -5 q-37 -131 -91 -243 l0 -661 l-19 0 l0 624 q-56 -105 -131 -199 l-16 13 Z" /><glyph glyph-name="" unicode="&#x504f;" d="M432 363 l467 0 l0 -375 q0 -41 -22 -63 q-23 -23 -65 -22 q-17 0 -39 2 q-23 2 -40 5 l3 19 q17 -2 39 -4 q21 -2 37 -2 q34 0 51 16 q17 17 17 50 l0 156 l-135 0 l0 -165 l-20 0 l0 165 l-126 0 l0 -181 l-20 0 l0 181 l-127 0 l0 -249 l-20 0 l0 467 ZM620 682 l257 0 l0 -195 l-494 0 l0 -81 q2 -106 -24 -240 q-25 -134 -100 -258 l-17 10 q73 122 98 253 q25 131 23 235 l0 276 l257 0 ZM857 662 l-474 0 l0 -155 l474 0 l0 155 ZM880 344 l-135 0 l0 -179 l135 0 l0 179 ZM36 341 q82 99 142 212 q60 113 102 248 l19 -5 q-39 -127 -93 -233 l0 -667 l-20 0 l0 629 q-58 -104 -135 -197 l-15 13 ZM452 344 l0 -179 l127 0 l0 179 l-127 0 ZM599 344 l0 -179 l126 0 l0 179 l-126 0 ZM528 792 l11 17 q76 -51 140 -103 l-12 -15 q-63 51 -139 101 Z" /><glyph glyph-name="" unicode="&#x505a;" d="M574 381 q55 89 93 198 q38 109 56 227 l20 -3 q-17 -108 -50 -208 l260 0 l0 -20 l-74 0 q-9 -145 -34 -252 q-25 -107 -71 -188 q75 -127 190 -214 l-12 -17 q-114 88 -189 211 q-78 -122 -230 -217 l-11 16 q152 95 228 221 q-79 140 -113 320 q-21 -44 -46 -84 l-17 10 ZM323 373 l110 0 l0 213 l-157 0 l0 20 l157 0 l0 201 l20 0 l0 -201 l148 0 l0 -20 l-148 0 l0 -213 l103 0 l-1 -365 l-20 0 l0 54 l-192 0 l0 -97 l-20 0 l0 408 ZM686 575 q-15 -45 -34 -87 q31 -189 110 -332 q42 78 65 180 q23 103 32 239 l-173 0 ZM343 353 l0 -271 l192 0 q0 49 1 109 q0 60 0 107 q0 46 0 55 l-193 0 ZM179 572 q54 106 92 230 l20 -5 q-37 -123 -91 -229 l0 -672 l-21 0 l0 633 q-57 -103 -131 -192 l-15 12 q84 102 146 222 l0 1 Z" /><glyph glyph-name="" unicode="&#x505c;" d="M614 594 l201 0 l0 -166 l-404 0 l0 166 l203 0 ZM795 574 l-364 0 l0 -126 l364 0 l0 126 ZM41 349 q164 193 244 452 l20 -6 q-39 -123 -94 -229 l0 -671 l-20 0 l0 634 q-58 -103 -135 -193 l-15 13 ZM299 326 l628 0 l0 -156 l-19 0 l0 136 l-589 0 l0 -136 l-20 0 l0 156 ZM383 197 l465 0 l0 -20 l-205 0 l0 -187 q-1 -88 -96 -89 q-42 1 -85 8 l3 19 q41 -6 82 -7 q77 -1 76 70 l0 186 l-240 0 l0 20 ZM318 701 l601 0 l0 -20 l-601 0 l0 20 ZM542 794 l12 15 q42 -32 106 -91 l-14 -14 q-64 57 -104 90 Z" /><glyph glyph-name="" unicode="&#x5077;" d="M343 423 l240 0 l0 -450 q-1 -66 -62 -67 q-18 0 -34 3 q-16 3 -23 6 l5 18 q30 -7 52 -7 q43 -1 42 48 l0 102 l-200 0 l0 -181 l-20 0 l0 528 ZM363 243 l0 -147 l200 0 l0 147 l-200 0 ZM363 405 l0 -143 l200 0 l0 143 l-200 0 ZM43 342 q84 100 144 212 q60 113 102 247 l19 -6 q-41 -131 -99 -242 l0 -658 l-20 0 l0 621 q-56 -99 -131 -187 l-15 13 ZM258 502 q109 54 201 134 q92 81 150 175 l17 -10 q-7 -12 -15 -23 q73 -90 160 -154 q86 -63 193 -104 l-7 -19 q-213 82 -358 259 q-61 -84 -147 -156 q-86 -72 -185 -120 l-9 18 ZM849 440 l20 0 l0 -453 q1 -86 -82 -85 q-15 0 -35 3 q-20 3 -37 7 l5 19 q18 -4 37 -6 q18 -3 30 -3 q64 -2 62 66 l0 452 ZM702 378 l20 0 l0 -311 l-20 0 l0 311 ZM448 556 l317 0 l0 -19 l-317 0 l0 19 Z" /><glyph glyph-name="" unicode="&#x507f;" d="M404 -44 q35 42 85 108 q49 66 96 135 l-262 0 l0 20 l628 0 l0 -20 l-342 0 q-45 -68 -94 -134 q-50 -66 -87 -111 q14 1 93 5 q79 4 169 9 q90 4 136 7 q-55 67 -111 132 l14 13 q89 -98 168 -205 l-16 -13 q-20 27 -40 54 l-424 -24 q-10 0 -28 -6 l-8 17 q15 6 23 13 ZM33 353 q113 128 173 250 q60 122 81 197 l19 -6 q-24 -83 -93 -221 l0 -675 l-19 0 l0 641 q-56 -99 -146 -200 l-15 14 ZM347 581 l278 0 l0 226 l20 0 l0 -226 l277 0 l0 -163 l-20 0 l0 143 l-535 0 l0 -142 l-20 0 l0 162 ZM453 408 l374 0 l0 -20 l-374 0 l0 20 ZM741 643 l128 128 l14 -14 l-128 -128 l-14 14 ZM394 755 l13 14 l126 -121 l-13 -14 l-126 121 Z" /><glyph glyph-name="" unicode="&#x50a8;" d="M464 475 l202 0 l0 168 l-135 0 l0 21 l135 0 l0 142 l20 0 l0 -142 l135 0 l0 -21 l-135 0 l0 -168 l50 0 q98 113 162 246 l18 -9 q-61 -127 -153 -237 l193 0 l0 -20 l-210 0 q-69 -79 -149 -144 l283 0 l0 -415 l-20 0 l0 53 l-272 0 l0 -53 l-20 0 l0 392 q-62 -47 -128 -85 l-11 17 q163 94 289 235 l-254 0 l0 20 ZM588 291 l0 -152 l272 0 l0 152 l-272 0 ZM588 118 l0 -149 l272 0 l0 149 l-272 0 ZM31 349 q93 107 151 218 q59 111 103 236 l19 -7 q-42 -119 -97 -226 l0 -674 l-20 0 l0 637 q-56 -100 -141 -197 l-15 13 ZM378 459 l0 -469 q12 11 38 34 q25 24 47 44 q23 21 24 22 l13 -15 q-2 -2 -31 -29 q-28 -26 -57 -52 q-29 -26 -32 -29 q-6 -8 -12 -22 l-18 8 q11 25 9 23 l0 465 l-111 0 l0 20 l130 0 ZM329 718 l14 15 q28 -28 60 -64 q31 -36 59 -71 l-16 -12 q-28 34 -58 69 q-31 35 -59 63 Z" /><glyph glyph-name="" unicode="&#x50cf;" d="M298 246 q171 60 253 153 l-171 0 l0 181 l277 0 q12 11 38 36 q26 24 51 49 q25 24 35 34 l-302 0 q-85 -97 -181 -159 l-11 16 q69 45 135 111 q66 66 114 139 l16 -11 q-26 -39 -56 -76 l314 0 l0 -20 l-124 -119 l196 0 l0 -181 l-304 0 q-19 -25 -45 -48 q74 -55 111 -127 q140 59 240 137 l12 -16 q-62 -49 -140 -91 q59 -173 192 -260 l-11 -17 q-137 91 -200 268 q-40 -21 -85 -39 q29 -65 29 -146 q0 -152 -123 -152 q-42 -1 -84 14 l6 17 q40 -11 78 -11 q103 -1 103 132 q0 50 -12 94 q-63 -64 -154 -121 q-92 -56 -202 -98 l-7 18 q110 43 204 100 q93 59 152 124 q-15 46 -46 85 q-116 -112 -315 -188 l-7 19 q196 74 310 185 q-28 32 -67 60 q-80 -64 -212 -111 l-7 19 ZM861 560 l-195 0 l-1 -1 l-1 1 l-6 0 q-22 -80 -65 -141 l268 0 l0 141 ZM400 560 l0 -141 l168 0 q47 60 68 141 l-236 0 ZM27 349 q176 193 262 453 l19 -6 q-41 -122 -99 -227 l0 -673 l-20 0 l0 638 q-63 -106 -146 -198 l-16 13 Z" /><glyph glyph-name="" unicode="&#x513f;" d="M612 791 l20 0 l0 -727 q-3 -115 95 -111 l89 -1 q75 -1 100 90 q3 10 9 36 q5 25 8 41 l20 -3 q-3 -16 -9 -42 q-6 -27 -9 -37 q-29 -106 -119 -105 l-89 -1 q-117 -1 -115 133 l0 727 ZM334 793 l21 0 l0 -253 q1 -176 -25 -294 q-27 -118 -89 -200 q-62 -81 -170 -148 l-11 16 q93 58 154 129 q61 73 90 190 q30 117 30 307 l0 253 Z" /><glyph glyph-name="" unicode="&#x5143;" d="M381 319 l2 105 l-296 0 l0 20 l834 0 l0 -20 l-291 0 l0 -385 q1 -43 22 -66 q23 -21 68 -21 l94 -1 q77 -1 99 82 q7 29 12 55 l20 -4 q-6 -27 -13 -56 q-25 -98 -118 -97 l-94 -1 q-54 1 -82 29 q-27 28 -28 80 l0 385 l-208 0 l-2 -105 q-4 -268 -294 -419 l-10 16 q281 148 285 403 ZM177 722 l667 0 l0 -20 l-667 0 l0 20 Z" /><glyph glyph-name="" unicode="&#x5145;" d="M195 374 q52 45 128 122 q77 76 139 146 l-373 0 l0 20 l840 0 l0 -20 l-440 0 q-58 -66 -133 -142 q-75 -76 -133 -128 q13 1 80 4 q67 3 157 8 q89 4 169 8 q81 4 121 6 q-66 66 -142 136 l14 15 q134 -126 237 -234 l-15 -14 q-34 38 -75 77 q-14 -1 -56 -2 q-42 -2 -101 -5 l0 -344 q0 -42 24 -63 q23 -20 67 -20 l109 -1 q76 0 98 85 l14 55 l19 -5 l-14 -55 q-25 -99 -117 -99 l-109 -1 q-51 1 -80 26 q-31 27 -31 78 l0 343 q-94 -4 -189 -9 l0 -40 q1 -71 -23 -150 q-25 -79 -92 -151 q-68 -72 -195 -123 l-7 18 q122 50 186 118 q65 70 89 145 q23 75 22 143 l0 39 q-75 -4 -125 -6 q-50 -2 -52 -2 q-14 -3 -30 -8 l-5 19 q23 9 24 11 ZM417 794 l13 16 q74 -61 136 -119 l-13 -15 q-62 58 -136 118 Z" /><glyph glyph-name="" unicode="&#x5148;" d="M66 358 l438 0 l0 220 l-257 0 q-48 -75 -107 -136 l-15 14 q60 62 108 137 q49 75 80 152 l19 -7 q-28 -71 -72 -140 l244 0 l0 205 l20 0 l0 -205 l324 0 l0 -20 l-324 0 l0 -220 l421 0 l0 -20 l-318 0 l0 -298 q-3 -99 90 -96 l91 -1 q43 0 66 20 q22 19 33 65 q7 26 13 58 l20 -3 q-7 -34 -14 -60 q-12 -52 -40 -75 q-28 -23 -78 -23 l-91 -1 q-111 0 -110 116 l0 298 l-215 0 l0 -23 q3 -280 -290 -419 l-9 17 q143 69 211 167 q68 99 68 235 l0 23 l-306 0 l0 20 Z" /><glyph glyph-name="" unicode="&#x5149;" d="M80 403 l411 0 l0 400 l20 0 l0 -400 l422 0 l0 -20 l-318 0 l0 -346 q-1 -52 21 -75 q21 -22 74 -21 l92 -1 q38 0 63 17 q26 17 39 68 l12 61 l20 -3 l-13 -63 q-16 -60 -47 -80 q-30 -20 -74 -18 l-92 -1 q-61 0 -88 28 q-27 27 -27 88 l0 346 l-213 0 l0 -50 q0 -281 -293 -437 l-9 17 q281 151 282 420 l0 50 l-282 0 l0 20 ZM167 682 l14 15 q92 -87 181 -187 l-15 -14 q-88 99 -180 186 ZM641 513 q107 93 177 182 l16 -13 q-72 -90 -180 -184 l-13 15 Z" /><glyph glyph-name="" unicode="&#x514b;" d="M494 806 l20 0 l0 -131 l426 0 l0 -21 l-426 0 l0 -160 l273 0 l0 -265 l-166 0 l0 -201 q-3 -83 85 -80 l124 -1 q42 0 64 17 q21 16 30 55 q8 32 15 69 l19 -4 q-6 -37 -15 -70 q-11 -46 -37 -66 q-27 -20 -76 -20 l-124 -1 q-106 0 -105 101 l0 201 l-188 0 q-3 -159 -89 -231 q-87 -73 -234 -102 l-4 19 q140 28 222 96 q83 68 84 218 l-167 0 l0 265 l269 0 l0 160 l-421 0 l0 21 l421 0 l0 131 ZM766 474 l-521 0 l0 -225 l521 0 l0 225 Z" /><glyph glyph-name="" unicode="&#x514d;" d="M71 -80 q179 59 273 139 q95 80 129 214 l-297 0 l0 246 l356 0 q11 10 51 46 q40 36 81 73 q41 37 55 50 l-400 0 q-60 -61 -127 -111 q-67 -51 -126 -85 l-10 18 q84 48 177 125 q92 77 156 170 l17 -11 q-30 -44 -67 -85 l412 0 l0 -19 l-189 -171 l278 0 l0 -246 l-257 0 l0 -241 q0 -82 89 -82 l145 -1 q76 2 97 71 q8 33 16 72 l20 -4 q-8 -40 -17 -73 q-25 -83 -116 -85 l-145 -1 q-109 2 -110 103 l0 241 l-69 0 q-34 -141 -133 -226 q-98 -85 -283 -147 l-6 20 ZM820 499 l-299 0 q-4 -118 -23 -206 l322 0 l0 206 ZM197 499 l0 -206 l281 0 q19 87 23 206 l-304 0 Z" /><glyph glyph-name="" unicode="&#x5165;" d="M330 773 l8 19 q63 -29 100 -56 q37 -28 59 -69 q23 -41 44 -110 q62 -200 160 -344 q98 -144 252 -262 l-12 -17 q-155 120 -256 268 q-101 148 -163 349 q-9 25 -16 46 q-47 -214 -162 -387 q-114 -173 -286 -290 l-11 15 q175 121 289 299 q114 178 157 397 q-22 51 -59 81 q-36 30 -104 61 Z" /><glyph glyph-name="" unicode="&#x5168;" d="M228 192 l263 0 l0 216 l-266 0 l0 20 l554 0 l0 -20 l-269 0 l0 -216 l266 0 l0 -20 l-266 0 l0 -226 l387 0 l0 -20 l-792 0 l0 20 l386 0 l0 226 l-263 0 l0 20 ZM46 411 q91 43 181 109 q91 66 164 142 q74 76 115 147 l18 -10 q-9 -16 -20 -32 q83 -112 200 -201 q116 -89 247 -138 l-7 -19 q-132 50 -249 139 q-118 89 -202 203 q-74 -103 -194 -201 q-119 -98 -245 -157 l-8 18 Z" /><glyph glyph-name="" unicode="&#x516c;" d="M192 -41 q49 62 104 143 q54 82 104 167 q50 85 86 158 l18 -8 q-55 -110 -134 -238 q-80 -127 -154 -224 q12 1 82 7 q70 5 163 13 q93 7 174 14 q82 6 117 9 q-73 107 -150 211 l15 12 q114 -150 213 -307 l-17 -12 q-24 39 -49 77 l-561 -46 q-13 -2 -29 -9 l-9 16 l4 2 q5 4 13 8 q8 5 10 7 ZM599 792 l19 6 q44 -156 124 -268 q81 -112 216 -202 l-11 -16 q-138 93 -221 207 q-83 114 -127 273 ZM43 306 q118 97 197 213 q78 117 122 261 l19 -5 q-45 -148 -125 -267 q-80 -119 -200 -218 l-13 16 Z" /><glyph glyph-name="" unicode="&#x516d;" d="M384 776 l15 14 q91 -95 167 -191 l-16 -13 q-74 95 -166 190 ZM59 490 l879 0 l0 -20 l-879 0 l0 20 ZM102 -65 q152 170 275 389 l18 -10 q-125 -221 -278 -392 l-15 13 ZM623 308 l16 12 q69 -89 140 -191 q71 -102 138 -206 l-17 -12 q-66 105 -137 207 q-71 101 -140 190 Z" /><glyph glyph-name="" unicode="&#x5171;" d="M51 257 l267 0 l0 303 l-196 0 l0 20 l196 0 l0 223 l20 0 l0 -223 l328 0 l0 223 l20 0 l0 -223 l197 0 l0 -20 l-197 0 l0 -303 l265 0 l0 -20 l-900 0 l0 20 ZM338 560 l0 -303 l328 0 l0 303 l-328 0 ZM116 -84 q71 48 139 111 q68 64 119 129 l16 -13 q-52 -66 -121 -131 q-69 -64 -141 -113 l-12 17 ZM614 142 l12 15 q66 -50 139 -111 q72 -61 136 -124 l-13 -16 q-65 64 -136 125 q-72 61 -138 111 Z" /><glyph glyph-name="" unicode="&#x5173;" d="M70 331 l416 0 q5 43 6 91 l0 137 l-366 0 l0 20 l406 0 q124 111 223 227 l15 -13 q-93 -108 -207 -214 l312 0 l0 -20 l-363 0 l0 -137 q-1 -48 -6 -91 l426 0 l0 -21 l-423 0 q50 -136 162 -235 q112 -99 274 -154 l-6 -21 q-164 57 -277 157 q-113 100 -163 237 q-31 -135 -139 -237 q-108 -101 -284 -162 l-6 18 q174 61 280 161 q105 102 132 236 l-412 0 l0 21 ZM222 789 l14 15 q79 -66 165 -148 l-14 -14 q-85 82 -165 147 Z" /><glyph glyph-name="" unicode="&#x5176;" d="M37 150 l235 0 l0 510 l-159 0 l0 20 l159 0 l0 126 l20 0 l0 -126 l419 0 l0 126 l19 0 l0 -126 l153 0 l0 -20 l-153 0 l0 -510 l225 0 l0 -20 l-918 0 l0 20 ZM292 484 l0 -158 l419 0 l0 158 l-419 0 ZM292 306 l0 -156 l419 0 l0 156 l-419 0 ZM292 660 l0 -156 l419 0 l0 156 l-419 0 ZM93 -88 q157 74 285 165 l12 -16 q-131 -94 -288 -166 l-9 17 ZM613 56 l9 18 q157 -78 280 -153 l-10 -18 q-123 76 -279 153 Z" /><glyph glyph-name="" unicode="&#x5177;" d="M39 122 l191 0 l0 631 l540 0 l0 -631 l187 0 l0 -20 l-918 0 l0 20 ZM250 261 l0 -139 l499 0 l0 139 l-499 0 ZM250 419 l0 -138 l499 0 l0 138 l-499 0 ZM250 733 l0 -137 l499 0 l0 137 l-499 0 ZM250 576 l0 -137 l499 0 l0 137 l-499 0 ZM110 -89 q159 64 276 137 l11 -17 q-118 -74 -280 -138 l-7 18 ZM612 23 l8 18 q147 -60 273 -124 l-9 -19 q-125 65 -272 125 Z" /><glyph glyph-name="" unicode="&#x5178;" d="M49 178 l127 0 l0 483 l209 0 l0 146 l20 0 l0 -146 l192 0 l0 146 l20 0 l0 -146 l212 0 l0 -483 l123 0 l0 -20 l-903 0 l0 20 ZM617 402 l0 -224 l192 0 l0 224 l-192 0 ZM405 402 l0 -224 l192 0 l0 224 l-192 0 ZM197 402 l0 -224 l188 0 l0 224 l-188 0 ZM809 640 l-192 0 l0 -218 l192 0 l0 218 ZM405 640 l0 -218 l192 0 l0 218 l-192 0 ZM197 640 l0 -218 l188 0 l0 218 l-188 0 ZM117 -85 q152 75 264 174 l14 -16 q-114 -100 -269 -176 l-9 18 ZM631 71 l11 18 q69 -45 133 -88 q65 -42 130 -88 l-11 -17 q-66 47 -130 90 q-63 41 -133 85 Z" /><glyph glyph-name="" unicode="&#x517c;" d="M570 650 q71 69 138 153 l15 -13 q-62 -77 -126 -141 l310 0 l0 -19 l-293 0 l0 -128 l209 0 l0 -141 l128 0 l0 -18 l-128 0 l0 -143 l-194 0 q55 -73 131 -127 q76 -54 182 -100 l-8 -19 q-111 49 -188 107 q-76 58 -132 135 l0 -304 l-20 0 l0 308 l-190 0 l0 -308 l-20 0 l0 304 q-98 -147 -298 -249 l-9 17 q191 99 291 236 l-202 0 l0 19 l218 0 l0 124 l-332 0 l0 18 l332 0 l0 122 l-216 0 l0 19 l216 0 l0 128 l-287 0 l0 19 l474 0 l-1 1 ZM404 630 l0 -128 l190 0 l0 128 l-190 0 ZM614 219 l190 0 l0 124 l-190 0 l0 -124 ZM404 343 l0 -124 l190 0 l0 124 l-190 0 ZM804 483 l-190 0 l0 -122 l190 0 l0 122 ZM404 483 l0 -122 l190 0 l0 122 l-190 0 ZM279 785 l12 16 q62 -49 120 -105 l-15 -14 q-55 55 -117 103 Z" /><glyph glyph-name="" unicode="&#x5185;" d="M456 384 q29 91 37 216 l-336 0 l0 -700 l-19 0 l0 720 l356 0 q4 83 4 186 l20 0 q0 -100 -4 -186 l353 0 l0 -587 q-2 -117 -112 -119 q-51 2 -90 8 l3 19 q38 -6 87 -7 q92 0 92 99 l0 567 l-335 0 q-7 -166 -63 -288 q-57 -123 -199 -212 l-10 18 q84 52 136 116 q53 64 80 150 ZM512 392 l15 13 q55 -61 117 -133 q62 -73 119 -143 l-16 -12 q-56 70 -118 142 q-62 73 -117 133 Z" /><glyph glyph-name="" unicode="&#x518c;" d="M582 750 l258 0 l0 -368 l116 0 l0 -20 l-116 0 l0 -366 q1 -89 -87 -88 q-30 0 -73 9 l5 18 q17 -3 36 -5 q19 -2 32 -2 q70 -2 67 69 l0 365 l-218 0 q1 -152 -21 -263 q-21 -111 -84 -209 l-17 10 q61 96 82 204 q21 109 20 258 l-147 0 l0 -360 q1 -42 -23 -64 q-21 -23 -62 -21 q-28 -1 -65 8 l4 18 q36 -7 61 -7 q33 0 49 16 q16 16 16 50 l0 360 l-211 0 q1 -148 -24 -255 q-25 -107 -100 -215 l-17 10 q73 106 98 211 q24 105 23 249 l-136 0 l0 20 l136 0 l0 368 l251 0 l0 -368 l147 0 l0 1 l0 367 ZM602 383 l0 -1 l218 0 l0 349 l-218 0 l0 -348 ZM204 731 l0 -349 l211 0 l0 349 l-211 0 Z" /><glyph glyph-name="" unicode="&#x518d;" d="M84 735 l840 0 l0 -20 l-410 0 l0 -167 l303 0 l0 -389 l140 0 l0 -19 l-140 0 l0 -120 q-1 -105 -105 -106 q-48 0 -98 10 l4 19 q48 -9 94 -9 q85 -1 85 86 l0 120 l-586 0 l0 -246 l-19 0 l0 246 l-145 0 l0 19 l145 0 l0 389 l302 0 l0 167 l-410 0 l0 20 ZM211 335 l0 -176 l283 0 l0 176 l-283 0 ZM514 335 l0 -176 l283 0 l0 176 l-283 0 ZM211 528 l0 -173 l283 0 l0 173 l-283 0 ZM797 528 l-283 0 l0 -173 l283 0 l0 173 Z" /><glyph glyph-name="" unicode="&#x5199;" d="M277 297 l28 330 l20 -2 q0 -1 -3 -35 q-3 -33 -7 -82 l470 0 l0 -20 l-472 0 q-5 -64 -10 -117 q-4 -54 -5 -64 l552 0 l-23 -272 q-10 -123 -134 -123 q-37 0 -98 10 l3 19 q60 -9 95 -9 q107 -1 114 105 q0 4 5 60 q5 57 10 116 q5 60 6 74 l-552 0 l1 10 ZM110 727 l778 0 l0 -186 l-20 0 l0 166 l-738 0 l0 -168 l-20 0 l0 188 ZM72 124 l650 0 l0 -20 l-650 0 l0 20 Z" /><glyph glyph-name="" unicode="&#x51b0;" d="M579 805 l20 0 l0 -133 q18 -146 66 -269 q131 108 227 224 l16 -13 q-99 -119 -235 -231 q93 -221 283 -360 l-12 -17 q-268 197 -345 547 l0 -548 q0 -43 -22 -67 q-24 -26 -72 -27 q-38 1 -80 12 l4 18 q41 -9 75 -9 q40 -1 58 20 q17 17 17 53 l0 800 ZM282 570 l200 0 l0 -20 q-13 -176 -83 -330 q-71 -154 -190 -263 l-13 13 q116 108 184 258 q69 150 81 321 l-179 0 l0 21 ZM39 37 q83 148 156 327 l18 -7 q-72 -181 -157 -330 l-17 10 ZM62 699 l17 11 q75 -113 124 -200 l-17 -10 q-49 86 -124 199 Z" /><glyph glyph-name="" unicode="&#x51b3;" d="M326 314 l228 0 q11 67 11 153 l0 139 l-219 0 l0 20 l219 0 l0 180 l20 0 l0 -180 l240 0 l0 -312 l125 0 l0 -20 l-368 0 q54 -133 141 -221 q88 -87 225 -149 l-8 -19 q-143 66 -234 158 q-92 94 -137 223 q-29 -143 -111 -232 q-81 -87 -215 -159 l-10 16 q133 72 212 157 q78 86 105 226 l-224 0 l0 20 ZM805 606 l-220 0 l0 -139 q0 -85 -11 -153 l231 0 l0 292 ZM57 21 q117 156 203 330 l17 -9 q-85 -175 -204 -333 l-16 12 ZM83 686 l15 14 q102 -117 168 -210 l-16 -12 q-32 44 -74 98 q-43 55 -93 110 Z" /><glyph glyph-name="" unicode="&#x51b5;" d="M372 747 l449 0 l0 -376 l-135 0 l0 -332 q-1 -49 21 -71 q22 -21 75 -20 l35 -1 q78 -2 96 89 q7 30 10 50 l20 -3 q-4 -19 -10 -51 q-22 -106 -116 -104 l-35 -1 q-61 0 -88 27 q-27 26 -27 85 l0 332 l-157 0 l0 -41 q1 -154 -60 -256 q-62 -101 -202 -176 l-9 17 q136 74 194 169 q58 97 57 246 l0 41 l-118 0 l0 376 ZM801 728 l-409 0 l0 -337 l409 0 l0 337 ZM59 36 q116 155 203 330 l17 -8 q-86 -178 -204 -334 l-16 12 ZM73 708 l15 13 q100 -115 179 -225 l-16 -11 q-78 109 -178 223 Z" /><glyph glyph-name="" unicode="&#x51b7;" d="M367 297 l481 0 l0 -18 q-45 -79 -100 -148 q-54 -69 -124 -136 q53 -42 102 -85 l-13 -16 q-124 108 -264 206 l12 16 q76 -53 148 -110 q67 65 120 132 q52 66 95 140 l-457 0 l0 19 ZM296 407 q105 77 189 182 q84 105 132 219 l18 -8 q-6 -15 -13 -30 q110 -210 343 -347 l-10 -17 q-231 135 -344 341 q-52 -102 -130 -195 q-78 -92 -173 -162 l-12 17 ZM84 29 q101 143 166 302 l19 -7 q-66 -162 -169 -307 l-16 12 ZM91 702 l15 14 q95 -104 169 -205 l-16 -11 q-73 100 -168 202 ZM539 488 l13 16 q79 -64 139 -123 l-15 -15 q-58 61 -137 122 Z" /><glyph glyph-name="" unicode="&#x51c6;" d="M242 387 q97 107 152 215 q55 107 86 204 l19 -7 q-31 -95 -84 -201 l483 0 l0 -20 l-220 0 l0 -178 l200 0 l0 -20 l-200 0 l0 -173 l200 0 l0 -20 l-200 0 l0 -187 l253 0 l0 -20 l-524 0 l0 -84 l-20 0 l0 651 q-51 -88 -130 -174 l-15 14 ZM407 187 l0 -187 l251 0 l0 187 l-251 0 ZM407 578 l0 -178 l251 0 l0 178 l-251 0 ZM407 380 l0 -173 l251 0 l0 173 l-251 0 ZM57 -15 q98 161 172 341 l18 -8 q-74 -181 -172 -343 l-18 10 ZM71 713 l15 13 q36 -44 72 -95 q37 -52 80 -117 l-17 -11 q-82 127 -150 210 ZM578 768 l12 16 q35 -26 75 -57 q39 -32 71 -61 l-13 -15 q-32 28 -71 60 q-39 31 -74 57 Z" /><glyph glyph-name="" unicode="&#x51cf;" d="M558 -65 q119 89 191 208 q-49 189 -60 463 l-353 0 l0 -221 q2 -141 -23 -259 q-24 -117 -99 -226 l-17 11 q73 106 97 221 q24 115 22 253 l0 241 l372 0 q-3 87 -2 179 l19 -1 q-1 -92 2 -178 l232 0 l0 -20 l-231 0 q11 -258 55 -439 q71 126 107 308 l20 -4 q-40 -196 -120 -331 q19 -68 42 -119 q14 -31 34 -57 q19 -26 39 -28 q13 -1 31 31 q18 32 31 107 l19 -3 q-11 -72 -33 -113 q-21 -40 -48 -41 q-32 3 -55 35 q-24 32 -36 61 q-20 45 -38 104 q-73 -113 -186 -198 l-12 16 ZM419 315 l193 0 l0 -244 l-193 0 l0 244 ZM593 296 l-154 0 l0 -205 l154 0 l0 205 ZM50 21 q91 165 160 338 l19 -7 q-70 -174 -161 -340 l-18 9 ZM77 703 l17 10 q77 -124 131 -234 l-18 -10 q-54 110 -130 234 ZM388 467 l253 0 l0 -20 l-253 0 l0 20 ZM768 769 l14 14 q51 -49 95 -107 l-16 -12 q-44 56 -93 105 Z" /><glyph glyph-name="" unicode="&#x51e0;" d="M291 751 l372 0 l0 -678 q-2 -119 103 -116 l58 -1 q47 0 72 23 q25 21 36 73 q10 48 14 79 l20 -3 q-5 -32 -14 -80 q-13 -58 -43 -85 q-31 -26 -85 -26 l-58 -1 q-124 0 -123 137 l0 658 l-332 0 l0 -289 q1 -204 -57 -332 q-57 -128 -186 -207 l-11 16 q126 77 180 199 q55 123 54 324 l0 309 Z" /><glyph glyph-name="" unicode="&#x51e1;" d="M675 752 l0 -687 q-1 -64 24 -89 q25 -26 86 -25 l39 -1 q51 1 74 27 q23 26 33 74 q8 30 12 64 l3 17 l19 -3 l-2 -17 q-6 -35 -12 -66 q-12 -52 -40 -84 q-28 -31 -87 -32 l-39 -1 q-70 0 -101 33 q-30 32 -29 103 l0 667 l-353 0 l0 -289 q1 -208 -53 -335 q-54 -126 -182 -204 l-11 16 q122 76 175 198 q53 123 52 325 l0 309 l392 0 ZM374 462 l15 14 q103 -110 194 -221 l-15 -13 q-90 112 -194 220 Z" /><glyph glyph-name="" unicode="&#x51ed;" d="M324 556 l292 0 l0 160 q-118 -13 -241 -18 l0 20 q128 5 250 19 q122 14 226 36 l4 -19 q-102 -22 -220 -36 l0 -162 l300 0 l0 -21 l-300 0 l0 -159 l261 0 l0 -20 l-534 0 l0 20 l254 0 l0 159 l-292 0 l0 21 ZM331 226 l354 0 l0 -190 q-2 -93 92 -90 l49 -1 q49 0 73 20 q23 20 34 72 l8 38 l19 -4 l-7 -38 q-13 -59 -42 -84 q-29 -25 -85 -24 l-49 -1 q-112 1 -112 112 l0 169 l-315 0 l0 -62 q-1 -104 -60 -163 q-60 -59 -187 -84 l-4 18 q121 25 176 79 q55 54 56 150 l0 83 ZM47 518 q75 61 133 128 q57 66 115 159 l17 -10 q-46 -74 -91 -131 l0 -369 l-20 0 l0 345 q-63 -73 -142 -138 l-12 16 Z" /><glyph glyph-name="" unicode="&#x51fa;" d="M152 706 l20 0 l0 -304 l315 0 l0 405 l20 0 l0 -405 l316 0 l0 303 l20 0 l0 -323 l-336 0 l0 -419 l337 0 l0 279 l20 0 l0 -346 l-20 0 l0 47 l-714 0 l0 303 l20 0 l0 -283 l337 0 l0 419 l-335 0 l0 324 Z" /><glyph glyph-name="" unicode="&#x51fb;" d="M39 384 l448 0 l0 229 l-354 0 l0 20 l354 0 l0 174 l20 0 l0 -174 l356 0 l0 -20 l-356 0 l0 -229 l449 0 l0 -20 l-449 0 l0 -407 l307 0 l0 276 l19 0 l0 -336 l-19 0 l0 40 l-651 0 l0 290 l19 0 l0 -270 l305 0 l0 407 l-448 0 l0 20 Z" /><glyph glyph-name="" unicode="&#x51fd;" d="M861 548 l21 0 l0 -651 l-21 0 l0 60 l-739 0 l0 591 l20 0 l0 -570 l719 0 l0 570 ZM827 748 l0 -20 l-5 -3 q-156 -95 -301 -170 l0 -395 q0 -51 -26 -76 q-24 -23 -69 -23 q-24 0 -50 5 q-26 5 -40 8 l4 19 q52 -11 86 -11 q37 0 55 17 q20 19 20 61 l0 407 l5 3 q137 70 282 158 l-624 0 l0 20 l663 0 ZM193 148 l204 168 l13 -14 l-204 -169 l-13 15 ZM603 286 l14 16 q83 -76 177 -180 l-15 -14 q-93 105 -176 178 ZM610 394 q91 81 166 164 l15 -13 q-77 -84 -168 -166 l-13 15 ZM227 528 l12 16 q85 -71 163 -146 l-13 -14 q-79 74 -162 144 Z" /><glyph glyph-name="" unicode="&#x5206;" d="M224 392 l537 0 l-22 -361 q-7 -109 -118 -110 q-17 0 -42 3 q-24 3 -43 6 l3 19 q19 -2 42 -5 q23 -3 40 -3 q92 -1 99 91 q0 2 3 50 q3 48 7 113 q3 64 6 115 q3 52 4 62 l-313 0 q-11 -180 -86 -291 q-75 -109 -237 -185 l-9 18 q156 73 229 178 q72 106 84 280 l-184 0 l0 20 ZM607 792 l19 6 q49 -152 129 -254 q80 -101 200 -165 l-9 -17 q-124 65 -207 169 q-82 105 -132 261 ZM56 369 q214 146 309 414 l19 -6 q-97 -276 -317 -425 l-11 17 Z" /><glyph glyph-name="" unicode="&#x5207;" d="M425 702 l479 0 l-21 -644 q-5 -132 -125 -133 q-48 0 -99 10 l3 19 q50 -9 96 -9 q102 0 105 113 q0 5 3 95 q3 90 7 210 q4 119 7 213 q3 94 3 106 l-270 0 q4 -199 -18 -344 q-22 -145 -88 -254 q-66 -109 -194 -201 l-11 15 q125 91 189 197 q64 107 85 249 q21 143 17 338 l-168 0 l0 20 ZM195 806 l20 0 l0 -249 l195 26 l3 -20 l-198 -27 l0 -456 q13 12 59 53 q45 41 86 79 q42 37 45 40 l13 -15 q-4 -3 -52 -47 q-48 -43 -96 -87 q-48 -44 -53 -48 q-2 -3 -9 -15 q-7 -11 -8 -13 l-20 15 q1 1 7 11 q6 10 8 14 l0 467 l-152 -20 l-2 20 l154 20 l0 252 Z" /><glyph glyph-name="" unicode="&#x5212;" d="M56 25 q150 71 260 160 q-49 142 -66 286 l-195 -27 l-3 20 l195 27 q-18 171 -14 310 l20 0 q-4 -138 14 -307 l265 38 l3 -20 l-265 -38 q18 -138 62 -275 q90 78 167 179 l17 -12 q-80 -106 -177 -187 q22 -63 53 -122 q18 -36 51 -70 q32 -35 66 -38 q46 4 72 138 l19 -4 q-9 -56 -30 -103 q-22 -48 -61 -51 q-36 2 -66 30 q-30 27 -48 55 q-19 29 -20 34 q-30 57 -52 118 q-111 -89 -258 -159 l-9 18 ZM859 806 l21 0 l0 -793 q0 -101 -104 -102 q-42 1 -87 12 l4 18 q44 -8 83 -9 q85 -1 83 81 l0 793 ZM663 687 l21 0 l0 -546 l-21 0 l0 546 ZM342 733 l14 15 q34 -28 69 -62 q36 -34 64 -66 l-15 -13 q-28 31 -63 65 q-35 33 -69 61 Z" /><glyph glyph-name="" unicode="&#x5217;" d="M90 261 q84 80 144 195 q61 116 90 252 l-230 0 l0 21 l507 0 l0 -21 l-256 0 q-25 -116 -72 -218 l247 0 l0 -19 q-34 -193 -129 -332 q-95 -139 -262 -239 l-11 17 q170 103 265 247 q-44 32 -87 61 q-43 28 -76 49 l11 17 q33 -21 77 -50 q43 -28 85 -60 q76 124 106 289 l-236 0 q-64 -133 -159 -223 l-14 14 ZM870 806 l20 0 l0 -792 q1 -103 -105 -102 q-39 0 -100 13 l4 18 q59 -10 96 -11 q88 -2 85 82 l0 792 ZM671 692 l20 0 l0 -572 l-20 0 l0 572 Z" /><glyph glyph-name="" unicode="&#x5219;" d="M136 742 l386 0 l0 -563 l-20 0 l0 543 l-347 0 l0 -559 l-19 0 l0 579 ZM864 803 l20 0 l0 -786 q-2 -106 -95 -109 q-39 0 -85 10 l3 18 q46 -7 82 -7 q45 2 61 29 q15 28 14 59 l0 786 ZM318 594 l20 0 l0 -265 q2 -158 -60 -257 q-62 -99 -209 -175 l-10 17 q142 74 202 168 q59 95 57 247 l0 265 ZM675 675 l20 0 l0 -542 l-20 0 l0 542 ZM378 109 l12 16 q120 -86 215 -168 l-13 -16 q-93 82 -214 168 Z" /><glyph glyph-name="" unicode="&#x521b;" d="M147 435 l311 0 l0 -191 q-2 -55 -27 -74 q-26 -18 -57 -17 q-16 0 -37 3 q-22 3 -42 8 l5 20 q19 -5 39 -8 q21 -3 35 -3 q66 0 65 71 l0 171 l-272 0 l0 -375 q0 -93 94 -93 l152 -1 q50 2 72 26 q22 25 29 65 l2 6 q5 20 8 42 l20 -3 q-4 -23 -9 -44 l-1 -5 q-7 -40 -32 -72 q-25 -31 -89 -33 l-152 -1 q-113 2 -114 113 l0 395 ZM848 807 l20 0 l0 -798 q2 -37 -16 -69 q-19 -32 -82 -34 q-31 0 -78 9 l4 19 q45 -8 74 -8 q48 0 63 22 q16 23 15 61 l0 798 ZM37 469 q97 76 172 170 q74 94 110 169 l18 -8 q-10 -21 -24 -46 q133 -114 251 -229 l-14 -14 q-117 114 -248 225 q-43 -71 -108 -146 q-66 -76 -145 -137 l-12 16 ZM647 666 l20 0 l0 -526 l-20 0 l0 526 Z" /><glyph glyph-name="" unicode="&#x521d;" d="M600 522 l3 172 l-176 0 l0 20 l470 0 l-20 -664 q-1 -66 -31 -96 q-29 -31 -94 -31 q-16 0 -43 3 q-27 3 -44 6 l3 19 q17 -2 43 -6 q26 -3 41 -3 q56 0 80 25 q24 26 25 84 l19 643 l-253 0 l-3 -173 q-3 -222 -66 -368 q-63 -146 -205 -259 l-12 14 q137 111 199 254 q61 142 64 360 ZM74 596 l297 0 l0 -19 q-46 -102 -117 -196 l0 -22 q32 -30 62 -60 q54 60 101 130 l17 -10 q-48 -73 -103 -135 q46 -46 89 -90 l-15 -13 q-71 73 -151 152 l0 -439 l-20 0 l0 461 q-82 -100 -179 -171 l-11 15 q96 71 175 170 q79 98 130 207 l-275 0 l0 20 ZM166 779 l14 15 q62 -57 120 -126 l-15 -13 q-57 69 -119 124 Z" /><glyph glyph-name="" unicode="&#x5220;" d="M421 750 l176 0 l0 -361 l72 0 l0 -20 l-72 0 l0 -377 q2 -16 -9 -46 q-11 -29 -61 -32 q-23 0 -53 7 l5 18 q28 -5 48 -5 q52 -2 49 59 l0 376 l-135 0 q0 -152 -14 -264 q-14 -111 -56 -207 l-18 7 q40 94 54 204 q14 111 14 260 l-89 0 l0 -370 q1 -27 -11 -50 q-13 -23 -56 -24 q-21 0 -49 6 l5 19 q24 -6 44 -6 q49 -3 46 56 l0 369 l-132 0 q0 -160 -22 -268 q-21 -107 -71 -201 l-18 8 q48 92 70 198 q21 106 21 263 l-95 0 l0 20 l95 0 l0 361 l173 0 l0 -361 l89 0 l0 361 ZM441 731 l0 -342 l135 0 l0 342 l-135 0 ZM179 731 l0 -342 l132 0 l0 342 l-132 0 ZM857 805 l20 0 l0 -793 q0 -102 -97 -101 q-24 0 -50 5 q-26 4 -43 8 l4 18 q55 -10 89 -11 q79 -2 77 81 l0 793 ZM718 690 l20 0 l0 -571 l-20 0 l0 571 Z" /><glyph glyph-name="" unicode="&#x5224;" d="M66 238 l243 0 q15 79 17 182 l-212 0 l0 20 l212 0 l0 362 l20 0 l0 -362 l204 0 l0 -20 l-204 0 q-1 -101 -17 -182 l233 0 l0 -20 l-237 0 q-21 -99 -72 -176 q-51 -76 -136 -146 l-12 14 q81 67 129 141 q49 74 70 167 l-238 0 l0 20 ZM860 806 l20 0 l0 -793 q1 -102 -105 -102 q-40 1 -100 13 l4 18 q59 -10 96 -10 q87 -3 85 81 l0 793 ZM663 691 l20 0 l0 -572 l-20 0 l0 572 ZM112 696 l16 12 q59 -76 116 -166 l-16 -11 q-57 89 -116 165 ZM422 543 q59 81 108 162 l16 -10 q-48 -81 -108 -163 l-16 11 Z" /><glyph glyph-name="" unicode="&#x5229;" d="M848 800 l20 0 l0 -792 q-1 -102 -104 -103 q-34 0 -87 10 l4 19 q51 -9 83 -8 q85 -1 84 82 l0 792 ZM66 491 l250 0 l0 216 q-107 -12 -196 -15 l-1 19 q91 4 200 17 q109 13 196 34 l5 -20 q-82 -20 -184 -32 l0 -219 l210 0 l0 -20 l-210 0 l0 -574 l-20 0 l0 534 q-34 -93 -97 -187 q-64 -95 -152 -182 l-14 14 q95 94 161 196 q66 101 99 199 l-247 0 l0 20 ZM380 322 l15 13 q77 -89 153 -192 l-16 -12 q-75 102 -152 191 ZM649 671 l20 0 l0 -545 l-20 0 l0 545 Z" /><glyph glyph-name="" unicode="&#x522b;" d="M141 745 l379 0 l0 -265 l-379 0 l0 265 ZM501 726 l-340 0 l0 -227 l340 0 l0 227 ZM284 427 l20 1 q0 -64 -6 -120 l233 0 l-19 -288 q-6 -103 -110 -102 q-34 0 -76 6 l3 19 q40 -5 73 -5 q87 -3 90 84 l18 267 l-214 0 q-16 -128 -72 -223 q-56 -95 -157 -169 l-12 15 q96 72 151 163 q54 92 70 214 l-203 0 l0 19 l206 0 q6 56 5 119 ZM870 798 l20 0 l0 -792 q0 -101 -102 -101 q-43 -1 -89 8 l4 19 q44 -8 85 -7 q83 -1 82 81 l0 792 ZM677 659 l20 0 l0 -507 l-20 0 l0 507 Z" /><glyph glyph-name="" unicode="&#x5230;" d="M124 444 q42 47 102 128 q59 80 104 148 l-245 0 l0 20 l496 0 l0 -20 l-227 0 q-42 -66 -101 -145 q-58 -79 -104 -133 q18 1 85 7 q67 5 142 12 q74 6 113 9 q-46 63 -99 129 l15 13 q93 -116 163 -217 l-16 -12 q-23 33 -49 68 l-370 -30 q-13 -3 -26 -9 l-10 17 q24 11 27 15 ZM78 -33 l247 51 l0 202 l-205 0 l0 20 l205 0 l0 138 l20 0 l0 -138 l196 0 l0 -20 l-196 0 l0 -198 l224 46 l4 -20 l-491 -101 l-4 20 ZM869 803 l20 0 l0 -793 q1 -102 -104 -101 q-26 0 -55 4 q-28 5 -46 8 l4 19 q59 -11 97 -11 q86 -2 84 81 l0 793 ZM672 688 l20 0 l0 -571 l-20 0 l0 571 Z" /><glyph glyph-name="" unicode="&#x5236;" d="M334 806 l21 0 l0 -165 l213 0 l0 -21 l-213 0 l0 -164 l241 0 l0 -20 l-241 0 l0 -152 l204 0 l0 -223 q-1 -75 -79 -75 q-28 0 -62 7 l4 18 q33 -5 58 -6 q60 0 59 56 l0 203 l-184 0 l0 -367 l-21 0 l0 367 l-188 0 l0 -295 l-20 0 l0 315 l208 0 l0 152 l-286 0 l0 20 l286 0 l0 164 l-174 0 q-27 -54 -64 -106 l-16 12 q82 116 113 236 l19 -5 q-15 -59 -42 -116 l164 0 l0 165 ZM856 805 l21 0 l0 -798 q-3 -92 -92 -96 q-16 0 -43 3 q-27 3 -46 8 l4 18 q19 -3 44 -6 q25 -3 41 -2 q70 1 71 75 l0 798 ZM688 670 l20 0 l0 -542 l-20 0 l0 542 Z" /><glyph glyph-name="" unicode="&#x5237;" d="M355 750 l210 0 l0 -207 l-400 0 l0 -60 q0 -188 -27 -326 q-27 -138 -83 -236 l-17 8 q55 97 81 233 q26 136 26 321 l0 267 l210 0 ZM545 731 l-380 0 l0 -168 l380 0 l0 168 ZM398 499 l20 0 l0 -115 l161 0 l0 -290 q1 -86 -76 -86 q-27 0 -61 9 l4 19 q33 -8 57 -8 q25 -1 40 12 q16 14 16 54 l0 270 l-141 0 l0 -467 l-20 0 l0 467 l-145 0 l0 -367 l-20 0 l0 387 l165 0 l0 115 ZM864 806 l21 0 l0 -793 q0 -102 -97 -102 q-37 0 -93 13 l4 18 q54 -10 89 -11 q79 -2 76 82 l0 793 ZM702 693 l21 0 l0 -572 l-21 0 l0 572 Z" /><glyph glyph-name="" unicode="&#x523a;" d="M125 525 l200 0 l0 132 l-258 0 l0 21 l258 0 l0 125 l20 0 l0 -125 l240 0 l0 -21 l-240 0 l0 -132 l206 0 l0 -172 q-1 -75 -69 -76 q-35 1 -59 7 l4 19 q31 -6 55 -6 q49 0 49 56 l0 152 l-186 0 l0 -612 l-20 0 l0 411 q-83 -173 -265 -315 l-13 14 q198 155 278 342 l0 160 l-180 0 l0 -237 l-20 0 l0 257 ZM852 804 l19 0 l0 -803 q-1 -101 -99 -103 q-19 -1 -45 2 q-25 4 -48 9 l5 18 q21 -4 46 -6 q24 -3 42 -3 q80 1 80 83 l0 803 ZM681 669 l20 0 l0 -513 l-20 0 l0 513 ZM372 215 l13 16 q117 -97 206 -186 l-14 -14 q-89 88 -205 184 Z" /><glyph glyph-name="" unicode="&#x523b;" d="M137 395 q57 62 106 126 q48 64 73 101 l-254 0 l0 20 l550 0 l0 -20 l-271 0 q-20 -29 -69 -95 q-50 -66 -111 -135 q13 1 62 5 q50 3 101 6 q51 4 69 5 q54 65 96 138 l17 -9 q-72 -127 -180 -230 q-108 -103 -242 -173 l-9 18 q173 90 300 234 l-225 -14 q-11 0 -32 -7 l-5 20 q25 8 24 10 ZM862 806 l20 0 l0 -793 q1 -102 -105 -101 q-43 0 -100 13 l5 18 q54 -10 95 -11 q88 -2 85 81 l0 793 ZM81 -62 q149 71 270 179 q120 107 206 245 l16 -11 q-70 -113 -162 -205 q106 -89 191 -173 l-13 -15 q-86 84 -193 173 q-134 -129 -306 -210 l-9 17 ZM673 691 l20 0 l0 -572 l-20 0 l0 572 ZM270 796 l12 15 q77 -63 134 -117 l-14 -15 q-57 53 -132 117 Z" /><glyph glyph-name="" unicode="&#x524d;" d="M156 504 l317 0 l0 -506 q0 -45 -20 -66 q-20 -21 -61 -21 q-26 0 -65 8 l4 18 q37 -5 61 -6 q33 0 46 14 q15 16 15 54 l0 114 l-276 0 l0 -216 l-21 0 l0 607 ZM177 299 l0 -166 l276 0 l0 166 l-276 0 ZM177 484 l0 -165 l276 0 l0 165 l-276 0 ZM47 638 l533 0 q82 77 154 169 l16 -12 q-65 -84 -140 -157 l332 0 l0 -20 l-895 0 l0 20 ZM820 533 l20 0 l0 -517 q1 -105 -94 -105 q-27 -2 -74 10 l4 18 q44 -9 70 -8 q76 -1 74 85 l0 517 ZM633 478 l20 0 l0 -396 l-20 0 l0 396 ZM236 790 l13 15 q79 -68 145 -135 l-15 -14 q-65 66 -143 134 Z" /><glyph glyph-name="" unicode="&#x5269;" d="M75 594 l259 0 l0 133 q-95 -6 -209 -6 l0 20 q119 1 219 7 q100 7 207 21 l3 -20 q-104 -13 -201 -21 l0 -134 l268 0 l0 -19 l-268 0 l0 -679 l-19 0 l0 360 q-41 -75 -113 -148 q-71 -73 -163 -135 l-11 16 q96 67 171 145 q75 77 116 153 l0 288 l-259 0 l0 19 ZM861 806 l20 0 l0 -793 q1 -103 -96 -102 q-35 0 -91 13 l4 18 q53 -10 87 -11 q79 -2 76 82 l0 793 ZM453 498 l20 0 l0 -118 q30 15 66 38 q36 23 68 50 l13 -16 q-35 -29 -75 -54 q-40 -25 -72 -40 l0 -52 q0 -37 16 -49 q15 -12 44 -11 l13 0 q54 -2 61 52 l8 45 l19 -2 l-7 -47 q-12 -69 -81 -67 l-13 0 q-29 -2 -54 13 q-24 15 -26 66 l0 192 ZM702 691 l20 0 l0 -572 l-20 0 l0 572 ZM79 436 l131 0 l0 64 l20 0 l0 -269 l-20 0 l0 54 l-129 -64 l-9 18 l138 68 l0 110 l-131 0 l0 19 ZM373 190 l12 16 q52 -41 108 -87 q57 -47 125 -104 l-13 -16 q-68 58 -125 105 q-56 46 -107 86 Z" /><glyph glyph-name="" unicode="&#x526a;" d="M490 600 l0 -276 q1 -77 -74 -77 q-30 0 -65 8 l5 20 q32 -8 60 -8 q56 -2 54 57 l0 36 l-280 0 l0 -115 l-20 0 l0 355 l320 0 ZM107 -76 q135 37 213 92 q78 56 111 139 l-311 0 l0 21 l721 0 l-14 -138 q-8 -98 -109 -98 q-31 0 -87 10 l3 18 q55 -8 84 -8 q83 -1 90 80 q0 2 2 26 q3 24 5 51 q3 27 4 38 l-367 0 q-33 -91 -116 -152 q-82 -60 -224 -98 l-5 19 ZM190 580 l0 -90 l280 0 l0 90 l-280 0 ZM190 470 l0 -89 l280 0 l0 89 l-280 0 ZM53 697 l525 0 q80 54 147 114 l13 -15 q-57 -51 -124 -99 l328 0 l0 -20 l-889 0 l0 20 ZM819 615 l21 0 l0 -282 q0 -88 -90 -88 q-42 1 -82 11 l5 19 q38 -9 77 -10 q71 -2 69 68 l0 282 ZM638 576 l21 0 l0 -215 l-21 0 l0 215 ZM265 797 l11 16 q66 -45 131 -97 l-12 -15 q-65 50 -130 96 Z" /><glyph glyph-name="" unicode="&#x526f;" d="M115 345 l446 0 l0 -386 l-19 0 l0 43 l-407 0 l0 -75 l-20 0 l0 418 ZM159 630 l364 0 l0 -179 l-364 0 l0 179 ZM504 610 l-326 0 l0 -139 l326 0 l0 139 ZM348 164 l0 -142 l194 0 l0 142 l-194 0 ZM135 164 l0 -142 l193 0 l0 142 l-193 0 ZM542 325 l-194 0 l0 -141 l194 0 l0 141 ZM135 325 l0 -141 l193 0 l0 141 l-193 0 ZM861 806 l20 0 l0 -793 q1 -102 -105 -101 q-39 0 -100 13 l4 18 q59 -10 96 -11 q88 -2 85 81 l0 793 ZM679 691 l20 0 l0 -571 l-20 0 l0 571 ZM75 751 l528 0 l0 -20 l-528 0 l0 20 Z" /><glyph glyph-name="" unicode="&#x5272;" d="M178 -82 l0 263 l379 -1 l0 -245 l-20 0 l0 44 l-338 0 l0 -61 l-21 0 ZM199 161 l0 -162 l338 0 l0 161 q-9 0 -58 0 q-49 0 -111 1 q-62 0 -111 0 q-49 0 -58 0 ZM168 430 l194 0 l0 101 l-182 0 l0 20 l182 0 l0 74 l20 0 l0 -74 l183 0 l0 -20 l-183 0 l0 -101 l197 0 l0 -20 l-197 0 l0 -104 l242 0 l0 -20 l-242 0 l0 -59 l-20 0 l0 59 l-278 0 l0 20 l278 0 l0 104 l-194 0 l0 20 ZM873 807 l20 0 l0 -793 q0 -102 -100 -101 q-26 0 -53 5 q-28 4 -42 7 l4 19 q55 -11 91 -11 q82 -3 80 81 l0 793 ZM101 696 l521 0 l0 -111 l-20 0 l0 91 l-481 0 l0 -99 l-20 0 l0 119 ZM702 685 l21 0 l0 -572 l-21 0 l0 572 ZM306 791 l12 15 q57 -46 99 -86 l-13 -15 q-42 40 -98 86 Z" /><glyph glyph-name="" unicode="&#x529b;" d="M93 -86 q156 92 239 249 q83 157 105 408 l-307 0 l0 20 l309 0 q8 99 9 214 l20 0 q0 -112 -8 -214 l410 0 l-21 -513 q-5 -152 -155 -150 q-55 0 -114 11 l4 18 q57 -9 110 -9 q131 -2 135 131 l21 492 l-392 0 q-17 -225 -97 -395 q-80 -170 -257 -279 l-11 17 Z" /><glyph glyph-name="" unicode="&#x529e;" d="M68 -89 q190 115 274 275 q84 160 100 380 l-307 0 l0 19 l309 0 q9 100 8 217 l21 0 q-1 -120 -9 -217 l294 0 l-28 -520 q-5 -133 -145 -131 q-31 0 -65 4 q-34 4 -56 9 l5 19 q21 -4 53 -8 q33 -4 63 -4 q123 -3 125 112 q0 4 4 75 q4 72 9 167 q5 96 9 171 q3 75 4 87 l-273 0 q-18 -190 -70 -317 q-45 -111 -122 -199 q-77 -86 -193 -156 l-10 17 ZM54 158 q102 119 153 274 l20 -7 q-54 -157 -157 -280 l-16 13 ZM787 396 l16 12 q42 -57 81 -117 q38 -60 77 -128 l-17 -10 q-39 68 -77 128 q-38 59 -80 115 Z" /><glyph glyph-name="" unicode="&#x529f;" d="M448 592 l178 0 l5 212 l20 0 l-6 -212 l257 0 l-19 -542 q-4 -125 -137 -124 q-38 -1 -83 8 l4 19 q42 -8 78 -7 q116 -2 118 104 l18 523 l-237 0 q-7 -235 -71 -397 q-64 -163 -196 -278 l-13 13 q128 113 191 273 q63 159 70 389 l-177 0 l0 19 ZM49 35 l190 65 l0 567 l-180 0 l0 19 l372 0 l0 -19 l-172 0 l0 -560 l204 71 l7 -19 l-414 -143 l-7 19 Z" /><glyph glyph-name="" unicode="&#x52a0;" d="M599 698 l289 0 l0 -767 l-20 0 l0 80 l-249 0 l0 -80 l-20 0 l0 767 ZM619 678 l0 -647 l249 0 l0 647 l-249 0 ZM233 803 l19 0 l2 -140 l0 -11 l211 0 l-16 -572 q-1 -127 -115 -125 q-17 0 -39 3 q-23 3 -43 7 l3 18 q19 -2 41 -5 q23 -3 38 -3 q49 -1 72 24 q22 25 24 81 l14 552 l-190 0 q1 -78 -11 -208 q-12 -130 -51 -268 q-39 -139 -120 -241 l-16 12 q80 101 118 237 q39 136 50 264 q11 128 10 204 l-161 0 l0 20 l161 0 l0 11 l-1 140 Z" /><glyph glyph-name="" unicode="&#x52a1;" d="M133 535 q160 112 249 276 l17 -10 q-27 -51 -62 -97 l456 0 l0 -18 q-108 -128 -250 -217 q170 -91 418 -133 l-3 -20 q-258 44 -435 141 q-189 -114 -474 -181 l-5 19 q276 66 459 173 q-118 69 -219 172 q-63 -68 -140 -122 l-11 17 ZM764 684 l-442 0 q-12 -15 -25 -29 q103 -105 226 -175 q137 85 241 204 ZM155 249 l290 0 q12 54 17 124 l21 -1 q-6 -69 -18 -123 l334 0 l-17 -211 q-8 -123 -126 -121 q-18 0 -50 4 q-31 4 -57 10 l4 19 q25 -5 55 -10 q31 -4 48 -4 q53 0 77 25 q25 24 29 79 q0 3 4 45 q3 41 7 86 q4 45 5 58 l-317 0 q-34 -136 -117 -209 q-83 -73 -220 -124 l-7 18 q133 50 212 118 q79 69 111 197 l-285 0 l0 20 Z" /><glyph glyph-name="" unicode="&#x52a8;" d="M671 808 l21 0 l0 -185 l0 -32 l226 0 l-25 -555 q-4 -105 -110 -106 q-48 0 -85 7 l3 19 q37 -6 82 -6 q88 -1 91 87 l23 534 l-206 0 q-10 -433 -207 -671 l-16 12 q193 234 202 659 l-165 0 l0 20 l166 0 l0 32 l0 185 ZM121 48 q22 46 51 114 q28 69 56 140 q27 70 46 124 l-221 0 l0 20 l449 0 l0 -20 l-207 0 q-18 -52 -45 -122 q-27 -70 -56 -139 q-28 -68 -51 -117 q12 2 78 12 q65 9 135 20 q71 11 100 15 q-48 113 -94 213 l18 9 q61 -126 121 -274 l-19 -8 l-18 42 l-328 -51 q2 2 -26 -11 l-10 16 q14 9 21 17 ZM119 701 l346 0 l0 -20 l-346 0 l0 20 Z" /><glyph glyph-name="" unicode="&#x52a9;" d="M42 15 l97 24 l0 708 l290 0 l0 -635 l80 20 l5 -19 l-467 -118 l-5 20 ZM158 727 l0 -210 l251 0 l0 210 l-251 0 ZM158 282 l0 -238 l251 63 l0 175 l-251 0 ZM158 497 l0 -194 l251 0 l0 194 l-251 0 ZM653 806 l20 0 l0 -142 q0 -30 -1 -59 l234 0 l-23 -552 q-3 -122 -120 -121 q-17 0 -47 4 q-29 4 -47 7 l3 19 q19 -2 47 -6 q29 -4 44 -4 q98 -3 100 102 q0 4 3 80 q3 76 8 178 q4 102 7 182 q3 80 4 91 l-214 0 q-15 -463 -247 -686 l-14 13 q225 218 241 673 l-161 0 l0 20 l162 0 q1 29 1 59 l0 142 Z" /><glyph glyph-name="" unicode="&#x52fe;" d="M70 395 q185 197 280 411 l18 -8 q-35 -78 -80 -152 l577 1 l-17 -567 q-3 -73 -44 -112 q-41 -40 -113 -41 q-70 0 -141 17 l5 18 q68 -14 136 -14 q129 2 137 133 q0 4 2 83 q3 78 6 183 q3 104 5 186 q3 82 3 94 q-12 0 -95 0 q-83 0 -190 0 q-107 -1 -190 -1 q-83 0 -93 0 q-79 -125 -191 -245 l-15 14 ZM205 153 q30 39 75 107 q45 68 90 140 q44 71 70 121 l18 -9 q-26 -48 -68 -116 q-41 -69 -85 -136 q-44 -67 -76 -109 q17 1 96 8 q79 6 166 12 q86 7 125 10 q-61 92 -129 177 l16 12 q49 -62 94 -126 q45 -63 90 -136 l-17 -10 q-21 33 -41 64 l-414 -32 q-10 -2 -27 -10 l-9 19 q27 13 26 14 Z" /><glyph glyph-name="" unicode="&#x5305;" d="M363 -74 q-137 -1 -136 137 l0 428 l372 0 l0 -258 l-352 0 l0 -170 q-3 -120 116 -117 l399 -1 q58 -1 96 19 q38 21 58 81 q11 34 18 73 l20 -4 q-7 -40 -19 -75 q-23 -68 -66 -92 q-44 -23 -107 -21 l-399 0 ZM579 470 l-332 0 l0 -217 l332 0 l0 217 ZM59 440 q95 90 160 180 q64 89 104 188 l19 -7 q-26 -64 -62 -123 l556 0 l-6 -414 q-1 -86 -37 -114 q-35 -28 -97 -26 q-20 0 -49 4 q-29 4 -55 9 l4 19 q25 -5 53 -8 q27 -3 47 -3 q56 -3 85 21 q29 24 30 98 l5 393 l-548 0 q-73 -117 -195 -231 l-14 14 Z" /><glyph glyph-name="" unicode="&#x5316;" d="M367 186 q106 63 208 145 l0 464 l20 0 l0 -447 q175 145 310 323 l16 -12 q-141 -186 -326 -337 l0 -249 q0 -66 27 -95 q26 -30 86 -29 l95 -1 q38 -1 67 21 q28 22 45 85 l13 62 l20 -4 l-14 -63 q-28 -123 -131 -120 l-95 -1 q-135 -2 -133 145 l0 233 q-97 -77 -198 -138 l-10 18 ZM40 310 q102 116 170 234 q67 119 113 258 l18 -6 q-40 -124 -97 -231 l0 -669 l-20 0 l0 633 q-68 -118 -169 -233 l-15 14 Z" /><glyph glyph-name="" unicode="&#x5317;" d="M608 803 l20 0 l0 -383 q169 99 294 201 l13 -15 q-131 -107 -307 -209 l0 -351 q-2 -98 92 -96 l95 -1 q89 0 109 87 l14 57 l19 -4 l-13 -58 q-26 -101 -129 -101 l-95 -1 q-113 0 -112 117 l0 757 ZM65 521 l292 0 l0 285 l20 0 l0 -909 l-20 0 l0 234 l-298 -108 l-7 18 l305 112 l0 348 l-292 0 l0 20 Z" /><glyph glyph-name="" unicode="&#x5339;" d="M146 738 l755 0 l0 -20 l-244 0 l0 -470 q0 -50 20 -67 q20 -16 58 -15 l52 0 q71 -1 82 72 l9 44 l2 18 l20 -3 l-3 -18 l-8 -45 q-15 -88 -102 -88 l-52 0 q-101 -3 -98 102 l0 470 l-193 0 l0 -215 q1 -128 -37 -214 q-39 -87 -130 -163 l-12 16 q87 73 123 155 q37 83 36 206 l0 215 l-258 0 l0 -760 l764 0 l0 -20 l-784 0 l0 800 Z" /><glyph glyph-name="" unicode="&#x533a;" d="M155 747 l727 0 l0 -20 l-707 0 l0 -772 l748 0 l0 -21 l-768 0 l0 813 ZM292 103 q148 111 265 245 q-112 113 -231 222 l13 15 q118 -109 232 -222 q100 117 172 246 l18 -9 q-74 -132 -176 -251 q120 -122 233 -247 l-15 -13 q-112 124 -231 244 q-119 -134 -268 -246 l-12 16 Z" /><glyph glyph-name="" unicode="&#x533b;" d="M138 741 l759 0 l0 -20 l-740 0 q0 -9 0 -85 q0 -76 0 -186 q1 -110 1 -220 q0 -110 0 -187 q0 -75 0 -84 l765 -1 l0 -20 l-784 0 l-1 803 ZM239 337 l304 0 q20 82 20 190 l-180 0 q-41 -66 -95 -124 l-15 14 q111 118 159 257 l19 -6 q-21 -61 -55 -120 l415 0 l0 -21 l-228 0 q0 -108 -19 -190 l313 0 l0 -20 l-318 0 q-24 -88 -87 -155 q-62 -67 -180 -122 l-9 18 q111 51 171 114 q60 63 84 145 l-299 0 l0 20 ZM601 220 l12 17 q46 -33 113 -84 q67 -51 122 -98 l-13 -15 q-55 46 -121 97 q-67 50 -113 83 Z" /><glyph glyph-name="" unicode="&#x5341;" d="M491 806 l19 0 l0 -413 l444 0 l0 -20 l-444 0 l0 -476 l-19 0 l0 476 l-445 0 l0 20 l445 0 l0 413 Z" /><glyph glyph-name="" unicode="&#x5347;" d="M686 807 l19 0 l0 -412 l245 0 l0 -20 l-245 0 l0 -478 l-19 0 l0 478 l-317 0 q-2 -161 -56 -273 q-54 -110 -176 -203 l-13 15 q118 90 171 198 q52 107 54 263 l-292 0 l0 20 l292 0 l0 307 q-99 -11 -210 -14 l0 20 q251 8 430 57 l5 -20 q-93 -26 -205 -40 l0 -310 l317 0 l0 412 Z" /><glyph glyph-name="" unicode="&#x534a;" d="M57 198 l431 0 l0 207 l-362 0 l0 20 l362 0 l0 380 l20 0 l0 -380 l356 0 l0 -20 l-356 0 l0 -207 l437 0 l0 -20 l-437 0 l0 -282 l-20 0 l0 282 l-431 0 l0 20 ZM641 516 q88 88 169 189 l15 -12 q-80 -104 -170 -191 l-14 14 ZM173 692 l14 14 q100 -95 177 -185 l-15 -13 q-76 90 -176 184 Z" /><glyph glyph-name="" unicode="&#x534e;" d="M549 804 l20 0 l0 -255 q164 92 287 206 l13 -15 q-130 -121 -300 -214 l0 -96 q0 -57 21 -82 q22 -26 72 -25 l99 0 q84 -2 104 90 q3 12 7 29 q4 17 6 28 l19 -3 q-2 -11 -6 -29 q-3 -18 -6 -30 q-25 -106 -124 -105 l-99 0 q-115 -2 -113 127 l0 85 q-86 -45 -173 -79 l-8 18 q91 35 181 84 l0 266 ZM59 475 q98 72 173 162 q75 90 117 166 l17 -9 q-38 -67 -100 -147 l0 -389 l-20 0 l0 364 q-75 -91 -175 -164 l-12 17 ZM491 288 l19 0 l0 -133 l450 0 l0 -20 l-450 0 l0 -241 l-19 0 l0 241 l-444 0 l0 20 l444 0 l0 133 Z" /><glyph glyph-name="" unicode="&#x534f;" d="M360 584 l209 0 l5 221 l20 0 l-5 -221 l223 0 l-22 -533 q-3 -124 -121 -122 q-16 0 -44 3 q-27 3 -45 6 l4 19 q16 -2 43 -5 q27 -3 42 -3 q99 -3 101 103 q0 4 3 77 q3 74 7 172 q4 98 7 175 q3 77 4 89 l-203 0 q-2 -109 -22 -227 q-20 -119 -75 -233 q-54 -113 -158 -208 l-14 13 q120 107 181 266 q61 160 68 389 l-208 0 l0 19 ZM184 807 l20 0 l0 -268 l129 0 l0 -20 l-129 0 l0 -623 l-20 0 l0 623 l-143 0 l0 20 l143 0 l0 268 ZM285 179 q78 106 122 234 l19 -6 q-45 -132 -125 -240 l-16 12 ZM837 396 l17 11 q67 -101 122 -217 l-18 -8 q-54 113 -121 214 Z" /><glyph glyph-name="" unicode="&#x5353;" d="M474 806 l20 0 l0 -116 l410 0 l0 -20 l-410 0 l0 -120 l8 0 l307 0 l0 -329 l-297 0 l0 -130 l450 0 l0 -20 l-450 0 l0 -175 l-20 0 l0 175 l-450 0 l0 20 l450 0 l0 130 l-297 0 l0 329 l279 0 l0 256 ZM789 531 l-575 0 l0 -136 l575 0 l0 136 ZM789 241 l0 135 l-575 0 l0 -135 l575 0 Z" /><glyph glyph-name="" unicode="&#x5355;" d="M53 119 l433 0 l0 148 l-313 0 l0 360 l382 0 q97 92 173 180 l16 -12 q-73 -84 -161 -168 l236 0 l0 -360 l-313 0 l0 -148 l437 0 l0 -20 l-437 0 l0 -203 l-20 0 l0 203 l-433 0 l0 20 ZM799 607 l-293 0 l0 -150 l293 0 l0 150 ZM506 287 l293 0 l0 150 l-293 0 l0 -150 ZM194 607 l0 -150 l292 0 l0 150 l-292 0 ZM194 437 l0 -150 l292 0 l0 150 l-292 0 ZM235 791 l12 15 q92 -69 170 -145 l-13 -14 q-78 74 -169 144 Z" /><glyph glyph-name="" unicode="&#x5356;" d="M493 806 l20 0 l0 -105 l340 0 l0 -20 l-340 0 l0 -144 l402 1 l0 -17 l-68 -166 l-19 8 q1 2 15 37 q15 34 30 71 q15 37 19 47 q-11 0 -94 0 q-83 0 -201 0 q-119 0 -236 -1 q-117 0 -195 0 q-79 0 -82 0 l0 20 l409 0 l0 144 l-321 0 l0 20 l321 0 l0 105 ZM578 372 l7 89 l19 -2 l-6 -88 q-9 -124 -58 -214 l402 0 l0 -20 l-413 0 q-106 -171 -395 -233 l-4 19 q233 52 340 169 q20 21 35 45 l-425 0 l0 20 l438 0 q51 88 60 215 ZM598 57 l8 17 q137 -67 283 -153 l-10 -18 q-146 87 -281 154 ZM174 329 l8 19 q125 -56 221 -107 l-10 -18 q-95 51 -219 106 ZM253 445 l9 17 q105 -52 200 -105 l-10 -18 q-93 54 -199 106 Z" /><glyph glyph-name="" unicode="&#x5357;" d="M127 501 l352 0 l13 161 l-440 0 l0 21 l442 0 l11 123 l19 -2 l-10 -121 l439 0 l0 -21 l-441 0 l-13 -161 l384 0 l0 -471 q1 -24 -5 -49 q-5 -26 -23 -45 q-26 -25 -75 -25 q-25 0 -50 4 q-26 3 -45 7 l4 18 q18 -2 43 -5 q24 -3 48 -4 q41 0 60 19 q15 16 19 38 q4 21 3 42 l0 451 l-715 0 l0 -584 l-20 0 l0 604 ZM257 293 l292 0 l115 142 l15 -12 l-105 -130 l175 0 l0 -20 l-233 0 l0 -140 l256 0 l0 -20 l-256 0 l0 -193 l-21 0 l0 193 l-260 0 l0 20 l260 0 l0 140 l-238 0 l0 20 ZM325 423 l14 14 l103 -107 l-15 -14 l-102 107 Z" /><glyph glyph-name="" unicode="&#x535a;" d="M869 574 l0 -359 l-19 0 l0 70 l-216 0 l0 -62 l-20 0 l0 62 l-216 0 l0 -70 l-19 0 l0 359 l235 0 l0 104 l-289 0 l0 20 l289 0 l0 109 l20 0 l0 -109 l294 0 l0 -20 l-294 0 l0 -104 l235 0 ZM634 421 l0 -115 l216 0 l0 115 l-216 0 ZM398 421 l0 -115 l216 0 l0 115 l-216 0 ZM850 554 l-216 0 l0 -113 l216 0 l0 113 ZM398 554 l0 -113 l216 0 l0 113 l-216 0 ZM178 807 l20 0 l0 -309 l118 0 l0 -20 l-118 0 l0 -581 l-20 0 l0 581 l-129 0 l0 20 l129 0 l0 309 ZM777 225 l20 0 l0 -76 l168 0 l0 -20 l-168 0 l0 -140 q-2 -81 -86 -84 q-20 0 -41 3 q-20 3 -33 6 l3 18 q44 -6 71 -6 q65 0 66 64 l0 139 l-472 0 l0 20 l472 0 l0 76 ZM441 86 l13 16 q60 -55 111 -112 l-15 -14 q-50 57 -109 110 ZM726 784 l12 16 q45 -34 90 -76 l-13 -14 q-44 41 -89 74 Z" /><glyph glyph-name="" unicode="&#x5360;" d="M167 372 l283 0 l0 434 l20 0 l0 -160 l450 0 l0 -20 l-450 0 l0 -254 l347 0 l0 -476 l-20 0 l0 84 l-611 0 l0 -84 l-19 0 l0 476 ZM186 352 l0 -353 l611 0 l0 353 l-611 0 Z" /><glyph glyph-name="" unicode="&#x5361;" d="M463 807 l19 0 l0 -156 l342 0 l0 -19 l-342 0 l0 -217 l467 0 l0 -20 l-901 0 l0 20 l415 0 l0 392 ZM462 364 l20 0 l0 -467 l-20 0 l0 467 ZM528 260 l10 18 q153 -89 290 -184 l-11 -16 q-137 93 -289 182 Z" /><glyph glyph-name="" unicode="&#x5370;" d="M562 711 l326 0 l0 -562 q1 -104 -104 -104 q-33 1 -72 10 l4 19 q39 -9 68 -9 q86 -2 84 84 l0 542 l-286 0 l0 -796 l-20 0 l0 816 ZM139 727 q96 7 173 20 q78 13 145 35 l6 -19 q-68 -22 -144 -35 q-76 -14 -170 -21 l0 -269 l290 0 l0 -21 l-290 0 l0 -367 q9 3 53 18 q45 16 100 35 q55 20 96 34 q41 14 43 15 l6 -19 q-2 -1 -47 -16 q-44 -16 -102 -36 q-59 -21 -103 -37 q-45 -15 -48 -16 q-6 -4 -16 -15 l-15 14 q9 9 14 18 l0 681 l9 1 Z" /><glyph glyph-name="" unicode="&#x5373;" d="M310 56 l-145 -72 q-11 -7 -20 -17 l-14 13 q11 15 12 18 l0 752 l167 0 l168 0 l0 -407 l-315 0 l0 -339 l147 75 l123 61 q-41 55 -87 116 l15 12 q46 -60 86 -114 q40 -53 83 -114 l-17 -12 q-35 50 -68 96 l-135 -68 ZM458 363 l0 174 l-295 0 l0 -174 l295 0 ZM458 730 l-295 0 l0 -173 l295 0 l0 173 ZM610 749 l288 0 l0 -590 q1 -55 -23 -81 q-28 -31 -90 -31 q-29 0 -91 12 l4 20 q59 -12 87 -13 q54 1 74 25 q19 21 19 68 l0 571 l-248 0 l0 -834 l-20 0 l0 853 Z" /><glyph glyph-name="" unicode="&#x5374;" d="M47 390 l268 0 l0 218 l-200 0 l0 19 l200 0 l0 180 l21 0 l0 -180 l218 0 l0 -19 l-218 0 l0 -218 l250 0 l0 -20 l-251 0 q-25 -51 -61 -117 q-36 -67 -72 -128 q-36 -61 -60 -98 q17 1 89 8 q72 7 150 14 q79 8 117 11 q-48 82 -100 160 l16 12 q81 -120 149 -244 l-18 -10 q-18 32 -36 64 l-381 -36 q-9 -3 -21 -6 l-11 16 q22 10 22 12 q22 30 57 90 q36 61 73 129 q37 68 64 123 l-265 0 l0 20 ZM634 732 l272 0 l0 -583 q0 -62 -24 -90 q-25 -27 -81 -27 q-27 -2 -69 7 l4 19 q39 -7 65 -6 q41 -2 63 18 q22 20 22 79 l0 563 l-231 0 l0 -816 l-21 0 l0 836 Z" /><glyph glyph-name="" unicode="&#x5377;" d="M61 430 l331 0 q35 61 58 134 l-332 0 l0 19 l338 0 q29 99 38 221 l20 -2 q-9 -121 -37 -219 l399 0 l0 -19 l-404 0 q-22 -72 -57 -134 l518 0 l0 -20 l-318 0 q64 -86 144 -143 q79 -58 196 -105 l-8 -18 q-102 40 -190 100 q-88 61 -166 166 l-187 0 q-111 -186 -357 -298 l-9 18 q233 106 342 280 l-319 0 l0 20 ZM301 264 l405 0 l0 -106 q3 -96 -90 -94 q-36 0 -73 8 l4 20 q35 -8 69 -8 q39 -1 55 16 q17 17 16 58 l0 87 l-366 0 l0 -216 q-3 -93 91 -90 l290 -1 q80 0 104 74 l13 42 l19 -6 q-1 -3 -6 -21 q-6 -19 -7 -22 q-29 -86 -123 -85 l-290 -1 q-112 0 -111 110 l0 235 ZM633 658 q81 54 152 114 l13 -15 q-72 -61 -154 -116 l-11 17 ZM203 754 l11 17 q75 -51 145 -110 l-13 -16 q-69 58 -143 109 Z" /><glyph glyph-name="" unicode="&#x5378;" d="M69 553 q57 63 95 125 q39 62 63 130 l19 -7 q-20 -57 -50 -108 l344 0 l0 -20 l-197 0 l0 -204 l211 0 l0 -20 l-211 0 l0 -179 l194 0 l0 -20 l-194 0 l0 -218 l209 32 l3 -19 l-503 -78 l-3 20 l100 15 l0 313 l20 0 l0 -310 l154 24 l0 420 l-271 0 l0 20 l271 0 l0 204 l-138 0 q-41 -66 -102 -133 l-14 13 ZM628 721 l271 0 l0 -575 q0 -61 -24 -88 q-25 -28 -80 -28 q-28 -1 -69 7 l3 20 q40 -7 66 -7 q41 -1 63 18 q21 20 21 78 l0 555 l-231 0 l0 -804 l-20 0 l0 824 Z" /><glyph glyph-name="" unicode="&#x5382;" d="M199 726 l737 0 l0 -20 l-717 0 l0 -259 q2 -127 -29 -277 q-31 -149 -123 -267 l-15 11 q89 116 119 262 q30 146 28 271 l0 279 Z" /><glyph glyph-name="" unicode="&#x5386;" d="M551 648 l20 0 q0 -111 -8 -201 l316 0 l-22 -391 q-9 -127 -129 -129 q-18 0 -49 3 q-31 4 -50 7 l4 19 q19 -2 48 -6 q30 -3 47 -3 q102 1 108 110 q0 3 3 55 q3 52 7 122 q4 70 7 126 q3 56 4 66 l-296 0 q-19 -184 -88 -307 q-70 -121 -205 -220 l-12 15 q89 67 147 137 q57 71 89 156 q36 91 49 219 l-233 0 l0 21 l235 0 q9 87 8 201 ZM182 752 l745 0 l0 -20 l-724 0 l0 -253 q2 -177 -27 -314 q-30 -138 -119 -260 l-16 11 q87 120 115 255 q28 134 26 308 l0 273 Z" /><glyph glyph-name="" unicode="&#x538b;" d="M190 -30 l371 0 l0 386 l-269 0 l0 20 l269 0 l0 271 l20 0 l0 -271 l299 0 l0 -20 l-299 0 l0 -386 l366 0 l0 -19 l-757 0 l0 19 ZM166 727 l739 0 l0 -20 l-719 0 l0 -230 q2 -169 -26 -308 q-27 -139 -110 -265 l-17 9 q81 125 108 261 q27 137 25 303 l0 250 ZM686 247 l15 13 q81 -89 150 -179 l-16 -12 q-68 91 -149 178 Z" /><glyph glyph-name="" unicode="&#x539a;" d="M585 639 l259 0 l0 -265 l-517 0 l0 265 l258 0 ZM824 394 l0 102 l-477 0 l0 -102 l477 0 ZM824 619 l-477 0 l0 -102 l477 0 l0 102 ZM225 114 l391 0 l0 34 l5 3 q55 27 110 56 q55 29 104 56 l-520 0 l0 20 l561 0 l0 -19 l-5 -3 q-50 -30 -112 -62 q-61 -33 -123 -63 l0 -22 l328 0 l0 -20 l-328 0 l0 -104 q-2 -56 -31 -73 q-30 -17 -65 -15 q-36 0 -84 11 l4 19 q47 -9 80 -9 q79 -4 76 68 l0 103 l-391 0 l0 20 ZM171 751 l771 0 l0 -20 l-751 0 l0 -270 q3 -136 -22 -276 q-24 -139 -108 -272 l-16 10 q81 130 105 267 q24 137 21 271 l0 290 Z" /><glyph glyph-name="" unicode="&#x539f;" d="M523 567 l319 0 l0 -344 l-244 0 l0 -226 q-1 -59 -29 -78 q-27 -18 -65 -17 q-31 0 -71 10 l4 18 q39 -7 66 -7 q38 -1 56 14 q19 15 19 61 l0 225 l-256 0 l0 344 l176 0 q52 70 84 133 l18 -9 q-30 -59 -77 -124 ZM822 243 l0 142 l-480 0 l0 -142 l480 0 ZM822 547 l-480 0 l0 -142 l480 0 l0 142 ZM163 759 l746 0 l0 -20 l-727 0 l0 -302 q3 -144 -19 -275 q-22 -132 -107 -257 l-16 11 q82 122 104 251 q22 129 19 270 l0 322 ZM230 -57 q52 44 100 95 q47 53 81 104 l17 -12 q-35 -52 -84 -105 q-49 -53 -101 -97 l-13 15 ZM734 125 l14 14 q108 -100 185 -188 l-14 -15 q-78 90 -185 189 Z" /><glyph glyph-name="" unicode="&#x53bb;" d="M51 354 l440 0 l0 251 l-341 0 l0 20 l341 0 l0 181 l19 0 l0 -181 l342 0 l0 -20 l-342 0 l0 -251 l441 0 l0 -20 l-448 0 q-66 -93 -149 -189 q-82 -97 -159 -171 q15 1 92 6 q77 5 179 11 q102 6 191 11 q89 6 128 8 q-69 83 -151 174 l15 13 q130 -141 228 -270 l-16 -14 q-29 40 -60 79 l-624 -40 q-16 -2 -31 -7 l-6 18 q25 10 28 13 q76 71 159 167 q83 96 151 191 l-427 0 l0 20 Z" /><glyph glyph-name="" unicode="&#x53c2;" d="M38 218 q97 37 188 100 q90 64 156 139 l-323 0 l0 20 l340 0 q41 50 62 100 l18 -7 q-20 -46 -55 -93 l500 0 l0 -20 l-313 0 q71 -75 150 -126 q80 -51 194 -93 l-7 -19 q-121 45 -205 100 q-84 55 -158 138 l-177 0 q-67 -82 -162 -150 q-96 -68 -201 -107 l-7 18 ZM219 610 q27 21 72 59 q45 38 90 79 q45 41 73 70 l14 -14 q-40 -41 -107 -100 q-67 -60 -115 -98 q14 0 76 3 q61 2 144 4 q82 3 155 5 q74 3 112 4 q-60 53 -128 108 l13 16 q114 -94 206 -179 l-14 -14 q-27 24 -56 51 l-526 -19 q-12 0 -28 -5 l-5 19 q13 4 24 11 ZM184 -84 q187 19 341 82 q154 62 266 166 l14 -15 q-115 -105 -272 -169 q-157 -64 -347 -84 l-2 20 ZM268 64 q110 33 209 82 q99 49 177 110 l12 -16 q-79 -62 -179 -112 q-101 -50 -213 -83 l-6 19 ZM238 190 q94 35 175 79 q80 44 138 95 l13 -16 q-60 -51 -142 -96 q-82 -45 -178 -80 l-6 18 Z" /><glyph glyph-name="" unicode="&#x53c8;" d="M129 719 l689 0 l0 -17 q-88 -280 -291 -483 q162 -162 419 -268 l-7 -20 q-261 109 -427 274 q-179 -173 -437 -281 l-7 17 q253 107 430 278 q-90 94 -158 213 q-69 118 -120 267 l-91 0 l0 20 ZM796 699 l-555 0 q98 -285 272 -466 q197 198 283 466 Z" /><glyph glyph-name="" unicode="&#x53ca;" d="M149 761 l610 0 l0 -18 q-1 -2 -21 -44 q-19 -42 -46 -99 q-26 -56 -48 -101 q-21 -45 -25 -54 l212 0 l0 -18 q-58 -194 -212 -331 q132 -99 323 -163 l-7 -20 q-195 66 -331 170 q-141 -119 -352 -187 l-7 17 q205 68 343 183 q-175 142 -246 345 q-27 -139 -99 -250 q-72 -112 -195 -208 l-13 14 q144 113 216 247 q73 134 87 311 l15 186 l-204 0 l0 20 ZM358 554 q-3 -41 -10 -80 q73 -221 255 -366 q150 132 206 317 l-213 0 l0 17 q1 2 21 45 q20 42 46 99 q27 57 48 102 q21 45 25 53 l-363 0 l-15 -187 Z" /><glyph glyph-name="" unicode="&#x53cc;" d="M527 666 l20 3 q41 -259 153 -443 q131 204 166 482 l-384 0 l0 20 l405 0 l0 -18 q-36 -292 -175 -503 q95 -149 247 -261 l-12 -17 q-150 113 -247 261 q-114 -165 -288 -271 l-11 16 q174 106 287 274 q-119 191 -161 457 ZM102 505 l15 14 q92 -104 180 -212 q82 178 99 392 l-305 0 l0 20 l325 0 l0 -19 q-17 -224 -104 -411 q73 -92 143 -185 l-16 -12 q-68 90 -137 177 q-90 -181 -242 -313 l-13 14 q153 134 241 316 q-91 113 -186 219 Z" /><glyph glyph-name="" unicode="&#x53cd;" d="M233 723 q129 -3 292 7 q163 10 310 39 l4 -20 q-145 -28 -306 -38 q-161 -11 -290 -8 l0 -213 l0 -24 l582 1 l0 -18 q-62 -207 -221 -342 q148 -120 350 -179 l-6 -20 q-208 62 -360 186 q-144 -114 -384 -193 l-6 18 q233 77 374 189 q-163 140 -237 338 l-93 0 q-1 -160 -37 -291 q-35 -131 -133 -244 l-15 12 q102 119 135 255 q34 136 31 312 l0 234 l10 -1 ZM803 447 q-12 0 -88 0 q-76 0 -176 0 q-100 -1 -184 -1 q74 -189 233 -325 q154 129 215 326 Z" /><glyph glyph-name="" unicode="&#x53d1;" d="M56 27 q124 99 209 224 q84 126 137 289 l-293 0 l2 18 q59 101 97 192 l19 -8 q-37 -87 -93 -182 l274 0 q35 110 57 243 l20 -3 q-22 -130 -55 -240 l487 0 l0 -20 l-494 0 q-26 -85 -62 -160 l435 0 l0 -21 q-68 -165 -199 -277 q152 -101 342 -148 l-5 -20 q-197 50 -353 154 q-142 -113 -358 -172 l-6 18 q208 59 346 167 q-146 103 -231 241 q-99 -179 -263 -311 l-13 16 ZM773 359 l-422 0 q-5 -8 -8 -16 q85 -144 236 -249 q127 106 194 265 ZM665 747 l12 15 q90 -72 153 -136 l-13 -14 q-64 63 -152 135 Z" /><glyph glyph-name="" unicode="&#x53d6;" d="M44 46 l103 27 l0 654 l-107 0 l0 20 l487 0 l0 -20 l-95 0 l0 -580 l100 26 l5 -19 l-105 -28 l0 -229 l-20 0 l0 224 l-363 -95 l-5 20 ZM517 698 l376 0 l0 -18 q-37 -307 -158 -504 q76 -128 212 -248 l-14 -16 q-135 119 -211 244 q-96 -147 -253 -251 l-11 16 q158 106 253 255 q-65 113 -98 237 q-33 124 -48 265 l-48 0 l0 20 ZM873 678 l-288 0 q15 -135 46 -254 q32 -120 93 -228 q114 189 149 482 ZM167 319 l0 -241 l245 64 l0 177 l-245 0 ZM167 727 l0 -185 l245 0 l0 185 l-245 0 ZM167 522 l0 -183 l245 0 l0 183 l-245 0 Z" /><glyph glyph-name="" unicode="&#x53d7;" d="M210 305 l557 0 l0 -19 q-76 -132 -223 -226 q156 -93 393 -136 l-4 -21 q-245 46 -407 146 q-185 -110 -455 -154 l-3 18 q261 44 439 147 q-132 88 -229 225 l-68 0 l0 20 ZM743 285 l-440 0 q95 -132 222 -214 q144 89 218 214 ZM97 492 l547 0 q39 41 88 100 q49 60 77 97 l15 -12 q-25 -33 -69 -87 q-44 -54 -84 -98 l245 0 l0 -163 l-20 0 l0 143 l-780 0 l0 -143 l-19 0 l0 163 ZM116 733 q175 -5 378 6 q203 10 376 33 l3 -20 q-174 -23 -378 -33 q-204 -11 -379 -7 l0 21 ZM194 634 l14 14 q55 -57 104 -113 l-15 -14 q-48 57 -103 113 ZM450 662 l16 12 q48 -62 87 -117 l-16 -11 q-39 54 -87 116 Z" /><glyph glyph-name="" unicode="&#x53d8;" d="M162 300 l614 0 l0 -18 q-88 -132 -245 -224 q161 -85 408 -133 l-5 -21 q-257 51 -424 143 q-177 -96 -442 -148 l-4 19 q254 51 425 141 q-146 87 -241 221 l-86 0 l0 20 ZM751 280 l-477 0 q93 -127 236 -210 q154 87 241 210 ZM77 681 l850 0 l0 -20 l-301 0 l0 -287 l-20 0 l0 287 l-210 0 l0 -287 l-20 0 l0 287 l-299 0 l0 20 ZM80 400 q116 81 201 170 l14 -14 q-86 -90 -203 -172 l-12 16 ZM708 549 l13 15 q54 -41 101 -80 q48 -40 95 -85 l-14 -14 q-47 44 -93 84 q-47 39 -102 80 ZM410 795 l12 15 q39 -29 69 -53 q31 -24 60 -48 l-13 -16 q-29 25 -59 48 q-31 24 -69 54 Z" /><glyph glyph-name="" unicode="&#x53e3;" d="M170 695 l664 0 l0 -760 l-20 0 l0 93 l-624 0 l0 -93 l-20 0 l0 760 ZM190 675 l0 -627 l624 0 l0 627 l-624 0 Z" /><glyph glyph-name="" unicode="&#x53e6;" d="M519 750 l294 0 l0 -302 l-589 0 l0 302 l295 0 ZM793 730 l-549 0 l0 -262 l549 0 l0 262 ZM134 294 l308 0 q10 60 13 133 l20 0 q-3 -73 -13 -133 l396 0 l-19 -230 q-1 -18 -8 -48 q-8 -30 -34 -55 q-26 -25 -81 -27 q-21 0 -51 4 q-30 3 -50 7 l4 19 q20 -3 48 -6 q29 -4 48 -4 q97 -2 104 112 q0 3 4 49 q4 47 8 96 q4 50 5 63 l-378 0 q-27 -139 -111 -228 q-84 -89 -239 -148 l-7 18 q147 58 229 142 q81 85 108 216 l-304 0 l0 20 Z" /><glyph glyph-name="" unicode="&#x53ea;" d="M493 740 l309 0 l0 -449 l-619 0 l0 449 l310 0 ZM783 720 l-580 0 l0 -409 l580 0 l0 409 ZM61 -78 q171 121 281 263 l16 -13 q-112 -142 -285 -267 l-12 17 ZM630 166 l13 16 q147 -125 281 -257 l-14 -16 q-132 134 -280 257 Z" /><glyph glyph-name="" unicode="&#x53eb;" d="M131 730 l270 0 l0 -663 l-20 0 l0 62 l-230 0 l0 -103 l-20 0 l0 704 ZM151 710 l0 -561 l230 0 l0 561 l-230 0 ZM548 751 l21 0 l0 -607 q9 2 65 14 q56 13 117 27 q62 14 87 20 l0 601 l20 0 l0 -909 l-20 0 l0 287 q-29 -7 -92 -21 q-62 -14 -117 -26 q-55 -12 -60 -13 q-5 -5 -14 -19 l-17 11 q11 19 10 21 l0 614 Z" /><glyph glyph-name="" unicode="&#x53ef;" d="M551 511 l0 -347 l-350 0 l0 347 l350 0 ZM531 491 l-310 0 l0 -307 l310 0 l0 307 ZM45 722 l911 0 l0 -20 l-177 0 l0 -662 q1 -128 -129 -127 q-41 0 -101 12 l4 18 q58 -10 97 -10 q112 -2 110 107 l0 662 l-715 0 l0 20 Z" /><glyph glyph-name="" unicode="&#x53f0;" d="M204 296 l594 0 l0 -401 l-20 0 l0 74 l-554 0 l0 -74 l-20 0 l0 401 ZM224 276 l0 -287 l554 0 l0 287 l-554 0 ZM134 453 q41 33 108 99 q67 67 132 137 q65 70 101 116 l15 -13 q-35 -43 -95 -109 q-59 -65 -123 -129 q-63 -64 -109 -103 q16 1 98 5 q81 3 189 8 q108 5 205 9 q97 4 145 6 q-53 54 -107 107 q-55 52 -102 95 l14 15 q69 -63 149 -142 q80 -79 145 -149 l-15 -14 q-30 32 -65 68 l-676 -29 q-10 0 -23 -5 l-9 18 q19 7 23 10 Z" /><glyph glyph-name="" unicode="&#x53f2;" d="M222 253 l16 12 q81 -115 182 -184 q74 90 80 257 l-336 0 l0 288 l337 0 l0 180 l19 0 l0 -180 l328 0 l0 -288 l-330 0 q-8 -176 -81 -267 q106 -66 244 -90 q163 -30 272 -42 l-3 -21 q-108 14 -273 43 q-144 26 -253 94 l-10 -10 q-50 -50 -138 -85 q-87 -36 -230 -62 l-3 19 q134 26 223 61 q89 35 141 88 q-103 70 -185 187 ZM500 357 q1 18 1 39 l0 210 l-318 0 l0 -249 l317 0 ZM828 606 l-308 0 l0 -210 q0 -21 -1 -39 l309 0 l0 249 Z" /><glyph glyph-name="" unicode="&#x53f3;" d="M287 348 l556 0 l0 -451 l-21 0 l0 80 l-515 0 l0 -80 l-20 0 l0 451 ZM307 328 l0 -331 l515 0 l0 331 l-515 0 ZM35 123 q128 97 222 219 q93 122 149 264 l-334 0 l0 20 l341 0 q33 88 50 181 l19 -3 q-16 -92 -48 -178 l522 0 l0 -20 l-529 0 q-57 -147 -153 -273 q-96 -127 -227 -226 l-12 16 Z" /><glyph glyph-name="" unicode="&#x53f7;" d="M500 753 l270 0 l0 -233 l-540 0 l0 233 l270 0 ZM750 734 l-500 0 l0 -194 l500 0 l0 194 ZM46 383 l907 0 l0 -20 l-615 0 q-5 -16 -15 -48 q-10 -32 -20 -62 q-10 -30 -13 -41 l505 0 l-27 -169 q-11 -73 -51 -106 q-40 -32 -119 -31 q-76 1 -141 15 l4 18 q64 -11 137 -13 q71 -1 106 27 q35 28 44 94 q0 2 5 33 q5 31 11 66 q5 34 7 46 l-509 0 l4 13 l51 158 l-271 0 l0 20 Z" /><glyph glyph-name="" unicode="&#x53f8;" d="M386 369 l227 0 l0 -278 l-453 0 l0 278 l226 0 ZM593 348 l-412 0 l0 -236 l412 0 l0 236 ZM124 746 l724 0 l0 -702 q-1 -128 -121 -131 q-47 0 -103 11 l4 18 q54 -9 99 -9 q100 1 100 111 l0 682 l-703 0 l0 20 ZM76 550 l652 0 l0 -20 l-652 0 l0 20 Z" /><glyph glyph-name="" unicode="&#x5404;" d="M225 248 l568 0 l0 -352 l-20 0 l0 57 l-528 0 l0 -57 l-20 0 l0 352 ZM245 229 l0 -257 l528 0 l0 257 l-528 0 ZM133 534 q72 48 136 120 q64 71 107 152 l17 -9 q-23 -44 -53 -86 l453 0 l0 -17 q-103 -138 -258 -235 q92 -55 198 -92 q106 -37 233 -59 l-4 -20 q-131 23 -241 62 q-110 39 -205 97 q-115 -70 -236 -118 q-122 -48 -233 -74 l-5 20 q275 69 455 184 q-112 72 -216 178 q-65 -72 -137 -120 l-11 17 ZM766 691 l-441 0 q-15 -19 -31 -39 q107 -109 222 -181 q170 112 250 220 Z" /><glyph glyph-name="" unicode="&#x5408;" d="M227 279 l558 0 l0 -382 l-20 0 l0 74 l-519 0 l0 -74 l-19 0 l0 382 ZM246 259 l0 -268 l519 0 l0 268 l-519 0 ZM46 402 q150 70 278 182 q127 111 190 227 l18 -9 q-9 -17 -19 -32 q92 -116 203 -199 q110 -83 247 -139 l-7 -18 q-138 56 -249 139 q-112 83 -205 199 q-73 -108 -192 -206 q-119 -99 -256 -162 l-8 18 ZM264 464 l482 0 l0 -20 l-482 0 l0 20 Z" /><glyph glyph-name="" unicode="&#x540c;" d="M503 373 l170 0 l0 -272 l-341 0 l0 272 l171 0 ZM652 353 l-299 0 l0 -232 l299 0 l0 232 ZM132 742 l741 0 l0 -720 q0 -56 -29 -86 q-29 -28 -80 -27 q-54 1 -95 10 l4 18 q18 -2 43 -5 q24 -3 48 -3 q44 0 66 21 q24 24 23 72 l0 700 l-701 0 l0 -828 l-20 0 l0 848 ZM269 562 l463 0 l0 -20 l-463 0 l0 20 Z" /><glyph glyph-name="" unicode="&#x540d;" d="M318 506 l12 17 q94 -66 178 -127 q193 119 326 274 l-452 0 q-99 -106 -231 -195 l-11 17 q101 68 181 145 q79 76 146 171 l17 -12 q-40 -57 -85 -106 l464 0 l0 -18 q-208 -247 -549 -402 l551 0 l0 -374 l-19 0 l0 63 l-536 0 l0 -63 l-20 0 l0 363 q-111 -48 -233 -85 l-5 19 q244 74 438 192 q-80 58 -172 121 ZM310 250 l0 -271 l536 0 l0 271 l-536 0 Z" /><glyph glyph-name="" unicode="&#x540e;" d="M330 299 l500 0 l0 -402 l-20 0 l0 79 l-460 0 l0 -79 l-20 0 l0 402 ZM350 279 l0 -282 l460 0 l0 282 l-460 0 ZM199 719 q140 2 314 13 q174 11 326 35 l3 -20 q-151 -23 -322 -34 q-172 -12 -311 -13 l0 -191 l747 0 l0 -21 l-747 0 l0 -23 q3 -185 -26 -314 q-28 -129 -117 -245 l-16 11 q86 114 114 241 q27 126 25 307 l0 254 l10 0 Z" /><glyph glyph-name="" unicode="&#x5411;" d="M340 429 l334 0 l0 -297 l-334 0 l0 297 ZM654 408 l-294 0 l0 -256 l294 0 l0 256 ZM142 621 l207 0 q72 92 123 183 l17 -9 q-49 -87 -114 -174 l497 0 l0 -580 q0 -64 -33 -95 q-31 -31 -91 -31 q-46 0 -88 8 l3 19 q42 -7 85 -7 q52 0 77 24 q27 27 27 82 l0 559 l-690 0 l0 -702 l-20 0 l0 723 Z" /><glyph glyph-name="" unicode="&#x5426;" d="M808 276 l0 -382 l-20 0 l0 77 l-560 0 l0 -77 l-20 0 l0 382 l600 0 ZM228 255 l0 -264 l560 0 l0 264 l-560 0 ZM60 361 q157 60 283 150 q126 90 201 195 l-452 0 l0 21 l817 0 l0 -21 l-342 0 q-30 -45 -71 -89 l12 0 l0 -279 l-20 0 l0 270 q-79 -81 -187 -149 q-108 -68 -234 -117 l-7 19 ZM592 536 l8 18 q179 -81 345 -179 l-11 -17 q-164 97 -342 178 Z" /><glyph glyph-name="" unicode="&#x5427;" d="M581 -61 q-138 -3 -135 141 l0 670 l218 0 l219 0 l0 -397 l-416 0 l0 -273 q-1 -65 26 -93 q26 -28 88 -27 l208 -1 q91 1 112 89 l16 70 l20 -4 q-1 -4 -8 -35 q-7 -31 -8 -36 q-27 -103 -132 -104 l-208 0 ZM112 739 l218 0 l0 -678 l-21 0 l0 58 l-176 0 l0 -89 l-21 0 l0 709 ZM133 719 l0 -579 l176 0 l0 579 l-176 0 ZM862 730 l-188 0 l0 -357 l188 0 l0 357 ZM467 730 l0 -357 l187 0 l0 357 l-187 0 Z" /><glyph glyph-name="" unicode="&#x542b;" d="M789 210 l0 -313 l-20 0 l0 61 l-551 0 l0 -61 l-19 0 l0 313 l590 0 ZM218 189 l0 -210 l551 0 l0 210 l-551 0 ZM46 462 q147 64 270 157 q123 93 192 195 l16 -11 q-9 -13 -18 -26 q87 -98 202 -175 q116 -77 248 -122 l-7 -19 q-133 45 -250 123 q-117 78 -205 177 q-75 -93 -191 -177 q-116 -83 -249 -141 l-8 19 ZM777 440 l0 -18 l-4 -3 q-119 -95 -267 -182 l-10 17 q135 79 245 166 l-554 0 l0 20 l590 0 ZM424 588 l11 17 q74 -52 132 -105 l-13 -14 q-59 52 -130 102 Z" /><glyph glyph-name="" unicode="&#x542c;" d="M111 722 l242 0 l0 -649 l-20 0 l0 56 l-201 0 l0 -86 l-21 0 l0 679 ZM132 702 l0 -553 l201 0 l0 553 l-201 0 ZM494 721 q92 3 201 14 q108 12 185 29 l4 -19 q-76 -18 -181 -29 q-106 -11 -198 -14 l0 -255 l451 0 l0 -20 l-175 0 l0 -533 l-21 0 l0 533 l-255 0 l0 -13 q2 -156 -28 -273 q-30 -118 -122 -222 l-16 12 q90 101 119 216 q29 115 27 267 l0 307 l9 0 Z" /><glyph glyph-name="" unicode="&#x542f;" d="M317 273 l541 0 l0 -376 l-20 0 l0 69 l-501 0 l0 -69 l-20 0 l0 376 ZM186 681 l663 0 l0 -235 l-642 0 l0 -35 q2 -146 -28 -266 q-30 -120 -121 -238 l-16 11 q89 116 118 232 q28 115 26 261 l0 270 ZM337 253 l0 -267 l501 0 l0 267 l-501 0 ZM829 661 l-623 0 q0 -15 0 -78 q0 -63 1 -117 l622 0 l0 195 ZM427 797 l12 16 q77 -55 144 -108 l-13 -16 q-65 53 -143 108 Z" /><glyph glyph-name="" unicode="&#x5438;" d="M378 749 l443 0 l0 -17 q-1 -2 -17 -45 q-16 -42 -38 -99 q-21 -57 -38 -102 q-17 -46 -20 -53 l176 0 l0 -17 q-51 -200 -164 -329 q98 -96 231 -156 l-8 -19 q-135 63 -236 161 q-107 -114 -277 -185 l-8 17 q167 70 271 182 q-133 137 -188 322 q-24 -165 -90 -286 q-67 -121 -184 -215 l-13 15 q143 115 210 275 q67 159 72 396 l3 136 l-125 0 l0 19 ZM521 594 q-3 -78 -10 -145 q55 -203 194 -347 q107 123 157 311 l-176 0 l0 18 q1 2 17 44 q16 43 37 100 q21 56 38 102 q17 45 20 53 l-274 0 l-3 -136 ZM87 719 l224 0 l0 -600 l-20 0 l0 46 l-183 0 l0 -88 l-21 0 l0 642 ZM108 700 l0 -515 l183 0 l0 515 l-183 0 Z" /><glyph glyph-name="" unicode="&#x544a;" d="M202 246 l605 0 l0 -350 l-21 0 l0 64 l-564 0 l0 -64 l-20 0 l0 350 ZM222 226 l0 -246 l564 0 l0 246 l-564 0 ZM510 805 l20 0 l0 -168 l329 0 l0 -20 l-329 0 l0 -197 l433 0 l0 -20 l-919 0 l0 20 l466 0 l0 197 l-284 0 q-41 -70 -95 -132 l-15 13 q105 121 158 269 l19 -7 q-22 -64 -55 -123 l272 0 l0 168 Z" /><glyph glyph-name="" unicode="&#x5468;" d="M337 285 l333 0 l0 -215 l-333 0 l0 215 ZM650 265 l-292 0 l0 -175 l292 0 l0 175 ZM165 752 l683 0 l0 -726 q-2 -67 -34 -90 q-31 -24 -68 -22 q-17 0 -42 3 q-26 2 -51 7 l4 18 q23 -3 48 -5 q25 -2 41 -2 q82 -1 82 91 l0 706 l-643 0 l0 -346 q1 -109 -6 -191 q-7 -81 -30 -152 q-24 -70 -72 -148 l-17 9 q47 77 69 145 q23 68 30 148 q7 80 6 189 l0 366 ZM253 426 l240 0 l0 132 l-202 0 l0 20 l202 0 l0 99 l20 0 l0 -99 l203 0 l0 -20 l-203 0 l0 -132 l240 0 l0 -20 l-500 0 l0 20 Z" /><glyph glyph-name="" unicode="&#x5473;" d="M119 715 l212 0 l0 -663 l-20 0 l0 61 l-172 0 l0 -102 l-20 0 l0 704 ZM139 696 l0 -563 l172 0 l0 563 l-172 0 ZM321 -10 q105 82 184 188 q78 106 115 206 l-242 0 l0 20 l259 0 l0 208 l-202 0 l0 20 l202 0 l0 175 l20 0 l0 -175 l203 0 l0 -20 l-203 0 l0 -208 l261 0 l0 -20 l-246 0 q48 -114 119 -208 q70 -93 171 -170 l-11 -16 q-210 157 -294 394 l0 -488 l-20 0 l0 488 l-2 0 q-35 -112 -114 -219 q-79 -107 -188 -191 l-12 16 Z" /><glyph glyph-name="" unicode="&#x547c;" d="M104 731 l219 0 l0 -665 l-20 0 l0 62 l-180 0 l0 -102 l-19 0 l0 705 ZM123 711 l0 -563 l180 0 l0 563 l-180 0 ZM370 312 l278 0 l0 412 q-119 -10 -238 -12 l-1 20 q252 5 485 44 l3 -20 q-110 -19 -229 -30 l0 -414 l283 0 l0 -19 l-283 0 l0 -281 q2 -101 -105 -100 q-19 0 -46 3 q-28 4 -52 9 l4 18 q23 -4 50 -7 q26 -3 44 -3 q88 -2 85 80 l0 281 l-278 0 l0 19 ZM746 422 q72 85 143 190 l17 -11 q-72 -107 -145 -192 l-15 13 ZM408 603 l16 13 q65 -81 141 -193 l-16 -12 q-76 112 -141 192 Z" /><glyph glyph-name="" unicode="&#x548c;" d="M579 712 l323 0 l0 -762 l-19 0 l0 72 l-284 0 l0 -72 l-20 0 l0 762 ZM599 692 l0 -650 l284 0 l0 650 l-284 0 ZM71 498 l229 0 l0 217 q-104 -14 -188 -17 l-1 19 q82 4 181 17 q98 13 178 34 l5 -20 q-70 -18 -155 -31 l0 -219 l187 0 l0 -20 l-187 0 l0 -580 l-20 0 l0 531 q-34 -88 -92 -178 q-57 -90 -135 -175 l-15 13 q86 94 147 193 q60 100 90 196 l-224 0 l0 20 ZM349 322 l15 13 q69 -71 133 -155 l-16 -12 q-64 82 -132 154 Z" /><glyph glyph-name="" unicode="&#x5496;" d="M687 688 l212 0 l0 -767 l-20 0 l0 80 l-172 0 l0 -80 l-20 0 l0 767 ZM101 710 l184 0 l0 -664 l-20 0 l0 62 l-144 0 l0 -103 l-20 0 l0 705 ZM707 668 l0 -647 l172 0 l0 647 l-172 0 ZM121 690 l0 -562 l144 0 l0 562 l-144 0 ZM422 545 l1 63 l-107 0 l0 20 l108 0 l3 165 l20 0 l-3 -165 l150 0 l-13 -561 q-2 -120 -92 -118 q-13 0 -34 3 q-20 3 -37 7 l5 18 q15 -3 35 -5 q19 -3 31 -3 q31 -2 51 19 q19 19 21 79 q0 4 2 82 q1 77 4 181 q2 104 4 185 q2 82 2 93 l-130 0 l-1 -63 q0 -188 -30 -346 q-30 -157 -114 -292 l-16 10 q81 132 111 287 q29 156 29 341 Z" /><glyph glyph-name="" unicode="&#x54a8;" d="M212 234 l580 0 l0 -341 l-20 0 l0 69 l-540 0 l0 -69 l-20 0 l0 341 ZM232 214 l0 -232 l540 0 l0 232 l-540 0 ZM290 300 q145 44 218 117 q72 73 82 186 l20 -2 q-2 -18 -5 -34 q71 -192 327 -258 l-5 -19 q-248 64 -330 244 q-35 -113 -119 -169 q-84 -57 -182 -84 l-6 19 ZM351 546 q50 59 87 121 q37 63 67 137 l18 -8 q-23 -58 -51 -109 l411 0 l0 -18 l-64 -135 l-18 9 q1 2 14 29 q13 27 27 57 q14 30 18 39 l-398 0 q-40 -70 -96 -135 l-15 13 ZM71 303 l210 200 l14 -14 l-211 -201 l-13 15 ZM90 738 l14 15 q92 -78 174 -163 l-14 -13 q-81 83 -174 161 Z" /><glyph glyph-name="" unicode="&#x54c1;" d="M505 751 l251 0 l0 -294 l-503 0 l0 294 l252 0 ZM736 731 l-464 0 l0 -254 l464 0 l0 254 ZM568 314 l328 0 l0 -416 l-20 0 l0 72 l-288 0 l0 -72 l-20 0 l0 416 ZM117 314 l318 0 l0 -416 l-19 0 l0 72 l-279 0 l0 -72 l-20 0 l0 416 ZM588 294 l0 -304 l288 0 l0 304 l-288 0 ZM137 294 l0 -304 l279 0 l0 304 l-279 0 Z" /><glyph glyph-name="" unicode="&#x54cd;" d="M119 703 l204 0 l0 -665 l-20 0 l0 62 l-164 0 l0 -103 l-20 0 l0 706 ZM139 682 l0 -562 l164 0 l0 562 l-164 0 ZM558 444 l199 0 l0 -311 l-199 0 l0 311 ZM416 622 l132 0 q55 89 97 183 l19 -8 q-41 -89 -92 -175 l327 0 l0 -584 q0 -65 -32 -95 q-27 -27 -76 -27 q-42 0 -88 10 l4 18 q45 -8 84 -8 q41 0 62 20 q26 26 26 82 l0 563 l-443 0 l0 -702 l-20 0 l0 723 ZM737 423 l-159 0 l0 -270 l159 0 l0 270 Z" /><glyph glyph-name="" unicode="&#x54d1;" d="M294 -50 l233 0 l0 760 l-165 0 l0 20 l546 0 l0 -20 l-183 0 l0 -760 l231 0 l0 -20 l-662 0 l0 20 ZM547 710 l0 -760 l158 0 l0 760 l-158 0 ZM105 704 l182 0 l0 -638 l-20 0 l0 46 l-142 0 l0 -77 l-20 0 l0 669 ZM125 684 l0 -553 l142 0 l0 553 l-142 0 ZM784 199 q71 146 123 285 l18 -7 q-51 -140 -123 -287 l-18 9 ZM343 482 l19 7 q64 -159 104 -291 l-18 -6 q-41 132 -105 290 Z" /><glyph glyph-name="" unicode="&#x54ea;" d="M117 726 l171 0 l0 -664 l-20 0 l0 62 l-131 0 l0 -102 l-20 0 l0 704 ZM334 517 l108 0 l0 214 l-111 0 l0 20 l278 0 l-3 -667 q-1 -60 -27 -79 q-26 -17 -60 -15 q-23 0 -63 9 l4 18 q38 -8 59 -8 q32 -1 50 14 q17 15 18 61 q0 2 0 52 q0 51 1 126 l-142 0 q-29 -171 -132 -305 l-16 11 q51 68 83 139 q31 72 46 155 l-96 0 l0 20 l99 0 q12 79 12 177 l0 38 l-108 0 l0 20 ZM137 706 l0 -562 l131 0 l0 562 l-131 0 ZM694 746 l247 0 l0 -19 q-1 -2 -21 -47 q-19 -44 -45 -103 q-26 -59 -47 -105 q-21 -47 -24 -53 q60 -67 92 -135 q33 -68 33 -125 q-3 -79 -36 -104 q-34 -24 -65 -22 q-22 -1 -66 12 l6 19 q41 -12 60 -10 q82 0 82 105 q-1 54 -33 121 q-33 66 -91 131 l-5 5 q1 2 21 46 q19 44 45 103 q26 59 47 106 q21 47 24 55 l-204 0 l0 -833 l-20 0 l0 853 ZM588 282 l0 215 l-126 0 l0 -38 q0 -97 -12 -177 l138 0 ZM589 731 l-127 0 l0 -214 l126 0 q1 86 1 146 q0 60 0 68 Z" /><glyph glyph-name="" unicode="&#x552e;" d="M43 479 q78 64 148 152 q70 88 111 172 l18 -9 q-29 -61 -75 -125 l653 0 l0 -20 l-322 0 l0 -107 l286 0 l0 -20 l-286 0 l0 -103 l286 0 l0 -20 l-286 0 l0 -110 l344 0 l0 -20 l-688 0 l0 -58 l-20 0 l0 414 q-74 -94 -157 -161 l-12 15 ZM172 165 l653 0 l0 -269 l-20 0 l0 66 l-613 0 l0 -66 l-20 0 l0 269 ZM192 145 l0 -163 l613 0 l0 163 l-613 0 ZM232 399 l0 -110 l324 0 l0 110 l-324 0 ZM232 649 l0 -107 l324 0 l0 107 l-324 0 ZM232 522 l0 -103 l324 0 l0 103 l-324 0 ZM477 792 l11 16 q35 -25 70 -53 q34 -28 60 -50 l-13 -15 q-26 23 -60 50 q-34 28 -68 52 Z" /><glyph glyph-name="" unicode="&#x552f;" d="M325 386 q83 111 129 220 q45 109 69 200 l19 -6 q-24 -91 -70 -200 l453 0 l0 -20 l-203 0 l0 -178 l185 0 l0 -20 l-185 0 l0 -174 l185 0 l0 -20 l-185 0 l0 -188 l223 0 l0 -19 l-481 0 l0 -84 l-20 0 l0 642 q-41 -83 -104 -165 l-15 12 ZM112 729 l191 0 l0 -694 l-20 0 l0 65 l-151 0 l0 -108 l-20 0 l0 737 ZM132 709 l0 -589 l151 0 l0 589 l-151 0 ZM464 188 l0 -188 l238 0 l0 188 l-238 0 ZM464 580 l0 -178 l238 0 l0 178 l-238 0 ZM464 382 l0 -174 l238 0 l0 174 l-238 0 ZM632 769 l13 15 q32 -25 68 -57 q36 -31 67 -60 l-14 -15 q-31 29 -66 60 q-36 32 -68 57 Z" /><glyph glyph-name="" unicode="&#x5531;" d="M422 311 l482 0 l0 -414 l-20 0 l0 61 l-442 0 l0 -61 l-20 0 l0 414 ZM453 753 l417 0 l0 -330 l-417 0 l0 330 ZM113 715 l211 0 l0 -663 l-21 0 l0 62 l-169 0 l0 -103 l-21 0 l0 704 ZM134 696 l0 -563 l169 0 l0 563 l-169 0 ZM442 291 l0 -147 l442 0 l0 147 l-442 0 ZM442 124 l0 -147 l442 0 l0 147 l-442 0 ZM850 443 l0 137 l-377 0 l0 -137 l377 0 ZM850 734 l-377 0 l0 -134 l377 0 l0 134 Z" /><glyph glyph-name="" unicode="&#x5546;" d="M334 239 l327 0 l0 -220 l-327 0 l0 220 ZM641 219 l-287 0 l0 -180 l287 0 l0 180 ZM153 484 l407 0 q37 32 75 72 q38 40 68 75 l15 -12 q-27 -33 -61 -68 q-34 -36 -68 -67 l256 0 l0 -480 q0 -49 -25 -74 q-22 -23 -66 -22 q-52 1 -85 9 l3 18 q32 -6 82 -7 q35 0 52 16 q19 20 19 60 l0 460 l-652 0 l0 -569 l-20 0 l0 589 ZM65 686 l869 0 l0 -20 l-869 0 l0 20 ZM240 260 q39 28 87 69 q47 41 80 76 l14 -13 q-33 -37 -81 -78 q-48 -42 -88 -70 l-12 16 ZM584 384 l12 15 q38 -29 80 -64 q42 -36 80 -70 l-14 -15 q-37 34 -79 69 q-41 35 -79 65 ZM261 606 l11 17 q62 -43 136 -105 l-14 -16 q-72 64 -133 104 ZM415 793 l11 16 q71 -48 133 -98 l-12 -16 q-62 50 -132 98 Z" /><glyph glyph-name="" unicode="&#x5561;" d="M109 727 l194 0 l0 -664 l-20 0 l0 62 l-154 0 l0 -103 l-20 0 l0 705 ZM129 707 l0 -562 l154 0 l0 562 l-154 0 ZM726 806 l19 0 l0 -190 l183 0 l0 -20 l-183 0 l0 -214 l173 0 l0 -20 l-173 0 l0 -214 l213 0 l0 -20 l-213 0 l0 -232 l-19 0 l0 910 ZM370 615 l163 0 l0 191 l19 0 l0 -910 l-19 0 l0 232 l-187 0 l0 20 l187 0 l0 214 l-156 0 l0 20 l156 0 l0 214 l-163 0 l0 19 Z" /><glyph glyph-name="" unicode="&#x5584;" d="M197 154 l605 0 l0 -258 l-20 0 l0 66 l-565 0 l0 -66 l-20 0 l0 258 ZM217 135 l0 -153 l565 0 l0 153 l-565 0 ZM186 555 l302 0 l0 100 l-379 0 l0 20 l462 0 q76 61 135 130 l15 -13 q-53 -61 -118 -117 l286 0 l0 -20 l-381 0 l0 -100 l302 0 l0 -20 l-302 0 l0 -104 l381 0 l0 -20 l-381 0 l0 -143 l99 0 q76 56 130 113 l15 -13 q-47 -50 -112 -100 l300 0 l0 -20 l-894 0 l0 20 l442 0 l0 143 l-379 0 l0 20 l379 0 l0 104 l-302 0 l0 20 ZM272 788 l11 17 q30 -21 64 -47 q34 -26 65 -53 l-13 -16 q-31 27 -64 53 q-34 26 -63 46 ZM240 361 l11 16 q25 -17 52 -38 q26 -21 48 -41 l-13 -15 q-21 19 -47 40 q-26 21 -51 38 Z" /><glyph glyph-name="" unicode="&#x559c;" d="M183 120 l630 0 l0 -222 l-20 0 l0 56 l-590 0 l0 -56 l-20 0 l0 222 ZM202 490 l591 0 l0 -149 l-591 0 l0 149 ZM203 100 l0 -127 l590 0 l0 127 l-590 0 ZM773 470 l-551 0 l0 -109 l551 0 l0 109 ZM145 597 l343 0 l0 101 l-404 0 l0 19 l404 0 l0 88 l20 0 l0 -88 l405 0 l0 -19 l-405 0 l0 -101 l341 0 l0 -20 l-704 0 l0 20 ZM292 307 l13 15 q50 -47 93 -93 l208 0 q47 41 85 90 l16 -13 q-33 -41 -70 -77 l316 0 l0 -20 l-909 0 l0 20 l327 0 q-36 39 -79 78 Z" /><glyph glyph-name="" unicode="&#x5668;" d="M707 748 l149 0 l0 -234 l-298 0 l0 234 l149 0 ZM290 748 l146 0 l0 -234 l-294 0 l0 234 l148 0 ZM555 166 l302 0 l0 -271 l-20 0 l0 54 l-262 0 l0 -54 l-20 0 l0 271 ZM141 165 l301 0 l0 -270 l-20 0 l0 53 l-261 0 l0 -53 l-20 0 l0 270 ZM836 728 l-258 0 l0 -193 l258 0 l0 193 ZM417 728 l-255 0 l0 -193 l255 0 l0 193 ZM575 146 l0 -177 l262 0 l0 177 l-262 0 ZM161 145 l0 -177 l261 0 l0 177 l-261 0 ZM457 404 q22 37 35 91 l20 -5 q-14 -54 -35 -92 l439 0 l0 -20 l-365 0 q71 -70 172 -106 q100 -36 234 -58 l-4 -20 q-143 23 -250 64 q-107 40 -180 120 l-59 0 q-50 -66 -162 -115 q-111 -49 -255 -67 l-3 20 q132 17 237 60 q105 44 157 102 l-362 0 l0 20 l377 0 q3 3 4 6 ZM646 478 l11 17 q61 -36 111 -75 l-11 -16 q-51 38 -111 74 Z" /><glyph glyph-name="" unicode="&#x566a;" d="M316 736 l0 -663 l-20 0 l0 61 l-160 0 l0 -102 l-20 0 l0 704 l200 0 ZM136 716 l0 -562 l160 0 l0 562 l-160 0 ZM470 760 l339 0 l0 -171 l-339 0 l0 171 ZM789 740 l-299 0 l0 -131 l299 0 l0 131 ZM685 492 l217 0 l0 -167 l-217 0 l0 167 ZM387 492 l207 0 l0 -167 l-207 0 l0 167 ZM324 -46 q194 101 285 241 l-238 0 l0 21 l262 0 l0 73 l19 0 l0 -73 l272 0 l0 -21 l-250 0 q92 -141 276 -234 l-9 -19 q-194 103 -285 253 l-4 0 l0 -298 l-19 0 l0 298 l-3 0 q-94 -154 -297 -259 l-9 18 ZM882 472 l-177 0 l0 -127 l177 0 l0 127 ZM574 472 l-167 0 l0 -127 l167 0 l0 127 Z" /><glyph glyph-name="" unicode="&#x56ca;" d="M164 211 l172 0 l0 55 l-191 0 l0 19 l191 0 l0 44 l19 0 l0 -44 l290 0 l0 46 l19 0 l0 -46 l190 0 l0 -19 l-190 0 l0 -55 l171 0 l0 -19 l-171 0 l0 -59 l284 0 l0 -18 l-476 0 q-49 -35 -109 -62 l0 -123 q11 5 58 19 q47 15 92 29 q45 14 48 15 l6 -20 q-4 0 -52 -15 q-49 -16 -98 -31 q-49 -15 -55 -17 q-6 -6 -16 -16 l-16 11 l1 1 q9 11 12 19 l0 119 q-121 -51 -287 -80 l-4 19 q238 41 385 132 l-388 0 l0 18 l287 0 l0 59 l-172 0 l0 19 ZM915 510 l0 -128 l-19 0 l0 109 l-791 0 l0 -109 l-19 0 l0 128 l403 0 l0 57 l-279 0 l0 99 l279 0 l0 59 l-383 0 l0 18 l383 0 l0 62 l18 0 l0 -62 l388 0 l0 -18 l-388 0 l0 -59 l281 0 l0 -99 l-281 0 l0 -57 l408 0 ZM199 435 l251 0 l0 -90 l-251 0 l0 90 ZM538 435 l251 0 l0 -90 l-251 0 l0 90 ZM355 192 l0 -59 l290 0 l0 59 l-290 0 ZM769 647 l-262 0 l0 -62 l262 0 l0 62 ZM229 647 l0 -62 l260 0 l0 62 l-260 0 ZM355 266 l0 -55 l290 0 l0 55 l-290 0 ZM559 78 l11 16 q55 -39 115 -69 q88 26 154 59 l8 -18 q-58 -29 -135 -54 q112 -49 245 -72 l-4 -21 q-225 38 -394 159 ZM432 416 l-214 0 l0 -53 l214 0 l0 53 ZM770 416 l-213 0 l0 -53 l213 0 l0 53 Z" /><glyph glyph-name="" unicode="&#x56db;" d="M878 718 l0 -793 l-20 0 l0 99 l-716 0 l0 -99 l-20 0 l0 793 l756 0 ZM142 698 l0 -654 l716 0 l0 654 l-245 0 l0 -327 q0 -57 22 -79 q24 -25 98 -23 l62 1 l1 -20 l-62 -1 q-84 -2 -112 28 q-29 29 -29 94 l0 327 l-189 0 l0 -186 q2 -122 -35 -194 q-38 -73 -132 -131 l-11 17 q89 56 124 124 q35 68 34 184 l0 186 l-242 0 Z" /><glyph glyph-name="" unicode="&#x56de;" d="M117 730 l769 0 l0 -825 l-21 0 l0 87 l-727 0 l0 -87 l-21 0 l0 825 ZM138 710 l0 -698 l727 0 l0 698 l-727 0 ZM501 514 l162 0 l0 -306 l-324 0 l0 306 l162 0 ZM642 494 l-283 0 l0 -266 l283 0 l0 266 Z" /><glyph glyph-name="" unicode="&#x56e0;" d="M133 748 l740 0 l0 -854 l-20 0 l0 93 l-701 0 l0 -93 l-19 0 l0 854 ZM152 728 l0 -722 l701 0 l0 722 l-701 0 ZM492 646 l20 0 l0 -65 q0 -47 -4 -92 l251 0 l0 -19 l-253 0 q-10 -95 -62 -185 q-51 -89 -170 -167 l-11 16 q113 74 162 160 q50 85 60 176 l-221 0 l0 19 l223 0 q5 45 5 92 l0 65 ZM515 346 l14 14 q34 -32 100 -96 q65 -65 127 -134 l-15 -13 q-62 68 -127 133 q-65 64 -99 96 Z" /><glyph glyph-name="" unicode="&#x56e2;" d="M126 747 l751 0 l0 -852 l-21 0 l0 70 l-709 0 l0 -70 l-21 0 l0 852 ZM147 727 l0 -742 l709 0 l0 742 l-709 0 ZM245 513 l340 0 l0 143 l20 0 l0 -143 l181 0 l0 -20 l-181 0 l0 -331 q3 -103 -93 -101 q-45 2 -81 11 l4 19 q46 -9 77 -9 q41 -1 57 18 q17 18 16 62 l0 331 l-6 0 q-55 -99 -138 -192 q-84 -93 -187 -172 l-12 16 q99 76 180 165 q80 89 134 183 l-311 0 l0 20 Z" /><glyph glyph-name="" unicode="&#x56f4;" d="M132 741 l754 0 l0 -852 l-20 0 l0 68 l-715 0 l0 -68 l-19 0 l0 852 ZM151 721 l0 -745 l715 0 l0 745 l-715 0 ZM307 435 l174 0 l0 123 l-223 0 l0 20 l223 0 l0 89 l20 0 l0 -89 l248 0 l0 -20 l-248 0 l0 -123 l201 0 l0 -20 l-201 0 l0 -127 l252 0 l-6 -115 q-4 -56 -32 -75 q-28 -19 -60 -18 q-16 0 -37 2 q-22 3 -41 7 l5 19 q18 -4 38 -6 q20 -2 35 -2 q70 -1 72 74 l5 94 l-231 0 l0 -247 l-20 0 l0 247 l-240 0 l0 20 l240 0 l0 127 l-174 0 l0 20 Z" /><glyph glyph-name="" unicode="&#x56fd;" d="M111 751 l766 0 l0 -854 l-20 0 l0 61 l-726 0 l0 -61 l-20 0 l0 854 ZM131 731 l0 -753 l726 0 l0 753 l-726 0 ZM264 390 l218 0 l0 184 l-243 0 l0 20 l506 0 l0 -20 l-243 0 l0 -184 l221 0 l0 -19 l-221 0 l0 -234 l263 0 l0 -19 l-550 0 l0 19 l267 0 l0 234 l-218 0 l0 19 ZM600 303 l13 16 q65 -53 115 -104 l-15 -14 q-49 50 -113 102 Z" /><glyph glyph-name="" unicode="&#x56fe;" d="M124 748 l761 0 l0 -853 l-21 0 l0 67 l-719 0 l0 -67 l-21 0 l0 853 ZM145 728 l0 -746 l719 0 l0 746 l-719 0 ZM246 476 q119 89 186 218 l17 -9 q-20 -39 -45 -75 l300 0 l0 -16 q-62 -95 -167 -169 q114 -69 277 -109 l-5 -19 q-171 41 -290 115 q-132 -89 -312 -140 l-5 20 q171 47 299 132 q-80 54 -143 127 q-45 -51 -100 -92 l-12 17 ZM676 590 l-287 0 q-9 -12 -18 -23 q64 -77 148 -131 q98 68 157 154 ZM353 151 l8 19 q76 -29 145 -61 q69 -32 145 -74 l-10 -17 q-75 42 -144 73 q-68 32 -144 60 ZM451 277 l9 18 q46 -23 89 -45 q42 -23 88 -48 l-10 -18 q-88 50 -176 93 Z" /><glyph glyph-name="" unicode="&#x5706;" d="M120 748 l758 0 l0 -846 l-20 0 l0 60 l-718 0 l0 -60 l-20 0 l0 846 ZM140 729 l0 -747 l718 0 l0 747 l-718 0 ZM316 631 l364 0 l0 -142 l-364 0 l0 142 ZM660 612 l-324 0 l0 -103 l324 0 l0 103 ZM297 399 l406 0 l0 -227 l-19 0 l0 207 l-367 0 l0 -207 l-20 0 l0 227 ZM488 315 l19 0 l0 -18 q2 -216 -253 -258 l-4 20 q239 40 238 238 l0 18 ZM543 160 l10 18 q116 -61 207 -120 l-11 -16 q-89 57 -206 118 Z" /><glyph glyph-name="" unicode="&#x5708;" d="M116 754 l765 0 l0 -858 l-20 0 l0 56 l-725 0 l0 -56 l-20 0 l0 858 ZM136 734 l0 -762 l725 0 l0 762 l-725 0 ZM222 420 l194 0 q26 45 42 98 l-210 0 l0 21 l216 0 q21 70 27 154 l20 -1 q-5 -82 -26 -153 l265 0 l0 -21 l-271 0 q-17 -52 -41 -98 l338 0 l0 -20 l-179 0 q80 -109 222 -176 l-8 -18 q-155 72 -239 194 l-145 0 q-78 -137 -227 -218 l-10 17 q140 77 215 201 l-183 0 l0 20 ZM355 298 l291 0 l-9 -90 q-1 -22 -17 -41 q-16 -19 -59 -20 q-28 0 -67 10 l5 19 q36 -9 62 -9 q34 1 45 14 q11 14 11 29 q0 3 3 28 q2 25 4 40 l-249 0 l0 -138 q0 -43 15 -61 q16 -18 53 -18 l175 0 q80 -1 93 96 l19 -3 q-15 -113 -112 -113 l-175 0 q-57 2 -73 31 q-17 30 -15 68 l0 158 ZM601 587 q59 47 98 87 l14 -14 q-39 -40 -99 -88 l-13 15 ZM280 656 l12 16 q58 -42 96 -78 l-14 -15 q-37 37 -94 77 Z" /><glyph glyph-name="" unicode="&#x5728;" d="M47 211 q125 85 222 201 q97 116 156 232 l-334 0 l0 20 l344 0 q38 78 54 143 l19 -5 q-15 -64 -51 -138 l489 0 l0 -20 l-498 0 q-66 -134 -181 -265 l0 -484 l-20 0 l0 462 q-85 -93 -189 -162 l-11 16 ZM387 319 l248 0 l0 212 l21 0 l0 -212 l249 0 l0 -20 l-249 0 l0 -326 l292 0 l0 -20 l-607 0 l0 20 l294 0 l0 326 l-248 0 l0 20 Z" /><glyph glyph-name="" unicode="&#x5730;" d="M657 806 l20 0 l0 -267 l217 60 l-9 -332 q-2 -88 -86 -88 q-32 0 -74 11 l4 19 q40 -10 70 -9 q26 -1 45 12 q19 12 21 56 q0 5 2 74 q2 68 4 141 q2 73 2 90 q-10 -3 -65 -18 q-55 -15 -131 -36 l0 -417 l-20 0 l0 411 q-98 -26 -182 -50 l0 -396 q0 -117 114 -117 l209 -1 q100 -2 123 96 q2 9 7 26 q4 18 8 34 l19 -4 q-4 -17 -8 -35 q-4 -17 -6 -26 q-29 -114 -143 -111 l-209 -1 q-132 4 -134 139 l0 391 q-45 -12 -72 -19 q-26 -8 -27 -8 l-6 19 l105 29 l0 265 l20 0 l0 -260 l182 50 l0 272 ZM44 10 l159 69 l0 445 l-149 0 l0 20 l149 0 l0 262 l20 0 l0 -262 l137 0 l0 -20 l-137 0 l0 -437 l134 59 l8 -19 l-313 -135 l-8 18 Z" /><glyph glyph-name="" unicode="&#x573a;" d="M351 104 q170 123 241 323 l-166 0 l0 18 l4 3 q220 146 396 278 l-404 0 l0 19 l440 0 l0 -17 l-4 -4 q-176 -131 -393 -277 l454 0 l-28 -410 q-6 -118 -116 -117 q-18 0 -43 3 q-26 3 -44 6 l4 19 q21 -3 45 -6 q23 -3 38 -3 q92 -2 96 100 q0 3 4 58 q4 55 9 129 q5 73 9 132 q3 59 4 69 l-127 0 q-47 -315 -330 -525 l-12 15 q275 206 323 510 l-139 0 q-70 -211 -249 -339 l-12 16 ZM65 65 l154 92 l0 372 l-155 0 l0 20 l155 0 l0 258 l20 0 l0 -258 l138 0 l0 -20 l-138 0 l0 -360 l146 88 l10 -17 l-320 -192 l-10 17 Z" /><glyph glyph-name="" unicode="&#x5740;" d="M472 596 l20 0 l0 -630 l192 0 l0 841 l20 0 l0 -319 l225 0 l0 -20 l-225 0 l0 -502 l259 0 l0 -20 l-647 0 l0 20 l156 0 l0 630 ZM220 805 l20 0 l0 -286 l150 0 l0 -20 l-150 0 l0 -369 l153 76 l9 -18 l-333 -165 l-9 18 l160 79 l0 379 l-158 0 l0 20 l158 0 l0 286 Z" /><glyph glyph-name="" unicode="&#x5747;" d="M365 420 q66 80 115 174 q49 94 85 209 l18 -5 q-28 -93 -64 -171 l376 0 l-16 -577 q-5 -134 -130 -134 q-36 0 -91 10 l4 19 q53 -10 87 -10 q107 -2 110 116 q0 4 2 84 q3 80 6 187 q3 106 5 190 q3 83 3 95 l-366 0 q-53 -110 -128 -200 l-16 13 ZM47 59 l160 75 l0 395 l-155 0 l0 20 l155 0 l0 257 l20 0 l0 -257 l137 0 l0 -20 l-137 0 l0 -386 l157 74 l9 -17 l-338 -158 l-8 17 ZM375 37 l396 259 l11 -17 l-396 -258 l-11 16 ZM493 436 l15 14 q71 -71 134 -143 l-15 -13 q-62 71 -134 142 Z" /><glyph glyph-name="" unicode="&#x5757;" d="M360 314 l225 0 q10 68 10 153 l0 139 l-194 0 l0 20 l194 0 l0 180 l20 0 l0 -180 l220 0 l0 -312 l108 0 l0 -20 l-332 0 q50 -131 129 -220 q78 -88 203 -150 l-10 -19 q-127 65 -208 155 q-82 92 -126 220 q-26 -140 -100 -227 q-74 -87 -193 -158 l-10 16 q120 72 191 157 q70 86 95 226 l-222 0 l0 20 ZM815 606 l-200 0 l0 -139 q0 -85 -10 -153 l210 0 l0 292 ZM43 63 l167 71 l0 374 l-156 0 l0 20 l156 0 l0 279 l20 0 l0 -279 l142 0 l0 -20 l-142 0 l0 -365 l156 67 l8 -18 l-343 -147 l-8 18 Z" /><glyph glyph-name="" unicode="&#x575a;" d="M435 730 l438 0 l0 -18 q-68 -150 -192 -250 q106 -94 259 -150 l-7 -19 q-157 58 -268 157 q-94 -72 -233 -131 l-7 19 q134 57 225 125 q-108 102 -169 247 l-46 0 l0 20 ZM851 710 l-348 0 q60 -138 163 -234 q119 94 185 234 ZM44 -50 l444 0 l0 197 l-302 0 l0 19 l302 0 l0 108 l20 0 l0 -108 l296 0 l0 -19 l-296 0 l0 -197 l437 0 l0 -20 l-901 0 l0 20 ZM317 808 l20 0 l0 -527 l-20 0 l0 527 ZM121 753 l20 0 l0 -431 l-20 0 l0 431 Z" /><glyph glyph-name="" unicode="&#x575b;" d="M406 -31 q44 72 104 189 q59 117 113 235 l-274 0 l0 19 l608 0 l0 -19 l-312 0 q-53 -117 -112 -234 q-60 -118 -105 -193 q7 1 60 5 q53 4 127 9 q73 6 140 11 q67 5 101 8 q-58 90 -120 186 l17 11 q96 -143 176 -283 l-17 -10 q-22 38 -45 77 l-445 -35 q-9 0 -31 -9 l-8 17 q16 8 23 16 ZM42 20 l163 73 l0 421 l-156 0 l0 20 l156 0 l0 273 l20 0 l0 -273 l157 0 l0 -20 l-157 0 l0 -412 l153 70 l8 -18 l-336 -152 l-8 18 ZM442 716 l421 0 l0 -20 l-421 0 l0 20 Z" /><glyph glyph-name="" unicode="&#x578b;" d="M65 527 l184 0 q1 15 1 33 l0 172 l-142 0 l0 19 l478 0 l0 -19 l-117 0 l0 -205 l131 0 l0 -20 l-131 0 l0 -206 l-20 0 l0 206 l-182 0 q-16 -172 -155 -258 l-11 17 q131 80 146 241 l-182 0 l0 20 ZM270 560 q0 -17 -1 -33 l180 0 l0 205 l-179 0 l0 -172 ZM54 -52 l437 0 l0 178 l-315 0 l0 20 l315 0 l0 113 l19 0 l0 -113 l310 0 l0 -20 l-310 0 l0 -178 l434 0 l0 -20 l-890 0 l0 20 ZM860 807 l20 0 l0 -456 q-1 -93 -93 -94 q-33 0 -82 8 l4 20 q47 -8 78 -8 q73 -1 73 74 l0 456 ZM687 737 l19 0 l0 -341 l-19 0 l0 341 Z" /><glyph glyph-name="" unicode="&#x57ce;" d="M528 -63 q128 75 212 199 q-24 88 -41 203 q-16 114 -23 247 l-273 0 l0 -186 l187 0 l-12 -256 q-3 -103 -94 -102 q-28 1 -68 10 l4 19 q38 -9 64 -9 q73 -2 74 83 q0 4 3 56 q2 53 5 109 q2 56 3 69 l-166 0 l0 -71 q1 -224 -113 -398 l-17 10 q111 169 110 388 l0 298 l292 0 q-5 96 -4 200 l20 0 q-1 -104 4 -200 l241 0 l0 -20 l-240 0 q14 -253 58 -428 q80 127 120 305 l20 -5 q-43 -192 -133 -326 q18 -62 39 -106 q49 -91 80 -85 q23 1 41 35 q17 34 26 95 l20 -3 q-10 -69 -33 -108 q-23 -38 -54 -39 q-51 1 -97 96 q-19 40 -36 94 q-84 -117 -208 -191 l-11 17 ZM38 94 l144 61 l0 367 l-135 0 l0 20 l135 0 l0 264 l20 0 l0 -264 l132 0 l0 -20 l-132 0 l0 -359 l134 57 l8 -18 l-299 -127 l-7 19 ZM770 766 l14 14 q48 -47 98 -111 l-16 -12 q-49 63 -96 109 Z" /><glyph glyph-name="" unicode="&#x57df;" d="M397 449 l208 0 l0 -248 l-208 0 l0 248 ZM708 464 q-3 47 -4 105 l-356 0 l0 19 l356 0 q-3 111 2 218 l20 0 q-4 -107 -2 -218 l208 0 l0 -19 l-207 0 q1 -58 3 -105 q6 -176 36 -314 q74 125 108 283 l19 -5 q-37 -172 -120 -306 q13 -52 30 -93 q8 -24 28 -57 q19 -34 46 -37 q16 1 32 33 q16 32 27 89 l20 -4 q-7 -43 -26 -88 q-20 -47 -54 -50 q-37 3 -59 41 q-23 37 -33 66 q-14 35 -26 78 q-76 -113 -184 -193 l-12 15 q113 83 190 204 q-35 146 -42 338 ZM585 429 l-168 0 l0 -208 l168 0 l0 208 ZM57 49 l143 64 l0 391 l-133 0 l0 20 l133 0 l0 282 l20 0 l0 -282 l120 0 l0 -20 l-120 0 l0 -382 l131 59 l9 -18 l-295 -132 l-8 18 ZM322 13 l323 106 l7 -19 l-323 -106 l-7 19 ZM779 749 l15 14 q47 -51 92 -115 l-16 -12 q-45 63 -91 113 Z" /><glyph glyph-name="" unicode="&#x57fa;" d="M69 303 l226 0 l0 391 l-157 0 l0 20 l157 0 l0 92 l20 0 l0 -92 l371 0 l0 92 l20 0 l0 -92 l152 0 l0 -20 l-152 0 l0 -391 l217 0 l0 -20 l-291 0 q71 -60 149 -102 q79 -42 178 -72 l-6 -19 q-107 32 -191 79 q-85 46 -160 114 l-213 0 q-140 -138 -346 -205 l-6 18 q190 64 323 187 l-291 0 l0 20 ZM315 558 l0 -119 l371 0 l0 119 l-371 0 ZM315 420 l0 -117 l371 0 l0 117 l-371 0 ZM315 694 l0 -116 l371 0 l0 116 l-371 0 ZM135 -43 l351 0 l0 136 l-257 0 l0 20 l257 0 l0 86 l20 0 l0 -86 l259 0 l0 -20 l-259 0 l0 -136 l353 0 l0 -20 l-724 0 l0 20 Z" /><glyph glyph-name="" unicode="&#x5806;" d="M318 374 q88 111 135 222 q48 111 74 210 l19 -6 q-25 -96 -70 -202 l455 0 l0 -20 l-203 0 l0 -178 l184 0 l0 -20 l-184 0 l0 -173 l184 0 l0 -20 l-184 0 l0 -187 l222 0 l0 -19 l-481 0 l0 -84 l-21 0 l0 641 q-45 -89 -115 -177 l-15 13 ZM469 187 l0 -187 l238 0 l0 187 l-238 0 ZM469 578 l0 -178 l238 0 l0 178 l-238 0 ZM469 380 l0 -173 l238 0 l0 173 l-238 0 ZM50 62 l154 62 l0 389 l-148 0 l0 20 l148 0 l0 273 l21 0 l0 -273 l138 0 l0 -20 l-138 0 l0 -380 l144 58 l7 -19 l-319 -129 l-7 19 ZM638 769 l12 15 q34 -27 70 -58 q36 -31 66 -59 l-14 -15 q-29 28 -65 59 q-36 31 -69 58 Z" /><glyph glyph-name="" unicode="&#x586b;" d="M293 91 l123 0 l0 493 l177 0 l13 106 l-268 0 l0 20 l270 0 l12 97 l19 -2 l-12 -95 l289 0 l0 -20 l-291 0 l-13 -106 l222 0 l0 -493 l122 0 l0 -21 l-663 0 l0 21 ZM436 195 l0 -104 l378 0 l0 104 l-378 0 ZM436 319 l0 -104 l378 0 l0 104 l-378 0 ZM436 564 l0 -103 l378 0 l0 103 l-378 0 ZM436 441 l0 -102 l378 0 l0 102 l-378 0 ZM42 75 l145 60 l0 389 l-140 0 l0 20 l140 0 l0 263 l20 0 l0 -263 l134 0 l0 -20 l-134 0 l0 -381 l141 59 l8 -18 l-306 -127 l-8 18 ZM320 -83 q139 59 226 114 l11 -17 q-89 -55 -228 -116 l-9 19 ZM704 12 l9 18 q110 -50 216 -113 l-10 -18 q-105 63 -215 113 Z" /><glyph glyph-name="" unicode="&#x5883;" d="M405 409 l448 0 l0 -275 l-137 0 l0 -118 q0 -38 16 -55 q16 -16 55 -16 l61 -1 q65 -2 77 58 q6 26 10 51 l20 -3 q-4 -26 -10 -52 q-18 -74 -97 -73 l-61 -1 q-93 -1 -91 92 l0 118 l-136 0 q-3 -86 -63 -144 q-59 -58 -180 -94 l-6 18 q116 36 171 88 q55 52 58 132 l-135 0 l0 275 ZM833 153 l0 109 l-408 0 l0 -109 l408 0 ZM833 390 l-408 0 l0 -109 l408 0 l0 109 ZM46 69 l140 67 l0 409 l-132 0 l0 20 l132 0 l0 239 l20 0 l0 -239 l110 0 l0 -20 l-110 0 l0 -400 l131 63 l9 -18 l-292 -139 l-8 18 ZM328 528 l350 0 q59 58 100 116 l17 -11 q-39 -55 -91 -105 l247 0 l0 -20 l-623 0 l0 20 ZM369 698 l533 0 l0 -21 l-533 0 l0 21 ZM558 791 l13 15 q51 -39 101 -84 l-14 -15 q-50 45 -100 84 ZM464 622 l13 16 q52 -44 91 -86 l-15 -13 q-38 39 -89 83 Z" /><glyph glyph-name="" unicode="&#x589e;" d="M846 795 q-67 -76 -134 -136 l206 0 l0 -290 l-559 0 l0 290 l280 0 l43 0 q75 66 149 149 l15 -13 ZM417 267 l453 0 l0 -371 l-19 0 l0 61 l-415 0 l0 -61 l-19 0 l0 371 ZM898 639 l-252 0 l0 -250 l252 0 l0 250 ZM379 639 l0 -250 l248 0 l0 250 l-248 0 ZM436 104 l0 -127 l415 0 l0 127 l-415 0 ZM436 247 l0 -123 l415 0 l0 123 l-415 0 ZM44 50 l144 62 l0 391 l-132 0 l0 21 l132 0 l0 282 l19 0 l0 -282 l118 0 l0 -21 l-118 0 l0 -382 l141 61 l8 -18 l-304 -132 l-8 18 ZM440 791 l13 15 q69 -56 123 -108 l-13 -15 q-55 52 -123 108 ZM456 562 l15 15 q47 -47 88 -97 l-15 -13 q-41 50 -88 95 ZM716 476 q37 43 77 98 l16 -11 q-39 -56 -77 -101 l-16 14 Z" /><glyph glyph-name="" unicode="&#x58c1;" d="M291 751 l151 0 l0 -188 l-285 0 q-5 -183 -98 -318 l-16 11 q95 139 95 329 l0 166 l153 0 ZM183 434 l260 0 l0 -187 l-260 0 l0 187 ZM422 731 l-264 0 l0 -146 l133 -1 l131 0 l0 147 ZM60 -42 l427 0 l0 139 l-329 0 l0 21 l329 0 l0 102 l20 0 l0 -102 l332 0 l0 -21 l-332 0 l0 -139 l431 0 l0 -21 l-878 0 l0 21 ZM423 414 l-220 0 l0 -147 l220 0 l0 147 ZM505 357 l192 0 l0 133 l-222 0 l0 20 l258 0 q51 70 97 145 l18 -11 q-45 -68 -91 -134 l183 0 l0 -20 l-222 0 l0 -133 l197 0 l0 -21 l-197 0 l0 -123 l-21 0 l0 123 l-192 0 l0 21 ZM506 714 l408 0 l0 -20 l-408 0 l0 20 ZM660 797 l12 15 q49 -39 83 -77 l-15 -14 q-32 37 -80 76 ZM571 636 l16 12 q33 -43 65 -91 l-17 -11 q-31 48 -64 90 Z" /><glyph glyph-name="" unicode="&#x58f0;" d="M159 400 l689 0 l0 -277 l-20 0 l0 59 l-650 0 q-3 -69 -29 -146 q-26 -76 -89 -145 l-14 12 q69 77 92 161 q23 85 21 155 l0 181 ZM179 219 l0 -17 l318 0 l0 178 l-318 0 l0 -161 ZM828 380 l-310 0 l0 -178 l310 0 l0 178 ZM154 545 l342 0 l0 127 l-433 0 l0 20 l433 0 l0 115 l21 0 l0 -115 l433 0 l0 -20 l-433 0 l0 -127 l345 0 l0 -20 l-708 0 l0 20 Z" /><glyph glyph-name="" unicode="&#x58f3;" d="M180 558 l310 0 l0 133 l-401 0 l0 20 l401 0 l0 95 l20 0 l0 -95 l386 0 l0 -20 l-386 0 l0 -133 l288 0 l0 -20 l-618 0 l0 20 ZM658 269 l0 -221 q-1 -55 21 -78 q21 -23 73 -22 l76 -1 q48 0 71 21 q23 20 34 74 l8 38 l20 -5 l-8 -37 q-10 -53 -36 -82 q-27 -28 -89 -28 l-76 -1 q-117 -2 -114 121 l0 201 l-289 0 l0 -96 q-2 -200 -263 -253 l-4 19 q247 49 247 234 l0 116 l329 0 ZM894 411 l0 -156 l-20 0 l0 136 l-744 0 l0 -137 l-20 0 l0 157 l784 0 Z" /><glyph glyph-name="" unicode="&#x5904;" d="M146 482 l2 0 q63 140 99 315 l20 -4 q-21 -101 -51 -190 l250 0 l0 -18 q-24 -270 -143 -448 q100 -117 241 -150 q88 -21 188 -32 q100 -10 197 -9 l1 -21 q-99 0 -200 11 q-101 10 -191 31 q-145 35 -248 153 q-90 -125 -244 -226 l-11 15 q152 100 241 227 q-100 123 -144 311 q-42 -88 -95 -164 l-16 12 q59 84 104 183 l0 4 ZM209 583 q-19 -55 -42 -105 q40 -197 142 -325 q113 172 136 430 l-236 0 ZM638 806 l20 0 l0 -747 l-20 0 l0 747 ZM718 553 l15 13 q113 -128 201 -253 l-15 -11 q-89 123 -201 251 Z" /><glyph glyph-name="" unicode="&#x5907;" d="M207 325 l583 0 l0 -429 l-20 0 l0 66 l-262 0 l0 -1 l-20 0 l0 1 l-261 0 l0 -66 l-20 0 l0 429 ZM122 545 q156 102 243 256 l17 -10 q-23 -42 -53 -81 l454 0 l0 -18 q-110 -123 -245 -200 q179 -90 417 -126 l-3 -20 q-249 38 -434 134 q-124 -67 -248 -105 q-124 -37 -232 -54 l-3 20 q103 16 223 52 q120 36 239 98 q-117 64 -220 157 q-62 -67 -143 -120 l-12 17 ZM753 690 l-439 0 q-11 -14 -23 -28 q105 -95 227 -159 q130 72 235 187 ZM508 136 l0 -154 l262 0 l0 154 l-262 0 ZM227 136 l0 -154 l261 0 l0 154 l-261 0 ZM770 305 l-262 0 l0 -150 l262 0 l0 150 ZM227 305 l0 -150 l261 0 l0 150 l-261 0 Z" /><glyph glyph-name="" unicode="&#x590d;" d="M119 85 q171 86 278 216 l-151 0 l0 293 l591 0 l0 -293 l-413 0 q-43 -54 -99 -102 l516 0 l0 -18 q-96 -104 -258 -175 q179 -70 379 -81 l-1 -21 q-214 12 -405 93 q-202 -82 -473 -104 l-2 19 q257 21 451 95 q-139 62 -248 157 q-71 -54 -155 -97 l-10 18 ZM818 574 l-552 0 l0 -117 l552 0 l0 117 ZM818 321 l0 116 l-552 0 l0 -116 l552 0 ZM812 180 l-509 0 l-3 -3 q113 -98 258 -160 q159 66 254 163 ZM80 520 q80 62 142 138 q62 75 97 152 l19 -8 q-19 -44 -48 -86 l632 0 l0 -20 l-645 0 q-75 -106 -185 -191 l-12 15 Z" /><glyph glyph-name="" unicode="&#x590f;" d="M106 56 q87 44 159 97 q71 53 119 108 l-167 0 l0 374 l210 0 q35 49 56 94 l-410 0 l0 20 l870 0 l0 -20 l-438 0 q-20 -45 -54 -94 l67 0 l299 0 l0 -374 l-407 0 q-36 -45 -89 -89 l489 0 l0 -18 q-91 -90 -234 -150 q161 -54 368 -75 l-2 -21 q-223 23 -396 86 q-196 -75 -474 -96 l-1 19 q260 21 447 86 q-133 53 -243 132 q-72 -53 -160 -97 l-9 18 ZM797 615 l-559 0 l0 -100 l559 0 l0 100 ZM797 281 l0 98 l-559 0 l0 -98 l559 0 ZM238 495 l0 -97 l559 0 l0 97 l-559 0 ZM779 153 l-481 0 q-3 -3 -6 -5 q114 -83 255 -134 q142 55 232 139 Z" /><glyph glyph-name="" unicode="&#x5916;" d="M189 350 l10 17 q79 -52 166 -116 q87 151 115 335 l-249 0 q-64 -129 -154 -230 l-16 13 q155 173 229 424 l19 -6 q-28 -96 -68 -181 l260 0 l0 -18 q-33 -216 -143 -386 q-110 -171 -282 -272 l-10 16 q180 107 289 288 q-87 65 -166 116 ZM655 806 l21 0 l0 -910 l-21 0 l0 910 ZM695 487 l13 15 q139 -122 255 -249 l-14 -13 q-117 125 -254 247 Z" /><glyph glyph-name="" unicode="&#x591a;" d="M437 153 l10 17 q95 -60 174 -127 q173 96 258 239 l-385 0 q-120 -78 -282 -137 l-7 19 q264 96 407 238 l14 -15 q-45 -45 -103 -85 l381 0 l0 -19 q-96 -166 -297 -271 q-202 -103 -468 -124 l-1 18 q266 24 465 127 q-77 64 -166 120 ZM348 561 l10 17 q89 -54 171 -118 q172 89 279 221 l-422 0 q-103 -99 -230 -163 l-9 18 q96 48 180 119 q84 70 141 151 l16 -11 q-33 -48 -77 -93 l428 0 l0 -19 q-112 -145 -294 -240 q-182 -96 -418 -133 l-3 20 q218 35 390 120 q-78 59 -162 111 Z" /><glyph glyph-name="" unicode="&#x591c;" d="M845 507 l0 -19 q-55 -239 -208 -396 q130 -105 304 -163 l-6 -20 q-178 60 -312 170 q-108 -105 -271 -180 l-9 17 q158 75 264 176 q-107 93 -188 223 q-33 -41 -71 -76 l-13 14 q77 75 139 172 q62 97 100 204 l19 -7 q-21 -59 -49 -115 l301 0 ZM562 368 l10 17 q85 -50 175 -107 q49 94 77 209 l-291 0 q-44 -83 -101 -156 q81 -132 189 -226 q69 71 117 156 q-92 57 -176 107 ZM68 691 l476 0 q-58 55 -121 107 l12 15 q68 -54 128 -112 l-10 -10 l365 0 l0 -20 l-850 0 l0 20 ZM43 237 q175 163 283 392 l18 -8 q-48 -102 -110 -194 l0 -532 l-20 0 l0 504 q-71 -98 -157 -177 l-14 15 Z" /><glyph glyph-name="" unicode="&#x591f;" d="M211 449 l89 0 l0 -306 l-178 0 l0 306 l89 0 ZM280 429 l-138 0 l0 -265 l138 0 l0 265 ZM609 126 l11 17 q26 -16 60 -40 q34 -23 66 -49 q121 90 179 218 l-252 0 q-84 -69 -187 -121 l-10 18 q105 53 189 122 l0 1 q65 53 114 114 l15 -12 q-42 -54 -97 -102 l251 0 l0 -19 q-64 -144 -201 -243 q-138 -98 -331 -137 l-4 18 q184 40 316 130 q-29 25 -61 47 q-32 22 -58 38 ZM51 472 q126 157 181 328 l18 -6 q-21 -68 -55 -135 l233 0 l-4 -605 q-2 -126 -119 -126 q-15 0 -40 3 q-26 4 -48 9 l5 18 q21 -4 45 -7 q24 -3 38 -3 q100 -2 99 106 l4 585 l-223 0 q-49 -93 -118 -179 l-16 12 ZM578 545 l10 17 q60 -33 117 -79 q108 85 165 190 l-268 0 q-48 -58 -117 -110 l-12 17 q71 53 119 112 q47 59 73 107 l18 -10 q-23 -43 -65 -96 l276 0 l0 -18 q-55 -108 -159 -195 q-105 -86 -249 -144 l-8 18 q120 48 212 117 q-55 42 -112 74 Z" /><glyph glyph-name="" unicode="&#x5927;" d="M488 808 l20 0 l0 -174 q0 -64 -6 -123 l409 0 l0 -21 l-406 0 q48 -190 161 -336 q113 -146 282 -228 l-9 -20 q-169 83 -282 223 q-114 140 -161 330 q-28 -187 -130 -322 q-103 -135 -293 -235 l-10 17 q226 121 323 283 q74 121 94 288 l-389 0 l0 21 l391 0 q6 57 6 123 l0 174 Z" /><glyph glyph-name="" unicode="&#x5929;" d="M87 399 l390 0 q1 4 2 10 q14 130 14 290 l-344 0 l0 20 l708 0 l0 -20 l-344 0 q0 -161 -15 -293 q-1 -4 -1 -7 l419 0 l0 -20 l-405 0 q58 -158 166 -273 q108 -115 259 -176 l-7 -20 q-157 65 -271 187 q-114 123 -164 282 q-26 -144 -130 -267 q-104 -121 -277 -209 l-9 17 q167 86 268 203 q101 117 128 256 l-387 0 l0 20 Z" /><glyph glyph-name="" unicode="&#x592b;" d="M490 807 l21 0 q0 -74 -1 -176 l313 0 l0 -19 l-314 0 q-1 -59 -3 -112 q-2 -53 -5 -89 q-2 -13 -4 -25 l411 0 l0 -20 l-398 0 q50 -143 160 -256 q110 -111 271 -180 l-8 -20 q-166 73 -280 187 q-114 116 -160 263 q-31 -148 -138 -266 q-108 -118 -277 -189 l-7 17 q165 71 269 185 q105 115 134 259 l-394 0 l0 20 l397 0 q3 13 4 28 q3 35 5 87 q2 52 3 111 l-315 0 l0 19 l315 0 q1 102 1 176 Z" /><glyph glyph-name="" unicode="&#x5931;" d="M498 807 l21 0 l0 -219 l338 0 l0 -21 l-338 0 q0 -45 -3 -102 q-2 -56 -6 -94 q-3 -18 -6 -35 l423 0 l0 -21 l-415 0 q104 -281 429 -388 l-6 -21 q-169 58 -281 161 q-112 104 -155 242 q-35 -137 -143 -245 q-108 -106 -275 -169 l-7 17 q162 62 267 166 q105 104 138 237 l-399 0 l0 21 l404 0 q4 18 6 37 q4 38 6 93 q2 56 2 101 l-271 0 q-35 -76 -83 -144 l-16 11 q97 138 145 314 l19 -5 q-24 -83 -55 -155 l261 0 l0 219 Z" /><glyph glyph-name="" unicode="&#x5934;" d="M596 583 l14 219 l20 -2 l-13 -218 q-8 -160 -54 -291 l390 0 l0 -20 l-398 0 q-46 -120 -148 -213 q-102 -93 -280 -158 l-7 18 q128 47 216 108 q88 62 144 144 q30 46 53 101 l-488 0 l0 20 l496 0 q45 119 55 292 ZM602 116 l11 16 q152 -95 301 -204 l-12 -17 q-148 110 -300 205 ZM178 536 l9 17 q117 -61 221 -129 l-11 -17 q-103 67 -219 129 ZM247 737 l10 17 q106 -61 208 -138 l-12 -15 q-101 74 -206 136 Z" /><glyph glyph-name="" unicode="&#x5956;" d="M481 188 l0 1 l-418 0 l0 20 l424 0 q8 34 11 74 l21 -2 q-4 -39 -12 -72 l431 0 l0 -20 l-424 0 q151 -217 433 -264 l-3 -21 q-294 51 -445 277 q-33 -107 -143 -180 q-109 -73 -281 -104 l-3 19 q164 31 271 101 q106 71 138 171 ZM559 527 l10 17 q32 -20 69 -46 q37 -25 70 -49 q104 81 178 209 l-325 0 q-52 -71 -132 -136 l-12 16 q80 65 131 135 q51 70 78 126 l18 -8 q-25 -50 -68 -113 l335 0 l0 -18 q-78 -137 -189 -224 q-111 -87 -270 -134 l-6 19 q143 43 245 115 q-31 23 -67 47 q-36 25 -65 44 ZM82 357 l266 178 l0 269 l20 0 l0 -512 l-20 0 l0 219 l-255 -171 l-11 17 ZM107 707 l13 15 q85 -76 145 -145 l-16 -13 q-58 67 -142 143 Z" /><glyph glyph-name="" unicode="&#x5957;" d="M42 413 q265 86 384 269 l-335 0 l0 20 l348 0 q30 51 49 111 l19 -6 q-18 -55 -46 -105 l449 0 l0 -20 l-335 0 q140 -179 394 -251 l-6 -19 q-269 75 -413 270 l-100 0 q-58 -96 -154 -166 l424 0 l0 -20 l-419 0 l0 -110 l456 0 l0 -20 l-456 0 l0 -110 l458 0 l0 -20 l-458 0 l0 -111 l646 0 l0 -20 l-509 0 q-48 -43 -107 -90 q-58 -46 -102 -80 q15 1 81 4 q67 3 157 6 q89 4 170 7 q82 3 125 5 q-51 44 -110 90 l13 15 q110 -87 194 -165 l-14 -16 q-28 28 -61 57 l-574 -24 q-14 -1 -32 -5 l-5 18 q17 6 27 12 q42 31 100 77 q59 46 108 89 l-362 0 l0 20 l235 0 l0 380 q-99 -67 -233 -111 l-6 19 Z" /><glyph glyph-name="" unicode="&#x5962;" d="M285 509 l167 0 l0 75 l20 0 l0 -75 l172 0 l0 -20 l-172 0 l0 -117 l102 0 q87 51 164 116 l13 -15 q-66 -55 -140 -101 l343 0 l0 -20 l-375 0 q-108 -65 -220 -112 l436 0 l0 -344 l-20 0 l0 52 l-489 0 l0 -52 l-20 0 l0 306 q-118 -44 -217 -71 l-5 19 q101 28 222 74 l0 16 l41 0 q117 46 233 112 l-462 0 l0 20 l374 0 l0 117 l-167 0 l0 20 ZM286 85 l0 -117 l489 0 l0 117 l-489 0 ZM775 220 l-464 0 q-13 -6 -25 -10 l0 -105 l489 0 l0 115 ZM74 473 q236 69 351 202 l-331 0 l0 20 l347 0 q41 51 66 113 l19 -8 q-24 -57 -59 -105 l445 0 l0 -20 l-335 0 q78 -70 164 -113 q86 -44 204 -74 l-5 -19 q-126 32 -218 80 q-92 48 -175 126 l-96 0 q-119 -147 -371 -221 l-6 19 Z" /><glyph glyph-name="" unicode="&#x5973;" d="M240 244 q69 126 124 260 l-319 0 l0 21 l328 0 q54 134 95 273 l19 -5 q-39 -137 -92 -268 l550 0 l0 -21 l-203 0 q-35 -240 -185 -392 q178 -84 353 -178 l-10 -18 q-177 96 -358 182 q-157 -146 -434 -202 l-4 19 q267 54 419 192 q-138 65 -278 124 l-10 4 l5 9 ZM263 245 q138 -58 275 -124 q150 145 185 383 l-337 0 q-55 -134 -123 -259 Z" /><glyph glyph-name="" unicode="&#x597d;" d="M58 597 l147 0 q20 96 29 194 l20 -1 q-9 -98 -28 -193 l182 0 l0 -18 q-9 -128 -33 -232 q-24 -105 -74 -194 q43 -36 83 -70 q40 -35 70 -62 l-13 -15 q-29 27 -68 61 q-40 34 -83 69 q-71 -116 -216 -217 l-11 16 q142 99 211 215 q-43 35 -81 65 q-38 30 -66 50 l-6 4 l2 7 q19 61 40 138 q20 77 38 163 l-143 0 l0 20 ZM144 277 q57 -42 140 -110 q48 85 71 186 q23 101 32 224 l-165 0 q-18 -85 -38 -162 q-21 -77 -40 -138 ZM435 361 l264 0 l0 140 q67 59 117 108 q49 48 89 92 l-443 0 l0 20 l473 0 l0 -17 q-45 -50 -97 -100 q-51 -51 -119 -112 l0 -131 l240 0 l0 -19 l-240 0 l0 -326 q1 -104 -93 -103 q-39 1 -91 12 l4 19 q51 -11 87 -11 q75 -2 73 83 l0 326 l-264 0 l0 19 Z" /><glyph glyph-name="" unicode="&#x5982;" d="M570 704 l312 0 l0 -791 l-20 0 l0 79 l-272 0 l0 -79 l-20 0 l0 791 ZM590 684 l0 -672 l272 0 l0 672 l-272 0 ZM57 621 l159 0 q16 94 25 181 l20 -2 q-9 -87 -24 -179 l197 0 l0 -18 q-6 -135 -32 -251 q-26 -116 -83 -216 q58 -43 109 -84 q52 -41 87 -69 l-13 -17 q-35 30 -86 69 q-51 40 -107 83 q-75 -123 -223 -230 l-11 15 q145 105 218 228 q-80 61 -165 115 q54 175 85 355 l-156 0 l0 20 ZM152 255 q68 -45 151 -107 q55 98 80 210 q24 113 31 243 l-181 0 q-31 -178 -81 -346 Z" /><glyph glyph-name="" unicode="&#x59cb;" d="M474 292 l404 0 l0 -396 l-21 0 l0 72 l-362 0 l0 -72 l-21 0 l0 396 ZM495 272 l0 -284 l362 0 l0 284 l-362 0 ZM44 601 l136 0 q17 96 29 191 l20 -2 q-12 -94 -29 -189 l161 0 l0 -20 q-9 -126 -33 -235 q-23 -108 -72 -202 q66 -59 145 -137 l-15 -14 q-77 75 -140 133 q-64 -117 -188 -216 l-12 15 q123 99 185 215 q-69 63 -123 106 l-6 4 l2 6 q41 147 72 325 l-132 0 l0 20 ZM125 257 q51 -42 116 -99 q46 91 68 196 q22 105 31 227 l-143 0 q-32 -178 -72 -324 ZM428 439 q27 35 70 100 q43 65 87 137 q44 72 73 127 l17 -9 q-27 -53 -69 -122 q-41 -68 -84 -132 q-42 -64 -71 -103 q9 1 65 4 q56 3 131 7 q75 4 142 8 q67 4 99 6 q-70 98 -153 207 l16 12 q121 -157 208 -288 l-16 -11 q-21 29 -42 60 l-460 -26 q-12 -2 -28 -8 l-8 18 q18 8 23 13 Z" /><glyph glyph-name="" unicode="&#x59d3;" d="M43 585 l139 0 q18 106 32 208 l20 -3 q-14 -101 -32 -205 l165 0 l0 -17 q-7 -122 -29 -227 q-22 -106 -70 -198 q80 -62 141 -114 l-12 -15 q-76 64 -139 112 q-67 -120 -201 -223 l-12 15 q134 102 198 220 q-75 58 -132 95 l-6 4 l2 7 q39 146 71 322 l-135 0 l0 19 ZM127 246 q62 -42 126 -91 q45 87 66 189 q21 102 28 222 l-149 0 q-31 -174 -71 -320 ZM694 805 l20 0 l0 -241 l209 0 l0 -20 l-209 0 l0 -276 l178 0 l0 -20 l-178 0 l0 -300 l242 0 l0 -20 l-548 0 l0 20 l286 0 l0 300 l-202 0 l0 20 l202 0 l0 276 l-187 0 q-28 -99 -69 -182 l-17 10 q38 78 65 171 q27 94 39 186 l20 -2 q-11 -81 -32 -163 l181 0 l0 241 Z" /><glyph glyph-name="" unicode="&#x5a74;" d="M251 96 q50 48 96 96 l-304 0 l0 20 l323 0 q44 47 78 88 l15 -13 q-28 -35 -66 -75 l561 0 l0 -20 l-205 0 q-56 -108 -167 -176 q160 -44 312 -94 l-6 -20 q-161 54 -330 100 q-166 -90 -441 -99 l-1 19 q255 10 414 87 q-137 38 -274 70 l-18 5 l13 12 ZM278 94 q138 -32 278 -71 q113 64 170 169 l-351 0 q-45 -48 -97 -98 ZM558 751 l296 0 l0 -299 l-20 0 l0 280 l-256 0 l0 -268 l-20 0 l0 287 ZM153 751 l295 0 l0 -279 l-20 0 l0 260 l-255 0 l0 -280 l-20 0 l0 299 ZM294 642 l20 0 q4 -153 -41 -235 q-45 -82 -163 -139 l-9 18 q113 54 155 131 q42 77 38 225 ZM701 646 l20 0 q2 -148 -32 -227 q-34 -79 -120 -128 l-11 17 q83 47 114 121 q31 74 29 217 ZM731 403 l11 16 q92 -64 172 -130 l-13 -15 q-79 65 -170 129 ZM339 435 l12 16 q65 -47 121 -92 l-13 -15 q-54 45 -120 91 Z" /><glyph glyph-name="" unicode="&#x5a92;" d="M372 227 l274 0 l0 130 l-159 0 l0 315 l-125 0 l0 20 l125 0 l0 109 l19 0 l0 -109 l298 0 l0 109 l20 0 l0 -109 l118 0 l0 -20 l-118 0 l0 -315 l-158 0 l0 -130 l275 0 l0 -20 l-257 0 q89 -158 276 -249 l-8 -19 q-196 97 -286 268 l0 -315 l-20 0 l0 314 q-49 -83 -132 -157 q-83 -73 -179 -117 l-8 18 q91 42 170 110 q79 70 128 147 l-253 0 l0 20 ZM348 581 l0 -16 q-7 -125 -25 -226 q-18 -101 -56 -186 q51 -43 113 -99 l-13 -15 q-59 53 -109 95 q-59 -119 -184 -222 l-13 15 q124 103 181 221 q-69 57 -121 94 l-5 4 l1 6 q35 146 61 309 l-119 0 l0 20 l122 0 q18 114 28 220 l20 -2 q-10 -106 -27 -218 l146 0 ZM139 254 q50 -36 111 -87 q36 81 54 178 q17 97 24 216 l-129 0 q-25 -162 -60 -307 ZM506 377 l298 0 l0 140 l-298 0 l0 -140 ZM506 672 l0 -135 l298 0 l0 135 l-298 0 Z" /><glyph glyph-name="" unicode="&#x5b50;" d="M41 360 l480 0 l0 143 l4 3 q150 111 270 210 l-627 0 l0 20 l661 0 l0 -18 l-4 -3 q-124 -104 -284 -221 l0 -134 l419 0 l0 -20 l-419 0 l0 -320 q0 -51 -27 -78 q-28 -27 -84 -27 q-38 0 -92 13 l5 19 q52 -12 87 -12 q47 0 70 22 q21 21 21 63 l0 320 l-480 0 l0 20 Z" /><glyph glyph-name="" unicode="&#x5b57;" d="M50 226 l464 0 l0 104 l6 3 q121 65 213 132 l-490 0 l0 20 l526 0 l0 -18 l-4 -3 q-51 -39 -107 -74 q-56 -36 -124 -72 l0 -92 l420 0 l0 -20 l-420 0 l0 -186 q2 -114 -104 -111 q-37 0 -96 15 l4 19 q58 -14 92 -14 q38 -1 61 17 q22 19 23 74 l0 186 l-464 0 l0 20 ZM98 669 l809 0 l0 -196 l-20 0 l0 176 l-769 0 l0 -176 l-20 0 l0 196 ZM414 797 l14 15 q69 -62 119 -118 l-15 -14 q-48 55 -118 117 Z" /><glyph glyph-name="" unicode="&#x5b58;" d="M48 238 q115 83 208 192 q94 109 151 225 l-317 0 l0 21 l327 0 q30 63 45 125 l20 -5 q-15 -59 -42 -120 l482 0 l0 -21 l-492 0 q-62 -126 -164 -245 l0 -513 l-20 0 l0 490 q-86 -93 -187 -166 l-11 17 ZM364 209 l311 0 l0 120 l4 3 q64 46 160 130 l-400 0 l0 20 l430 0 l0 -20 q-106 -94 -174 -143 l0 -110 l254 0 l0 -21 l-254 0 l0 -188 q0 -89 -88 -89 q-15 0 -39 3 q-23 3 -43 9 l7 18 q18 -4 39 -7 q22 -3 36 -3 q69 -1 68 69 l0 188 l-311 0 l0 21 Z" /><glyph glyph-name="" unicode="&#x5b66;" d="M50 173 l477 0 l0 97 l5 3 q118 67 208 132 l-499 0 l0 20 l535 0 l0 -19 l-5 -3 q-94 -70 -225 -144 l0 -86 l404 0 l0 -20 l-404 0 l0 -139 q3 -112 -99 -109 q-37 0 -84 10 l4 18 q45 -7 80 -8 q38 -1 59 17 q21 18 21 72 l0 139 l-477 0 l0 20 ZM89 604 l548 0 q97 93 178 191 l15 -13 q-75 -91 -164 -178 l243 0 l0 -189 l-20 0 l0 169 l-780 0 l0 -169 l-20 0 l0 189 ZM165 779 l14 15 q67 -65 131 -142 l-15 -12 q-64 75 -130 139 ZM422 800 l16 12 q48 -59 100 -133 l-16 -11 q-51 72 -100 132 Z" /><glyph glyph-name="" unicode="&#x5b81;" d="M57 377 l887 0 l0 -20 l-413 0 l0 -344 q4 -114 -107 -111 q-38 0 -98 11 l3 19 q60 -10 95 -10 q48 -1 68 21 q20 21 19 70 l0 344 l-454 0 l0 20 ZM113 664 l780 0 l0 -186 l-20 0 l0 165 l-740 0 l0 -165 l-20 0 l0 186 ZM411 793 l12 16 q74 -54 147 -116 l-13 -15 q-72 61 -146 115 Z" /><glyph glyph-name="" unicode="&#x5b83;" d="M284 507 l20 0 l0 -306 q243 84 483 220 l9 -18 q-120 -68 -244 -124 q-125 -56 -248 -98 l0 -130 q0 -100 99 -101 l312 -1 q94 0 117 89 l14 52 l3 14 l19 -5 l-3 -14 l-13 -53 q-29 -102 -137 -102 l-312 -1 q-117 3 -119 122 l0 456 ZM94 654 l816 0 l0 -177 l-20 0 l0 158 l-776 0 l0 -170 l-20 0 l0 189 ZM415 792 l13 15 q69 -55 135 -123 l-14 -14 q-65 66 -134 122 Z" /><glyph glyph-name="" unicode="&#x5b88;" d="M667 562 l19 0 l0 -192 l248 0 l0 -20 l-248 0 l0 -335 q0 -113 -112 -113 q-44 1 -99 13 l4 19 q53 -10 95 -12 q95 -2 93 93 l0 335 l-608 0 l0 20 l608 0 l0 192 ZM102 644 l800 0 l0 -175 l-20 0 l0 155 l-761 0 l0 -155 l-19 0 l0 175 ZM245 235 l13 16 q92 -78 173 -170 l-14 -13 q-82 90 -172 167 ZM411 790 l12 16 q85 -66 153 -127 l-14 -14 q-67 59 -151 125 Z" /><glyph glyph-name="" unicode="&#x5b89;" d="M248 179 q55 76 102 160 l-299 0 l0 20 l310 0 q54 97 92 194 l19 -7 q-36 -93 -88 -187 l556 0 l0 -20 l-196 0 q-60 -172 -182 -270 q109 -45 214 -90 l119 -52 l-8 -18 l-119 51 q-110 48 -225 95 q-75 -55 -181 -92 q-106 -38 -250 -64 l-4 19 q137 25 238 61 q102 34 175 85 q-130 53 -267 99 l-13 4 l7 12 ZM272 178 q139 -47 268 -100 q122 95 183 261 l-350 0 q-47 -84 -101 -161 ZM135 650 l730 0 l0 -174 l-19 0 l0 155 l-691 0 l0 -155 l-20 0 l0 174 ZM405 796 l12 16 q86 -68 147 -127 l-14 -14 q-60 58 -145 125 Z" /><glyph glyph-name="" unicode="&#x5b8c;" d="M597 277 l-196 0 l0 -41 q-3 -273 -312 -339 l-4 19 q295 61 296 320 l0 41 l-269 0 l0 20 l773 0 l0 -20 l-268 0 l0 -246 q0 -83 80 -82 l122 -1 q68 0 87 60 q7 22 14 59 l19 -4 q-7 -38 -14 -62 q-23 -73 -106 -73 l-122 -1 q-98 3 -100 104 l0 246 ZM103 676 l792 0 l0 -179 l-20 0 l0 158 l-752 0 l0 -158 l-20 0 l0 179 ZM238 488 l519 0 l0 -21 l-519 0 l0 21 ZM418 799 l13 15 q66 -58 121 -114 l-14 -15 q-55 57 -120 114 Z" /><glyph glyph-name="" unicode="&#x5b98;" d="M239 516 l523 0 l0 -200 l-503 0 l0 -127 l550 0 l0 -292 l-20 0 l0 74 l-530 0 l0 -74 l-20 0 l0 619 ZM789 169 l-530 0 l0 -178 l530 0 l0 178 ZM742 497 l-483 0 l0 -161 l483 0 l0 161 ZM99 680 l801 0 l0 -163 l-19 0 l0 144 l-763 0 l0 -138 l-19 0 l0 157 ZM414 797 l12 16 q73 -53 133 -105 l-13 -15 q-59 51 -132 104 Z" /><glyph glyph-name="" unicode="&#x5b9a;" d="M51 -80 q170 138 221 358 l20 -5 q-13 -55 -33 -106 q78 -154 243 -194 l0 459 l-278 0 l0 20 l556 0 l0 -20 l-259 0 l0 -211 l319 0 l0 -19 l-319 0 l0 -234 q33 -5 69 -8 q96 -6 188 -9 q93 -2 172 -2 l1 -21 q-80 0 -173 3 q-93 3 -190 9 q-235 15 -340 204 q-63 -141 -184 -239 l-13 15 ZM108 668 l778 0 l0 -195 l-20 0 l0 175 l-738 0 l0 -175 l-20 0 l0 195 ZM429 798 l13 15 q77 -63 131 -115 l-14 -15 q-54 51 -130 115 Z" /><glyph glyph-name="" unicode="&#x5b9d;" d="M218 225 l277 0 l0 212 l-298 0 l0 20 l613 0 l0 -20 l-295 0 l0 -212 l281 0 l0 -20 l-281 0 l0 -249 l429 0 l0 -20 l-876 0 l0 20 l427 0 l0 249 l-277 0 l0 20 ZM109 665 l800 0 l0 -180 l-20 0 l0 160 l-760 0 l0 -160 l-20 0 l0 180 ZM413 794 l13 16 q70 -53 135 -111 l-14 -15 q-64 57 -134 110 ZM652 133 l13 14 q26 -22 60 -54 q34 -31 68 -66 l-14 -14 q-34 34 -68 66 q-34 31 -59 54 Z" /><glyph glyph-name="" unicode="&#x5b9e;" d="M512 145 q5 8 10 17 l-458 0 l0 20 l469 0 q33 65 50 160 q18 95 22 234 l20 0 q-4 -123 -19 -221 q-16 -97 -51 -173 l387 0 l0 -20 l-397 0 q-47 -92 -142 -156 q-95 -63 -253 -106 l-5 19 q139 38 229 92 q89 55 138 134 ZM114 670 l776 0 l0 -173 l-20 0 l0 153 l-736 0 l0 -149 l-20 0 l0 169 ZM605 67 l9 18 q150 -79 287 -161 l-11 -18 q-136 84 -285 161 ZM233 381 l9 17 q91 -48 185 -107 l-10 -17 q-93 59 -184 107 ZM307 532 l10 16 q73 -42 161 -104 l-12 -17 q-87 62 -159 105 ZM417 799 l12 16 q72 -55 137 -109 l-13 -15 q-64 53 -136 108 Z" /><glyph glyph-name="" unicode="&#x5ba1;" d="M489 584 l20 0 l0 -107 l311 0 l0 -462 l-20 0 l0 59 l-291 0 l0 -177 l-20 0 l0 177 l-289 0 l0 -59 l-20 0 l0 462 l309 0 l0 107 ZM800 457 l-291 0 l0 -172 l291 0 l0 172 ZM509 265 l0 -171 l291 0 l0 171 l-291 0 ZM200 457 l0 -172 l289 0 l0 172 l-289 0 ZM200 265 l0 -171 l289 0 l0 171 l-289 0 ZM75 673 l848 0 l0 -153 l-20 0 l0 133 l-808 0 l0 -133 l-20 0 l0 153 ZM400 793 l12 16 q67 -51 133 -109 l-14 -15 q-64 58 -131 108 Z" /><glyph glyph-name="" unicode="&#x5ba2;" d="M228 191 l549 0 l0 -294 l-19 0 l0 55 l-511 0 l0 -55 l-19 0 l0 294 ZM247 170 l0 -198 l511 0 l0 198 l-511 0 ZM141 400 q155 95 243 226 l16 -12 q-24 -36 -53 -69 l419 0 l0 -17 q-89 -98 -232 -177 q190 -96 422 -126 l-3 -19 q-242 32 -439 134 q-200 -105 -460 -157 l-3 19 q249 50 442 149 q-108 59 -201 137 q-61 -57 -141 -106 l-10 18 ZM736 524 l-408 0 q-10 -12 -22 -22 q96 -81 207 -140 q136 73 223 162 ZM109 692 l785 0 l0 -170 l-20 0 l0 150 l-745 0 l0 -149 l-20 0 l0 169 ZM414 798 l12 16 q20 -14 58 -41 q39 -28 76 -59 l-12 -15 q-37 30 -75 58 q-39 27 -59 41 Z" /><glyph glyph-name="" unicode="&#x5ba4;" d="M75 -45 l418 0 l0 162 l-316 0 l0 20 l316 0 l0 122 l20 0 l0 -122 l319 0 l0 -20 l-319 0 l0 -162 l421 0 l0 -20 l-859 0 l0 20 ZM226 312 q46 31 113 83 q67 52 120 99 l-257 0 l0 20 l600 0 l0 -20 l-313 0 q-46 -41 -112 -93 q-66 -53 -118 -91 q26 1 119 4 q93 3 195 7 q103 4 157 6 q-50 39 -101 77 l12 16 q98 -72 184 -145 l-13 -15 q-27 23 -58 48 l-522 -19 q-13 -1 -28 -6 l-7 18 l5 2 q15 5 24 9 ZM103 673 l800 0 l0 -181 l-20 0 l0 161 l-760 0 l0 -161 l-20 0 l0 181 ZM413 788 l11 17 q76 -51 140 -101 l-12 -16 q-63 49 -139 100 Z" /><glyph glyph-name="" unicode="&#x5bab;" d="M172 188 l658 0 l0 -291 l-20 0 l0 53 l-618 0 l0 -53 l-20 0 l0 291 ZM192 168 l0 -199 l618 0 l0 199 l-618 0 ZM499 538 l253 0 l0 -222 l-506 0 l0 222 l253 0 ZM732 518 l-466 0 l0 -182 l466 0 l0 182 ZM80 681 l840 0 l0 -182 l-20 0 l0 162 l-800 0 l0 -162 l-20 0 l0 182 ZM425 802 l13 15 q63 -50 125 -106 l-14 -15 q-60 56 -124 106 Z" /><glyph glyph-name="" unicode="&#x5bb3;" d="M228 182 l558 0 l0 -286 l-20 0 l0 65 l-519 0 l0 -65 l-19 0 l0 286 ZM247 162 l0 -181 l519 0 l0 181 l-519 0 ZM174 440 l321 0 l0 101 l-283 0 l0 20 l283 0 l0 64 l19 0 l0 -64 l286 0 l0 -20 l-286 0 l0 -101 l321 0 l0 -20 l-321 0 l0 -104 l426 0 l0 -20 l-426 0 l0 -68 l-19 0 l0 68 l-410 0 l0 20 l410 0 l0 104 l-321 0 l0 20 ZM127 697 l760 0 l0 -133 l-20 0 l0 112 l-720 0 l0 -114 l-20 0 l0 135 ZM422 793 l11 17 q65 -43 123 -87 l-13 -15 q-57 43 -121 85 Z" /><glyph glyph-name="" unicode="&#x5bb6;" d="M101 289 q243 69 373 213 l-252 0 l0 19 l268 0 q1 0 2 2 l2 -2 l280 0 l0 -19 l-274 0 q-33 -40 -77 -76 q96 -72 133 -177 q77 36 145 81 q68 44 119 91 l13 -15 q-64 -57 -152 -112 q22 -76 83 -157 q62 -82 183 -137 l-8 -18 q-124 56 -188 139 q-64 84 -87 163 q-50 -29 -101 -54 q20 -67 20 -151 q0 -175 -131 -176 q-43 0 -90 12 l5 18 q43 -10 85 -10 q111 0 111 156 q0 72 -16 132 q-152 -174 -424 -274 l-7 18 q134 50 243 121 q109 72 182 157 q-17 51 -48 94 q-73 -77 -178 -137 q-106 -60 -235 -99 l-6 20 q128 37 232 97 q104 59 175 134 q-31 39 -75 71 q-121 -92 -300 -143 l-5 19 ZM98 675 l800 0 l0 -186 l-20 0 l0 166 l-760 0 l0 -166 l-20 0 l0 186 ZM408 793 l11 17 q29 -20 66 -47 q37 -27 74 -57 l-12 -15 q-37 29 -74 56 q-37 27 -65 46 Z" /><glyph glyph-name="" unicode="&#x5bb9;" d="M248 213 l520 0 l0 -315 l-20 0 l0 63 l-480 0 l0 -63 l-20 0 l0 315 ZM268 193 l0 -211 l480 0 l0 211 l-480 0 ZM54 179 q146 48 269 126 q122 78 199 174 l15 -13 q-12 -14 -24 -29 q190 -175 447 -242 l-5 -19 q-262 67 -455 247 q-80 -83 -194 -152 q-114 -68 -246 -111 l-6 19 ZM131 695 l750 0 l0 -170 l-20 0 l0 150 l-710 0 l0 -150 l-20 0 l0 170 ZM133 415 q69 35 137 84 q69 48 122 99 l13 -14 q-54 -53 -123 -102 q-70 -50 -140 -85 l-9 18 ZM611 574 l11 17 q144 -88 264 -168 l-10 -17 q-121 80 -265 168 ZM420 800 l10 17 q72 -46 135 -94 l-12 -16 q-63 48 -133 93 Z" /><glyph glyph-name="" unicode="&#x5bbd;" d="M103 710 l443 0 q-58 46 -126 92 l11 17 q72 -48 131 -97 l-10 -12 l354 0 l0 -154 l-21 0 l0 134 l-762 0 l0 -134 l-20 0 l0 154 ZM232 365 l550 0 l0 -291 l-21 0 l0 270 l-509 0 l0 -267 l-20 0 l0 288 ZM626 634 l21 0 l0 -98 l197 0 l0 -20 l-197 0 l0 -84 l-21 0 l0 84 l-245 0 l0 -84 l-20 0 l0 84 l-195 0 l0 20 l195 0 l0 98 l20 0 l0 -98 l245 0 l0 98 ZM546 189 l21 0 l0 -154 q-2 -89 89 -87 l140 -1 q82 1 100 75 q3 13 7 33 q5 21 7 33 l19 -3 q-2 -12 -6 -32 q-4 -21 -7 -36 q-23 -89 -120 -90 l-140 -1 q-109 1 -110 109 l0 154 ZM484 300 l20 0 l0 -29 q3 -40 -22 -118 q-25 -78 -113 -153 q-88 -74 -275 -107 l-3 18 q179 33 264 103 q84 72 108 145 q24 74 21 112 l0 29 Z" /><glyph glyph-name="" unicode="&#x5bc6;" d="M335 502 l20 0 l0 -158 q0 -31 11 -49 q108 56 196 126 q89 71 145 149 l17 -12 q-58 -81 -147 -152 q-88 -71 -198 -128 q28 -19 61 -18 l183 0 q86 -2 104 79 l8 41 l20 -4 l-9 -41 q-22 -96 -123 -95 l-183 0 q-53 0 -80 29 q-141 -71 -299 -107 l-4 20 q151 35 291 104 q-13 24 -13 58 l0 158 ZM202 139 l19 0 l0 -181 l285 0 l0 209 l20 0 l0 -209 l286 0 l0 195 l20 0 l0 -256 l-20 0 l0 40 l-610 0 l0 202 ZM99 681 l798 0 l0 -159 l-19 0 l0 139 l-760 0 l0 -142 l-19 0 l0 162 ZM108 317 q82 96 127 184 l17 -10 q-45 -89 -129 -187 l-15 13 ZM781 465 l14 14 q79 -76 144 -155 l-15 -13 q-65 78 -143 154 ZM410 594 l12 16 q67 -51 132 -108 l-13 -15 q-65 57 -131 107 ZM425 792 l11 16 q68 -50 125 -100 l-14 -15 q-56 50 -122 99 Z" /><glyph glyph-name="" unicode="&#x5bcc;" d="M177 246 l650 0 l0 -351 l-20 0 l0 53 l-610 0 l0 -53 l-20 0 l0 351 ZM505 490 l249 0 l0 -153 l-498 0 l0 153 l249 0 ZM733 470 l-457 0 l0 -113 l457 0 l0 113 ZM512 88 l0 -120 l295 0 l0 120 l-295 0 ZM197 88 l0 -120 l295 0 l0 120 l-295 0 ZM807 227 l-295 0 l0 -119 l295 0 l0 119 ZM197 227 l0 -119 l295 0 l0 119 l-295 0 ZM93 712 l427 0 q-60 52 -105 85 l12 16 q23 -17 54 -41 q30 -24 60 -51 l-9 -9 l382 0 l0 -165 l-21 0 l0 145 l-780 0 l0 -145 l-20 0 l0 165 ZM198 597 l610 0 l0 -19 l-610 0 l0 19 Z" /><glyph glyph-name="" unicode="&#x5bdf;" d="M538 586 l19 6 q8 -25 19 -48 l264 0 l0 -19 q-47 -84 -122 -171 q98 -87 235 -136 l-7 -19 q-151 54 -257 155 q-106 100 -151 232 ZM260 438 l10 17 q48 -28 96 -62 q59 61 96 130 l-201 0 l0 2 q-63 -70 -153 -130 l-11 17 q132 86 203 198 l17 -11 q-19 -29 -41 -56 l210 0 l0 -19 q-60 -112 -168 -204 q-109 -93 -255 -157 l-8 19 q110 47 199 112 q-46 32 -93 60 l10 17 q52 -30 100 -64 q44 33 81 71 q-47 32 -92 60 ZM121 693 l773 0 l0 -132 l-21 0 l0 112 l-731 0 l0 -136 l-21 0 l0 156 ZM817 524 l-232 0 q44 -87 118 -157 q71 82 114 157 ZM210 177 l590 0 l0 -20 l-274 0 l0 -163 q-1 -91 -84 -91 q-17 -1 -41 3 q-24 3 -43 7 l4 19 q18 -3 41 -6 q23 -4 39 -3 q64 -2 64 72 l0 162 l-296 0 l0 20 ZM365 310 l297 0 l0 -20 l-297 0 l0 20 ZM144 -51 q116 56 213 131 l12 -16 q-98 -75 -216 -133 l-9 18 ZM661 60 l10 17 q101 -57 201 -128 l-12 -17 q-99 72 -199 128 ZM425 795 l12 15 q67 -51 118 -97 l-13 -14 q-50 44 -117 96 Z" /><glyph glyph-name="" unicode="&#x5bf8;" d="M67 581 l589 0 l0 232 l20 0 l0 -232 l275 0 l0 -20 l-275 0 l0 -541 q3 -39 -13 -77 q-17 -38 -93 -41 q-41 1 -103 12 l4 19 q60 -10 99 -10 q62 1 75 29 q14 28 11 68 l0 541 l-589 0 l0 20 ZM239 400 l15 13 q81 -89 173 -213 l-16 -12 q-91 123 -172 212 Z" /><glyph glyph-name="" unicode="&#x5bf9;" d="M103 480 l15 13 q82 -98 169 -215 q74 164 97 389 l-307 0 l0 20 l328 0 l0 -17 q-23 -240 -104 -411 q86 -115 162 -228 l-17 -11 q-73 108 -155 219 q-78 -158 -221 -287 l-14 13 q144 132 222 293 q-90 120 -175 222 ZM787 805 l20 0 l0 -229 l143 0 l0 -20 l-143 0 l0 -537 q2 -114 -108 -111 q-42 0 -88 11 l4 18 q44 -8 84 -9 q91 -4 88 91 l0 537 l-345 0 l0 20 l345 0 l0 229 ZM486 412 l15 13 q38 -44 75 -94 q37 -49 70 -98 l-16 -11 q-33 48 -70 97 q-37 49 -74 93 Z" /><glyph glyph-name="" unicode="&#x5bfc;" d="M275 351 q-99 2 -100 100 l0 300 l611 0 l0 -213 l-591 0 l0 -87 q0 -80 80 -80 l205 0 l276 0 q67 -1 94 31 q28 32 43 112 l19 -4 q-15 -83 -47 -121 q-32 -39 -109 -38 l-481 0 ZM766 732 l-571 0 l0 -174 l571 0 l0 174 ZM697 316 l20 0 l0 -107 l240 0 l0 -20 l-240 0 l0 -192 q-1 -96 -94 -97 q-29 -1 -79 9 l4 19 q48 -8 75 -8 q75 -1 74 78 l0 191 l-660 0 l0 20 l660 0 l0 107 ZM256 130 l11 17 q92 -63 174 -131 l-14 -15 q-79 67 -171 129 Z" /><glyph glyph-name="" unicode="&#x5c01;" d="M805 805 l21 0 l0 -237 l130 0 l0 -20 l-130 0 l0 -532 q3 -111 -105 -107 q-39 -1 -92 11 l4 18 q50 -9 88 -9 q46 -1 65 20 q20 20 19 67 l0 532 l-277 0 l0 20 l277 0 l0 237 ZM99 242 l194 0 l0 137 l20 0 l0 -137 l191 0 l0 -20 l-191 0 l0 -197 l227 46 l4 -20 l-490 -99 l-4 20 l243 49 l0 201 l-194 0 l0 20 ZM52 451 l241 0 l0 181 l-192 0 l0 20 l192 0 l0 154 l20 0 l0 -154 l190 0 l0 -20 l-190 0 l0 -181 l225 0 l0 -20 l-486 0 l0 20 ZM563 363 l16 12 q60 -87 113 -184 l-17 -9 q-53 97 -112 181 Z" /><glyph glyph-name="" unicode="&#x5c06;" d="M528 554 l9 18 q68 -38 132 -86 q122 84 194 194 l-318 0 q-60 -68 -153 -130 l-11 17 q87 58 145 122 q58 64 89 116 l17 -11 q-26 -42 -69 -94 l326 0 l0 -18 q-140 -225 -472 -340 l-6 19 q137 47 240 114 q-60 43 -123 79 ZM49 121 l218 239 l0 444 l20 0 l0 -911 l-20 0 l0 437 l-203 -222 l-15 13 ZM789 417 l20 0 l0 -120 l152 0 l0 -20 l-152 0 l0 -288 q-1 -89 -87 -90 q-17 0 -42 3 q-24 3 -45 7 l4 19 q19 -3 43 -6 q24 -3 40 -3 q68 -1 67 71 l0 287 l-429 0 l0 20 l429 0 l0 120 ZM53 638 l17 12 q76 -108 135 -215 l-17 -10 q-60 107 -135 213 ZM444 188 l13 16 q83 -70 147 -139 l-15 -14 q-63 69 -145 137 Z" /><glyph glyph-name="" unicode="&#x5c0f;" d="M501 807 l20 0 l0 -798 q-1 -100 -98 -101 q-20 -1 -48 3 q-28 3 -50 8 l4 19 q21 -4 48 -7 q27 -4 46 -3 q79 0 78 81 l0 798 ZM50 98 q120 216 180 473 l19 -4 q-60 -261 -181 -479 l-18 10 ZM738 561 l18 8 q113 -235 201 -473 l-19 -6 q-86 236 -200 471 Z" /><glyph glyph-name="" unicode="&#x5c11;" d="M487 807 l20 0 l0 -608 l-20 0 l0 608 ZM78 305 q132 153 209 344 l18 -7 q-77 -195 -212 -350 l-15 13 ZM703 635 l16 13 q120 -134 229 -283 l-16 -12 q-108 149 -229 282 ZM85 -76 q496 67 713 433 l17 -10 q-222 -375 -727 -443 l-3 20 Z" /><glyph glyph-name="" unicode="&#x5c18;" d="M55 -50 l435 0 l0 239 l-337 0 l0 20 l337 0 l0 129 l21 0 l0 -129 l346 0 l0 -20 l-346 0 l0 -239 l433 0 l0 -20 l-889 0 l0 20 ZM492 806 l20 0 l0 -422 l-20 0 l0 422 ZM93 419 q128 104 245 269 l17 -12 q-120 -166 -249 -273 l-13 16 ZM673 662 l15 14 q130 -126 232 -249 l-15 -12 q-102 121 -232 247 Z" /><glyph glyph-name="" unicode="&#x5c1a;" d="M324 329 l350 0 l0 -256 l-350 0 l0 256 ZM655 309 l-312 0 l0 -217 l312 0 l0 217 ZM119 484 l369 0 l0 322 l20 0 l0 -322 l371 0 l0 -467 q1 -53 -25 -79 q-27 -27 -88 -26 q-49 0 -93 10 l5 18 q42 -8 88 -8 q54 -1 74 21 q19 18 19 64 l0 447 l-720 0 l0 -567 l-20 0 l0 587 ZM152 742 l13 15 q101 -91 184 -182 l-15 -14 q-82 91 -182 181 ZM650 567 q95 90 173 188 l16 -12 q-80 -100 -175 -191 l-14 15 Z" /><glyph glyph-name="" unicode="&#x5c31;" d="M233 -61 q66 -3 63 63 l0 263 l-163 0 l0 223 l164 0 l165 0 l0 -223 l-146 0 l0 -263 q1 -83 -83 -82 q-29 0 -62 9 l5 18 q30 -8 57 -8 ZM442 469 l-289 0 l0 -184 l289 0 l0 184 ZM658 805 l20 0 l0 -243 q0 -22 -1 -43 l256 0 l0 -20 l-256 0 q-4 -215 -53 -352 q-49 -136 -162 -250 l-14 13 q110 111 157 245 q48 134 52 344 l-143 0 l0 20 l143 0 q1 21 1 43 l0 243 ZM724 421 l19 0 l0 -395 q-2 -85 74 -82 l33 -1 q62 -2 77 77 q2 10 5 27 q3 17 5 31 l20 -3 q-2 -14 -5 -31 q-3 -17 -5 -28 q-6 -33 -26 -62 q-21 -28 -71 -30 l-33 -1 q-94 0 -93 103 l0 395 ZM50 634 l488 0 l0 -20 l-488 0 l0 20 ZM54 -12 q73 90 126 191 l18 -10 q-54 -102 -128 -194 l-16 13 ZM755 734 l15 14 q62 -64 117 -130 l-16 -13 q-54 65 -116 129 ZM230 780 l14 14 q58 -59 112 -121 l-15 -13 q-54 62 -111 120 ZM393 168 l16 13 q46 -56 87 -116 l-16 -12 q-42 60 -87 115 Z" /><glyph glyph-name="" unicode="&#x5c3a;" d="M208 756 l609 0 l0 -300 l-343 0 q55 -166 178 -293 q122 -127 296 -196 l-7 -19 q-180 72 -306 203 q-127 132 -183 305 l-223 0 l0 -60 q1 -160 -40 -274 q-42 -115 -131 -201 l-14 13 q86 84 125 195 q40 111 39 267 l0 360 ZM796 736 l-567 0 l0 -260 l567 0 l0 260 Z" /><glyph glyph-name="" unicode="&#x5c3c;" d="M521 748 l330 0 l0 -253 l-640 0 l0 -73 q0 -125 -11 -211 q-11 -87 -39 -158 q-29 -70 -81 -151 l-17 10 q51 80 79 149 q28 69 39 153 q11 84 10 208 l-1 326 l331 0 ZM831 728 l-620 0 l0 -212 l620 0 l0 212 ZM412 410 l21 0 l0 -252 q106 34 229 87 q122 53 212 109 l11 -16 q-92 -58 -218 -113 q-126 -54 -234 -89 l0 -82 q-3 -103 99 -100 l240 -1 q95 -1 114 83 q3 11 8 33 q4 23 7 39 l20 -4 q-3 -17 -8 -39 q-5 -23 -8 -34 q-24 -98 -133 -97 l-240 -1 q-121 -1 -120 121 l0 356 Z" /><glyph glyph-name="" unicode="&#x5c3d;" d="M517 753 l304 0 l0 -253 l-310 0 q85 -114 190 -189 q106 -75 262 -133 l-7 -19 q-162 60 -272 139 q-110 80 -198 202 l-253 0 l0 -30 q0 -113 -49 -210 q-48 -97 -139 -166 l-12 16 q87 66 133 159 q47 93 47 201 l0 283 l304 0 ZM801 733 l-568 0 l0 -214 l568 0 l0 214 ZM260 72 l6 19 q109 -40 209 -84 q99 -44 205 -101 l-10 -18 q-105 57 -203 101 q-99 44 -207 83 ZM401 233 l8 19 q72 -32 131 -62 q59 -31 119 -66 l-10 -17 q-59 35 -118 65 q-59 30 -130 61 Z" /><glyph glyph-name="" unicode="&#x5c40;" d="M194 755 l649 0 l0 -205 l-629 0 l0 -60 q0 -44 -1 -83 l685 0 l-8 -363 q-4 -128 -131 -129 q-39 0 -91 9 l3 19 q51 -8 88 -8 q109 -1 112 110 q0 2 1 51 q1 48 2 113 q1 65 2 117 q2 51 2 61 l-666 0 q-3 -143 -32 -252 q-30 -110 -106 -225 l-17 10 q58 89 88 172 q30 83 40 178 q10 95 9 220 l0 265 ZM823 735 l-610 0 q0 -12 0 -61 q0 -48 1 -104 l609 0 l0 165 ZM340 259 l360 0 l0 -202 l-360 0 l0 202 ZM680 240 l-320 0 l0 -163 l320 0 l0 163 Z" /><glyph glyph-name="" unicode="&#x5c42;" d="M174 748 l691 0 l0 -204 l-670 0 l0 -60 q2 -157 -25 -299 q-27 -141 -107 -283 l-17 9 q78 140 105 279 q26 139 24 294 l-1 264 ZM845 728 l-650 0 l0 -164 l650 0 l0 164 ZM314 -33 q24 20 65 63 q42 43 86 92 q44 49 75 86 l-302 0 l0 20 l715 0 l0 -20 l-388 0 q-27 -33 -69 -80 q-41 -48 -84 -93 q-42 -44 -72 -72 q13 1 75 4 q61 3 143 7 q82 4 155 7 q73 3 108 5 q-65 70 -134 137 l14 14 q107 -103 201 -212 l-15 -14 q-23 29 -48 56 l-514 -25 q-16 -1 -30 -6 l-6 19 q12 3 25 12 ZM327 402 l523 0 l0 -21 l-523 0 l0 21 Z" /><glyph glyph-name="" unicode="&#x5c45;" d="M304 208 l254 0 l0 155 l-351 0 q-4 -133 -35 -239 q-30 -105 -104 -214 l-16 10 q58 86 88 168 q29 82 39 176 q11 94 10 215 l0 271 l668 0 l0 -211 l-279 0 l0 -156 l354 0 l0 -20 l-354 0 l0 -155 l280 0 l0 -311 l-21 0 l0 63 l-512 0 l0 -63 l-21 0 l0 311 ZM836 730 l-627 0 l0 -172 l627 0 l0 172 ZM325 188 l0 -208 l512 0 l0 208 l-512 0 ZM209 479 q0 -51 -1 -96 l350 0 l0 156 l-349 0 l0 -60 Z" /><glyph glyph-name="" unicode="&#x5c4f;" d="M524 753 l345 0 l0 -182 l-671 0 l0 -89 q2 -155 -25 -295 q-27 -140 -106 -280 l-18 10 q79 139 105 278 q26 139 24 294 l0 264 l346 0 ZM233 182 l209 0 q3 30 3 59 l0 120 l-177 0 l0 20 l346 0 q95 75 164 162 l16 -13 q-64 -79 -148 -149 l263 0 l0 -20 l-181 0 l0 -179 l208 0 l0 -20 l-208 0 l0 -262 l-20 0 l0 262 l-248 0 q-7 -73 -48 -143 q-41 -70 -138 -124 l-9 16 q91 52 129 117 q39 66 46 134 l-207 0 l0 20 ZM850 733 l-652 0 l0 -142 l652 0 l0 142 ZM465 241 q0 -29 -3 -59 l246 0 l0 179 l-243 0 l0 -120 ZM362 527 l12 16 q66 -50 126 -103 l-14 -15 q-57 53 -124 102 Z" /><glyph glyph-name="" unicode="&#x5c55;" d="M688 513 l20 0 l0 -89 l158 0 l0 -20 l-158 0 l0 -149 l230 0 l0 -20 l-383 0 q58 -91 136 -158 q93 51 166 107 l12 -16 q-70 -55 -162 -105 q106 -86 251 -134 l-6 -20 q-276 91 -420 326 l-158 0 l0 -308 q12 7 63 32 q51 24 99 46 q48 23 51 25 l10 -18 q-4 -2 -57 -27 q-53 -25 -107 -51 q-53 -26 -59 -28 q-8 -6 -17 -17 l-16 12 q10 11 13 20 l0 314 l-174 0 q-10 -95 -38 -175 q-28 -80 -81 -154 l-16 11 q77 110 103 239 q25 130 23 313 l-1 284 l344 0 l344 0 l0 -185 l-667 0 l0 -99 q1 -120 -8 -214 l232 0 l0 149 l-141 0 l0 20 l141 0 l0 89 l20 0 l0 -89 l253 0 l0 89 ZM838 733 l-647 0 l0 -144 l647 0 l0 144 ZM435 404 l0 -149 l253 0 l0 149 l-253 0 Z" /><glyph glyph-name="" unicode="&#x5c5e;" d="M255 176 l304 0 l0 80 l-252 0 l0 146 l252 0 l0 93 q-142 -9 -288 -12 l-1 20 q309 8 588 38 l2 -20 q-138 -15 -282 -24 l0 -95 l250 0 l0 -146 l-250 0 l0 -80 l326 0 l0 -169 q0 -21 -4 -43 q-4 -22 -19 -37 q-21 -22 -64 -21 q-37 2 -71 9 l4 19 q33 -6 68 -8 q33 0 48 15 q12 12 15 30 q3 18 3 36 l0 148 l-306 0 l0 -122 q83 7 165 16 q-22 24 -46 48 l14 14 q58 -57 102 -112 l-16 -13 q-17 23 -38 45 q-191 -20 -379 -32 l-1 19 q89 6 180 13 l0 124 l-284 0 l0 -258 l-20 0 l0 279 ZM520 750 l353 0 l0 -154 l-687 0 l0 -140 q2 -181 -24 -311 q-25 -129 -105 -241 l-16 10 q78 111 103 240 q25 130 23 312 l0 284 l353 0 ZM853 730 l-667 0 l0 -114 l667 0 l0 114 ZM327 382 l0 -105 l232 0 l0 105 l-232 0 ZM809 382 l-231 0 l0 -105 l231 0 l0 105 Z" /><glyph glyph-name="" unicode="&#x5c71;" d="M122 616 l20 0 l0 -597 l345 0 l0 788 l20 0 l0 -788 l347 0 l0 593 l20 0 l0 -714 l-20 0 l0 101 l-732 0 l0 617 Z" /><glyph glyph-name="" unicode="&#x5d4c;" d="M392 548 l20 0 l0 -126 l113 0 l0 -19 l-113 0 l0 -439 l-20 0 l0 62 l-213 0 l0 -81 l-20 0 l0 458 l-112 0 l0 19 l112 0 l0 126 l20 0 l0 -126 l213 0 l0 126 ZM179 221 l0 -175 l213 0 l0 175 l-213 0 ZM179 403 l0 -162 l213 0 l0 162 l-213 0 ZM814 777 l20 0 l0 -171 l-663 0 l0 171 l20 0 l0 -151 l300 0 l0 180 l20 0 l0 -180 l303 0 l0 151 ZM674 243 q1 6 1 14 l1 79 l20 -1 l-1 -78 q0 -6 -1 -12 q36 -205 259 -320 l-9 -19 q-203 106 -257 283 q-39 -187 -268 -293 l-8 17 q249 117 263 328 l0 2 ZM496 256 q52 68 86 143 q34 76 57 170 l20 -4 q-17 -69 -39 -127 l289 0 l0 -18 l-71 -161 l-18 8 q1 2 16 36 q15 34 30 70 q16 36 20 45 l-274 0 q-39 -93 -100 -174 l-16 12 Z" /><glyph glyph-name="" unicode="&#x5dde;" d="M543 766 l20 0 l0 -832 l-20 0 l0 832 ZM847 807 l19 0 l0 -910 l-19 0 l0 910 ZM254 807 l20 0 l0 -398 q3 -144 -32 -267 q-36 -122 -141 -242 l-15 12 q102 117 137 237 q34 119 31 260 l0 398 ZM74 269 q43 119 71 262 l20 -4 q-28 -144 -72 -265 l-19 7 ZM355 499 l18 10 q51 -92 103 -201 l-18 -9 q-52 109 -103 200 ZM634 504 l17 10 q61 -102 111 -203 l-17 -10 q-51 102 -111 203 Z" /><glyph glyph-name="" unicode="&#x5de5;" d="M53 -25 l437 0 l0 704 l-358 0 l0 20 l737 0 l0 -20 l-359 0 l0 -704 l436 0 l0 -19 l-893 0 l0 19 Z" /><glyph glyph-name="" unicode="&#x5de6;" d="M48 77 q129 110 216 242 q87 133 137 296 l-304 0 l0 20 l310 0 q24 82 40 174 l19 -4 q-15 -89 -38 -170 l515 0 l0 -20 l-521 0 q-50 -168 -139 -303 q-89 -136 -222 -250 l-13 15 ZM185 -42 l390 0 l0 361 l-267 0 l0 20 l559 0 l0 -20 l-272 0 l0 -361 l350 0 l0 -20 l-760 0 l0 20 Z" /><glyph glyph-name="" unicode="&#x5de8;" d="M173 741 l707 0 l0 -20 l-688 0 l0 -227 l615 0 l0 -282 l-615 0 l0 -246 l736 0 l0 -20 l-755 0 l0 795 ZM787 474 l-595 0 l0 -242 l595 0 l0 242 Z" /><glyph glyph-name="" unicode="&#x5dee;" d="M153 647 l436 0 q79 74 144 156 l15 -12 q-59 -75 -130 -144 l270 0 l0 -20 l-373 0 q-11 -70 -28 -132 l336 0 l0 -21 l-343 0 q-21 -69 -53 -129 l519 0 l0 -20 l-531 0 q-107 -184 -350 -303 l-9 19 q230 112 335 284 l-303 0 l0 20 l315 0 q33 59 56 129 l-254 0 l0 21 l260 0 q18 62 29 132 l-341 0 l0 20 ZM186 -58 l384 0 l0 212 l-246 0 l0 21 l522 0 l0 -21 l-256 0 l0 -212 l345 0 l0 -20 l-749 0 l0 20 ZM284 792 l13 15 q72 -59 133 -119 l-14 -14 q-61 59 -132 118 Z" /><glyph glyph-name="" unicode="&#x5df1;" d="M147 731 l665 0 l0 -349 l-617 0 l0 -336 q2 -96 96 -99 l443 -1 q72 2 104 33 q32 31 45 87 q8 28 14 63 l20 -3 q-6 -37 -15 -65 q-11 -54 -47 -93 q-35 -39 -121 -41 l-443 -1 q-55 2 -85 33 q-31 32 -32 87 l0 356 l618 0 l0 309 l-645 0 l0 20 Z" /><glyph glyph-name="" unicode="&#x5df2;" d="M185 546 l20 0 l0 -158 l600 0 l0 328 l-662 0 l0 21 l682 0 l0 -369 l-620 0 l0 -291 q-1 -131 124 -129 l416 -1 q71 0 101 31 q30 29 46 96 q8 30 13 61 l20 -3 q-6 -32 -13 -63 q-17 -72 -52 -106 q-35 -35 -115 -35 l-416 -1 q-143 1 -144 150 l0 469 Z" /><glyph glyph-name="" unicode="&#x5e02;" d="M38 633 l917 0 l0 -21 l-449 0 l0 -187 l311 0 l0 -297 q0 -112 -103 -112 q-50 1 -89 10 l4 19 q37 -7 85 -9 q85 -3 82 92 l0 277 l-290 0 l0 -509 l-20 0 l0 509 l-285 0 l0 -402 l-20 0 l0 422 l305 0 l0 187 l-448 0 l0 21 ZM390 794 l13 15 q39 -32 80 -70 q41 -37 75 -71 l-15 -14 q-32 33 -73 70 q-41 38 -80 70 Z" /><glyph glyph-name="" unicode="&#x5e03;" d="M50 211 q119 79 212 185 q92 107 151 233 l-343 0 l0 20 l352 0 q35 78 54 161 l20 -4 q-19 -81 -52 -157 l502 0 l0 -20 l-511 0 q-56 -122 -143 -227 l248 0 l0 124 l20 0 l0 -124 l274 0 l0 -307 q0 -92 -87 -92 q-35 0 -72 8 l5 20 q34 -7 67 -7 q69 -1 68 71 l0 286 l-255 0 l0 -484 l-20 0 l0 484 l-247 0 l0 -392 l-20 0 l0 390 q-94 -107 -213 -185 l-10 17 Z" /><glyph glyph-name="" unicode="&#x5e08;" d="M424 520 l219 0 l0 207 l-278 0 l0 20 l564 0 l0 -20 l-266 0 l0 -207 l220 0 l0 -389 q0 -42 -22 -64 q-21 -21 -59 -21 q-40 1 -69 7 l4 20 q28 -6 65 -7 q29 0 45 15 q16 17 16 50 l0 369 l-200 0 l0 -604 l-20 0 l0 604 l-200 0 l0 -468 l-19 0 l0 488 ZM269 807 l20 0 l0 -333 q1 -152 -16 -254 q-18 -102 -60 -177 q-42 -74 -117 -144 l-14 13 q73 69 114 141 q41 73 57 173 q17 99 16 248 l0 333 ZM105 715 l20 0 l0 -532 l-20 0 l0 532 Z" /><glyph glyph-name="" unicode="&#x5e26;" d="M736 807 l20 0 l0 -141 l200 0 l0 -21 l-200 0 l0 -134 l-20 0 l0 134 l-221 0 l0 -127 l-20 0 l0 127 l-219 0 l0 -135 l-20 0 l0 135 l-201 0 l0 21 l201 0 l0 141 l20 0 l0 -141 l219 0 l0 141 l20 0 l0 -141 l221 0 l0 141 ZM217 263 l278 0 l0 95 l20 0 l0 -95 l280 0 l0 -193 q-1 -94 -89 -96 q-37 1 -71 9 l3 18 q33 -6 68 -6 q70 0 70 75 l0 173 l-261 0 l0 -346 l-20 0 l0 346 l-258 0 l0 -273 l-20 0 l0 293 ZM85 446 l844 0 l0 -156 l-20 0 l0 135 l-804 0 l0 -135 l-20 0 l0 156 Z" /><glyph glyph-name="" unicode="&#x5e27;" d="M102 647 l132 0 l0 156 l20 0 l0 -156 l131 0 l0 -487 q-2 -47 -22 -62 q-20 -14 -38 -13 q-18 1 -40 4 l3 20 q22 -4 37 -4 q13 -1 26 9 q12 10 13 46 l0 467 l-110 0 l0 -733 l-20 0 l0 733 l-112 0 l0 -560 l-20 0 l0 580 ZM648 804 l21 0 l0 -116 l292 0 l0 -20 l-292 0 l0 -159 l211 0 l0 -426 l-21 0 l0 405 l-352 0 l0 -405 l-20 0 l0 426 l161 0 l0 295 ZM673 393 l21 0 l0 -108 q0 -146 -71 -242 q-72 -95 -222 -149 l-7 18 q144 53 212 142 q68 91 67 231 l0 108 ZM719 58 l11 17 q113 -75 226 -157 l-12 -18 q-58 44 -112 82 q-55 37 -113 76 Z" /><glyph glyph-name="" unicode="&#x5e2e;" d="M127 570 l186 0 q1 21 1 43 l0 79 l-220 0 l0 20 l220 0 l0 94 l19 0 l0 -94 l189 0 l0 -20 l-189 0 l0 -79 q0 -22 -1 -43 l160 0 l0 -20 l-162 0 q-5 -72 -26 -129 l218 0 l0 -20 l-226 0 q-54 -130 -212 -211 l-9 18 q145 74 199 193 l-207 0 l0 20 l216 0 q22 57 28 129 l-184 0 l0 20 ZM225 219 l267 0 l0 82 l20 0 l0 -82 l286 0 l0 -167 q0 -88 -91 -89 q-34 1 -65 7 l2 20 q32 -6 63 -6 q72 -1 71 68 l0 147 l-266 0 l0 -302 l-20 0 l0 302 l-248 0 l0 -238 l-19 0 l0 258 ZM619 750 l296 0 l0 -21 l-140 -180 q138 -64 138 -153 q0 -36 -23 -59 q-29 -27 -84 -28 q-37 0 -87 16 l6 19 q48 -14 81 -14 q47 -1 70 22 q17 15 17 44 q1 79 -137 140 l-12 6 q2 3 35 45 q33 42 68 87 q35 44 43 56 l-251 0 l0 -449 l-20 0 l0 469 Z" /><glyph glyph-name="" unicode="&#x5e38;" d="M188 185 l305 0 l0 118 l-230 0 l0 183 l239 0 l237 0 l0 -183 l-226 0 l0 -118 l312 0 l0 -133 q-3 -80 -82 -82 q-36 0 -78 10 l4 18 q41 -8 74 -8 q60 1 62 62 l0 114 l-292 0 l0 -272 l-20 0 l0 272 l-285 0 l0 -200 l-20 0 l0 219 ZM720 466 l-437 0 l0 -143 l437 0 l0 143 ZM96 618 l395 0 l0 187 l20 0 l0 -187 l395 0 l0 -155 l-20 0 l0 135 l-771 0 l0 -135 l-19 0 l0 155 ZM639 655 q80 64 143 125 l14 -14 q-64 -62 -144 -127 l-13 16 ZM207 767 l13 15 l145 -123 l-13 -15 l-145 123 Z" /><glyph glyph-name="" unicode="&#x5e45;" d="M445 318 l464 0 l0 -422 l-20 0 l0 67 l-424 0 l0 -67 l-20 0 l0 422 ZM675 621 l184 0 l0 -189 l-369 0 l0 189 l185 0 ZM839 602 l-329 0 l0 -151 l329 0 l0 151 ZM96 650 l128 0 l0 156 l19 0 l0 -156 l127 0 l0 -478 q-2 -47 -21 -60 q-19 -14 -37 -13 q-18 0 -39 3 l3 20 q19 -3 36 -3 q13 -1 25 9 q12 9 13 44 l0 459 l-107 0 l0 -734 l-19 0 l0 734 l-109 0 l0 -550 l-19 0 l0 569 ZM687 131 l0 -148 l202 0 l0 148 l-202 0 ZM465 131 l0 -148 l202 0 l0 148 l-202 0 ZM465 298 l0 -147 l202 0 l0 147 l-202 0 ZM889 298 l-202 0 l0 -147 l202 0 l0 147 ZM415 751 l523 0 l0 -20 l-523 0 l0 20 Z" /><glyph glyph-name="" unicode="&#x5e55;" d="M75 286 l309 0 q44 45 70 96 l-245 0 l0 240 l130 0 l0 92 l-259 0 l0 21 l259 0 l0 72 l20 0 l0 -72 l291 0 l0 72 l20 0 l0 -72 l263 0 l0 -21 l-263 0 l0 -92 l139 0 l0 -240 l-333 0 q-23 -51 -65 -96 l522 0 l0 -21 l-274 0 q62 -51 136 -87 q75 -35 169 -59 l-5 -20 q-103 26 -183 67 q-81 40 -148 99 l-237 0 q-119 -115 -332 -180 l-6 19 q195 60 309 161 l-287 0 l0 21 ZM789 602 l-560 0 l0 -90 l560 0 l0 90 ZM789 403 l0 89 l-560 0 l0 -89 l560 0 ZM509 622 l141 0 l0 92 l-291 0 l0 -92 l150 0 ZM496 214 l20 0 l0 -73 l279 0 l0 -103 q0 -46 -25 -68 q-20 -17 -56 -17 q-29 -1 -74 8 l3 18 q43 -6 71 -6 q28 0 43 13 q18 14 18 52 l0 83 l-259 0 l0 -223 l-20 0 l0 223 l-249 0 l0 -182 l-20 0 l0 202 l269 0 l0 73 Z" /></font>
</defs>
</svg>
